<svg width="184" height="162" viewBox="0 0 184 162" fill="none" xmlns="http://www.w3.org/2000/svg">
<path d="M183.03 146.454H0.969569C0.774145 146.454 0.615723 146.295 0.615723 146.098C0.615723 145.902 0.774145 145.743 0.969569 145.743H183.03C183.226 145.743 183.384 145.902 183.384 146.098C183.384 146.295 183.226 146.454 183.03 146.454Z" fill="#D1D3D4"/>
<rect x="127.144" y="84.1406" width="40.6428" height="70.0579" fill="white"/>
<path fill-rule="evenodd" clip-rule="evenodd" d="M127.144 154.554H167.787C167.883 154.554 167.975 154.514 168.042 154.445C168.109 154.375 168.144 154.281 168.14 154.184V84.1404C168.14 83.9442 167.982 83.7852 167.787 83.7852H127.144C126.948 83.7852 126.79 83.9442 126.79 84.1404V154.198C126.79 154.395 126.948 154.554 127.144 154.554ZM167.433 153.843H127.498V84.4957H167.433V153.843Z" fill="#231F20"/>
<rect x="15.1729" y="84.1406" width="40.6428" height="70.0579" fill="white"/>
<path fill-rule="evenodd" clip-rule="evenodd" d="M15.1727 154.554H55.8155C55.9118 154.554 56.004 154.514 56.0708 154.445C56.1376 154.375 56.1732 154.281 56.1693 154.184V84.1404C56.1693 83.9442 56.0109 83.7852 55.8155 83.7852H15.1727C14.9773 83.7852 14.8188 83.9442 14.8188 84.1404V154.198C14.8188 154.395 14.9773 154.554 15.1727 154.554ZM55.4616 153.843H15.5265V84.4957H55.4616V153.843Z" fill="#231F20"/>
<path d="M134.709 63.8267L142.756 80.048H120.994L134.709 63.8267Z" fill="#231F20"/>
<path fill-rule="evenodd" clip-rule="evenodd" d="M121.015 80.403H142.755C142.89 80.416 143.02 80.3495 143.088 80.2324C143.149 80.1269 143.149 79.9969 143.088 79.8914L135.049 63.6701C134.995 63.5636 134.891 63.4915 134.773 63.4782C134.655 63.4595 134.536 63.5056 134.461 63.599L120.746 79.8203C120.655 79.9235 120.632 80.0712 120.69 80.1969C120.75 80.3228 120.876 80.4029 121.015 80.403ZM142.182 79.6924H121.758L134.631 64.473L142.182 79.6924Z" fill="#231F20"/>
<path d="M72.9062 80.0477H124.716L143.513 52.394H94.6041L72.9062 80.0477Z" fill="#231F20"/>
<path fill-rule="evenodd" clip-rule="evenodd" d="M72.8923 80.4033H124.717C124.836 80.406 124.948 80.3469 125.014 80.247L143.81 52.6004C143.881 52.4874 143.881 52.3439 143.81 52.2309C143.747 52.1161 143.629 52.0431 143.499 52.0391H94.5901C94.4822 52.0385 94.3802 52.0884 94.3141 52.1741L72.6163 79.8278C72.5323 79.9344 72.5164 80.0797 72.5751 80.2021C72.6338 80.3246 72.7569 80.4027 72.8923 80.4033ZM124.554 79.6928H73.6353L94.7741 52.7496H142.869L124.554 79.6928Z" fill="#231F20"/>
<path d="M96.1611 55.0801L80.6768 75.2235H119.126L133.676 55.0801H96.1611Z" fill="white"/>
<path fill-rule="evenodd" clip-rule="evenodd" d="M80.6768 75.5787H119.126C119.234 75.5737 119.333 75.5185 119.395 75.4294L133.945 55.286C134.015 55.173 134.015 55.0296 133.945 54.9166C133.887 54.7972 133.766 54.7224 133.633 54.7247H96.1257C96.0178 54.7241 95.9158 54.774 95.8497 54.8597L80.3584 75.0031C80.2914 75.1196 80.2914 75.2632 80.3584 75.3797C80.4179 75.5017 80.5415 75.5789 80.6768 75.5787ZM118.906 74.8681H81.3987L96.338 55.421H132.982L118.906 74.8681Z" fill="#231F20"/>
<path d="M107.173 71.557C107.022 71.5559 106.889 71.4589 106.84 71.3154C104.979 65.8088 102.389 59.7694 101.448 59.6272C100.323 59.6272 93.1041 65.617 86.6924 71.4717C86.5989 71.558 86.4666 71.5877 86.3454 71.5495C86.2241 71.5113 86.1324 71.4111 86.1047 71.2866C86.0771 71.1621 86.1176 71.0322 86.2112 70.9459C88.4333 68.9209 99.4804 58.9238 101.512 58.9238H101.589C103.401 59.2009 106.607 68.3028 107.548 71.088C107.579 71.1775 107.573 71.2758 107.53 71.3603C107.487 71.4447 107.412 71.5081 107.322 71.5357C107.275 71.5557 107.224 71.5631 107.173 71.557Z" fill="#D1D3D4"/>
<path d="M118.722 72.296C118.563 72.2951 118.424 72.1875 118.383 72.0331C117.137 67.5923 115.361 62.8531 114.526 62.6044C113.691 62.3557 109.813 65.8728 106.656 69.2549C106.521 69.3981 106.296 69.4045 106.154 69.2691C106.011 69.1337 106.005 68.9079 106.14 68.7646C107.753 67.0381 113.132 61.4462 114.731 61.9294C116.33 62.4125 118.623 70.271 119.062 71.8767C119.117 72.0651 119.009 72.2623 118.821 72.3173L118.722 72.296Z" fill="#D1D3D4"/>
<path fill-rule="evenodd" clip-rule="evenodd" d="M128.538 65.1266C128.538 65.6595 129.225 66.0787 130.095 66.0787C130.965 66.0787 131.652 65.6595 131.652 65.1266C131.652 64.5937 130.944 64.1816 130.095 64.1816C129.246 64.1816 128.538 64.5937 128.538 65.1266ZM128.68 65.1266C128.68 64.7074 129.345 64.3593 130.095 64.3593V64.3806C130.845 64.3806 131.475 64.7074 131.475 65.1266C131.475 65.5459 130.881 65.9011 130.095 65.9011C129.309 65.9011 128.68 65.5459 128.68 65.1266Z" fill="#A7A9AC"/>
<path d="M136.28 58.0217H133.138C133.093 58.0183 133.057 57.9821 133.053 57.9365C133.053 57.8881 133.09 57.8478 133.138 57.8441H136.28C136.304 57.844 136.327 57.854 136.343 57.8715C136.359 57.8891 136.367 57.9126 136.365 57.9365C136.365 57.9835 136.327 58.0217 136.28 58.0217Z" fill="#A7A9AC"/>
<path d="M124.717 80.403C124.641 80.4037 124.567 80.3814 124.504 80.3391C124.349 80.2214 124.315 80.0015 124.426 79.8417L134.461 66.0149C134.517 65.9384 134.6 65.8871 134.693 65.8725C134.786 65.8578 134.881 65.8809 134.957 65.9367C135.112 66.0544 135.146 66.2743 135.035 66.4341L125 80.2893C124.927 80.3674 124.823 80.409 124.717 80.403Z" fill="white"/>
<path fill-rule="evenodd" clip-rule="evenodd" d="M105.616 58.6467C105.616 59.51 106.313 60.2098 107.173 60.2098C108.033 60.2098 108.73 59.51 108.73 58.6467C108.73 57.7833 108.033 57.0835 107.173 57.0835C106.313 57.0835 105.616 57.7833 105.616 58.6467ZM106.324 58.6467C106.324 58.1758 106.704 57.794 107.173 57.794C107.399 57.7921 107.616 57.8813 107.776 58.0416C107.935 58.202 108.024 58.4199 108.022 58.6467C108.022 59.1175 107.642 59.4993 107.173 59.4993C106.704 59.4993 106.324 59.1175 106.324 58.6467Z" fill="#D1D3D4"/>
<rect x="9.77344" y="80.6519" width="159.74" height="6.79974" fill="white"/>
<path fill-rule="evenodd" clip-rule="evenodd" d="M9.77328 87.8066H169.521C169.716 87.8066 169.875 87.6476 169.875 87.4514V80.6516C169.871 80.457 169.715 80.3002 169.521 80.2964H9.77328C9.57944 80.3002 9.4232 80.457 9.41943 80.6516V87.4514C9.41943 87.6476 9.57786 87.8066 9.77328 87.8066ZM169.139 87.0961H10.1271V80.9998H169.139V87.0961Z" fill="#231F20"/>
<path d="M69.8564 117.436C70.005 117.94 61.0669 150.155 61.0669 150.155L73.5577 152.173L88.3201 107.666L69.8564 117.436Z" fill="white"/>
<path fill-rule="evenodd" clip-rule="evenodd" d="M73.5008 152.529H73.5574C73.707 152.531 73.8412 152.436 73.89 152.294L88.6595 107.787C88.6999 107.649 88.6587 107.5 88.5534 107.403C88.4411 107.312 88.2861 107.296 88.1571 107.361L69.6934 117.13C69.5675 117.195 69.4923 117.33 69.5023 117.471C69.4032 118.537 64.2088 137.515 60.7199 150.063C60.6978 150.162 60.7129 150.266 60.7623 150.355C60.8192 150.439 60.9092 150.496 61.01 150.511L73.5008 152.529ZM73.3309 151.776L61.5266 149.864H61.5125C66.8768 130.524 69.7854 119.717 70.1746 117.677L87.7254 108.398L73.3309 151.776Z" fill="#231F20"/>
<path d="M60.3095 148.763L58.4058 154.774L88.3199 157.097C86.9151 154.257 84.4861 152.059 81.5261 150.951C78.4193 149.857 75.0719 148.55 75.0719 148.55L73.5575 152.173L60.3095 148.763Z" fill="#231F20"/>
<path fill-rule="evenodd" clip-rule="evenodd" d="M58.4056 155.129L88.3198 157.452C88.4617 157.487 88.6098 157.427 88.6878 157.303C88.7483 157.195 88.7483 157.063 88.6878 156.955C87.2477 154.022 84.743 151.754 81.6887 150.617C79.4573 149.833 77.084 148.924 75.9392 148.486C75.5082 148.321 75.2513 148.223 75.2416 148.223C75.1563 148.188 75.0605 148.188 74.9755 148.224C74.8905 148.26 74.8233 148.329 74.7887 148.415L73.3733 151.754L60.4226 148.422C60.2416 148.375 60.0556 148.478 59.998 148.656L58.0943 154.667C58.0615 154.771 58.0778 154.884 58.1385 154.974C58.1992 155.064 58.2976 155.121 58.4056 155.129ZM87.7112 156.699L58.8727 154.454L60.5429 149.21L73.4653 152.521C73.6378 152.563 73.8148 152.473 73.8829 152.308L75.2629 149.011C75.3007 149.026 75.3415 149.041 75.3853 149.058C76.3998 149.445 78.9908 150.434 81.4127 151.285C84.0802 152.292 86.3099 154.208 87.7112 156.699Z" fill="#231F20"/>
<path d="M39.3122 117.862L37.1891 151.797C37.1891 151.797 30.0131 152.046 28.2156 153.31C26.418 154.575 24.9531 160.302 24.9531 160.302H27.1894C27.1894 160.302 28.4916 156.039 29.9211 155.527C31.3507 155.016 39.475 154.817 39.475 154.817C39.475 154.817 43.3956 156.337 44.0254 158.945C44.5208 160.998 44.3793 161.474 44.3793 161.474H46.8562C46.8502 160.306 46.6835 159.144 46.3608 158.021C45.8654 156.6 44.0042 154.902 44.0042 154.902C44.0042 154.902 48.1017 154.987 49.4676 154.987C50.8334 154.987 52.2559 157.602 52.2559 157.602H54.9239C54.9239 157.602 52.1356 152.884 50.331 152.55C48.5264 152.216 43.898 151.406 43.898 151.406L42.6384 119.788L39.3122 117.862Z" fill="#231F20"/>
<path fill-rule="evenodd" clip-rule="evenodd" d="M44.4079 161.836H46.8848C47.0747 161.833 47.2278 161.679 47.2316 161.488C47.2284 160.285 47.0544 159.089 46.7149 157.936C46.2877 156.951 45.6722 156.06 44.9032 155.314C45.1025 155.317 45.3268 155.321 45.5672 155.325C46.881 155.347 48.6755 155.378 49.4891 155.378C50.3242 155.378 51.4565 156.87 51.966 157.808C52.0294 157.921 52.1481 157.991 52.2774 157.993H54.9454C55.0747 157.991 55.1934 157.921 55.2568 157.808C55.32 157.698 55.32 157.562 55.2568 157.453C54.9666 156.955 52.3269 152.593 50.4303 152.237C48.9017 151.946 45.3066 151.321 44.2734 151.143L43.0208 119.809C43.0165 119.687 42.9494 119.577 42.8439 119.518L39.4894 117.578C39.3832 117.521 39.2559 117.521 39.1497 117.578C39.0442 117.638 38.9754 117.747 38.9657 117.869L36.8851 151.491C35.4414 151.555 29.702 151.889 28.0389 153.054C26.1565 154.376 24.6986 160.01 24.642 160.245C24.6164 160.351 24.6398 160.463 24.7057 160.55C24.7716 160.637 24.873 160.689 24.9817 160.693H27.2392C27.3957 160.69 27.5329 160.587 27.5789 160.437C28.0602 158.866 29.1712 156.238 30.0912 155.896C31.2023 155.449 37.1611 155.236 39.4611 155.186C39.9282 155.385 43.1765 156.813 43.7072 159.037C43.9496 159.792 44.0714 160.581 44.0682 161.375C44.0348 161.483 44.0531 161.601 44.1177 161.694C44.1888 161.782 44.295 161.834 44.4079 161.836ZM46.5097 161.126H44.7759C44.7134 160.356 44.5759 159.595 44.3654 158.852C43.7002 156.095 39.7654 154.546 39.5956 154.483H39.4611C39.1285 154.483 31.1316 154.703 29.7869 155.193C28.4423 155.683 27.2817 158.945 26.9562 159.946H25.4417C25.9442 158.142 27.1756 154.497 28.4494 153.601C29.8506 152.642 35.2645 152.251 37.2319 152.18C37.4138 152.173 37.5608 152.029 37.5716 151.846L39.6309 118.452L42.3202 120.008L43.5586 151.427C43.5632 151.598 43.688 151.741 43.8559 151.768C43.9125 151.775 48.5054 152.571 50.2817 152.905C51.4706 153.125 53.3531 155.754 54.3014 157.254H52.4756C52.0934 156.593 50.8337 154.639 49.482 154.639C48.3338 154.639 45.2299 154.577 44.2953 154.559C44.1296 154.556 44.0321 154.554 44.0257 154.554C43.8783 154.557 43.7461 154.646 43.686 154.781C43.6354 154.918 43.6717 155.072 43.778 155.172C43.7789 155.173 43.7826 155.176 43.7889 155.182C43.9404 155.323 45.6011 156.866 46.0426 158.142C46.3292 159.111 46.4863 160.115 46.5097 161.126Z" fill="#231F20"/>
<path d="M80.231 96.2192C80.231 96.2192 108.496 97.7327 110.28 101.776C112.063 105.818 98.9566 150.276 98.9566 150.276C98.9566 150.276 112.792 155.079 110.527 156.088C108.263 157.097 85.6166 155.079 85.6166 155.079L96.3523 113.869L68.3843 111.979L80.231 96.2192Z" fill="white"/>
<path fill-rule="evenodd" clip-rule="evenodd" d="M85.6094 155.435C87.4281 155.598 100.329 156.728 106.968 156.728C108.224 156.806 109.485 156.7 110.711 156.415C110.988 156.328 111.175 156.068 111.171 155.776C111.115 154.319 103.188 151.371 99.4306 150.056C100.719 145.686 112.374 105.606 110.626 101.634C110.329 100.959 109.43 98.9196 94.6466 97.129C87.4281 96.248 80.337 95.8643 80.2663 95.8643C80.148 95.8491 80.0319 95.9047 79.969 96.0064L68.1152 111.794C68.0341 111.897 68.0177 112.037 68.0727 112.157C68.1312 112.271 68.2428 112.348 68.37 112.363L95.9134 114.224L85.298 154.987C85.2704 155.089 85.2885 155.198 85.3475 155.286C85.409 155.371 85.5046 155.426 85.6094 155.435ZM110.407 155.762C108.659 156.543 92.6509 155.342 86.0835 154.76L96.713 113.997C96.7335 113.894 96.7132 113.787 96.6564 113.698C96.592 113.614 96.4936 113.562 96.3875 113.556L69.0706 111.702L80.3937 96.589C88.334 97.0224 108.532 98.7064 109.947 101.925C111.362 105.144 102.247 137.856 98.6238 150.184C98.5672 150.366 98.6641 150.561 98.8432 150.625C104.123 152.451 109.94 154.902 110.407 155.762Z" fill="#231F20"/>
<path d="M70.6416 70.9532C70.6416 70.9532 85.1634 89.1427 91.3699 88.6382C97.5764 88.1338 115.354 65.7095 115.354 65.7095C118.567 61.8585 122.162 56.9701 119.862 51.6624C119.635 51.1509 119.239 50.6038 118.687 50.6464C118.455 50.6822 118.234 50.7722 118.043 50.9093L116.061 52.1314C116.125 51.5843 115.431 51.1935 114.901 51.3427C114.384 51.5455 113.954 51.9223 113.683 52.4085C111.624 55.3501 110.294 58.1495 110.407 61.7732L89.629 72.4311L81.3844 63.2724" fill="white"/>
<path d="M91.1224 89.0006C84.6754 89.0006 70.9532 71.948 70.3658 71.1735C70.2641 71.0198 70.2965 70.8135 70.4403 70.6987C70.5842 70.5839 70.7917 70.5988 70.9178 70.733C71.0594 70.9106 85.0151 88.2972 91.1012 88.2972H91.3418C97.3289 87.814 114.887 65.7238 115.057 65.4964C118.376 61.5316 121.723 56.8848 119.522 51.8188C119.437 51.6198 119.14 50.9874 118.701 51.0159C118.524 51.0482 118.357 51.1212 118.213 51.229L116.217 52.444C116.102 52.5155 115.957 52.5148 115.842 52.4422C115.728 52.3697 115.665 52.238 115.679 52.103C115.688 51.9984 115.64 51.8974 115.552 51.8401C115.389 51.709 115.177 51.657 114.972 51.698C114.536 51.8846 114.175 52.2122 113.946 52.6288C112.205 55.1156 110.612 57.9435 110.733 61.7803C110.737 61.9171 110.663 62.0443 110.542 62.1072L89.7637 72.7651C89.6209 72.8388 89.4465 72.8067 89.3391 72.6869L81.1015 63.514C81.0345 63.4473 80.9968 63.3565 80.9968 63.2618C80.9968 63.1671 81.0345 63.0763 81.1015 63.0095C81.2415 62.8733 81.464 62.8733 81.604 63.0095L89.6575 71.948L110.004 61.5388C109.94 57.6095 111.568 54.7177 113.344 52.1811C113.663 51.6264 114.163 51.1996 114.759 50.9732C115.195 50.8681 115.654 50.9762 115.998 51.2645C116.093 51.3479 116.174 51.4463 116.238 51.5559L117.824 50.5824C118.063 50.4141 118.34 50.3068 118.63 50.2698C119.246 50.2201 119.791 50.6748 120.145 51.499C122.707 57.3964 118.078 62.9385 115.587 65.9156C114.88 66.8251 97.6686 88.4606 91.3772 88.9722L91.1224 89.0006Z" fill="#231F20"/>
<path d="M23.1063 67.848C23.1063 67.848 15.626 84.8651 18.4002 86.684C21.1743 88.503 38.0599 86.684 38.0599 86.684L36.595 64.6577" fill="white"/>
<path d="M24.8186 87.807C21.7967 87.807 19.157 87.5938 18.1946 86.9544C17.7133 86.6417 16.2413 85.6825 19.3764 76.467C20.8838 72.0262 22.7592 67.7488 22.7804 67.7062C22.8211 67.5763 22.9323 67.4811 23.0665 67.4613C23.2007 67.4415 23.3344 67.5005 23.4107 67.6132C23.4869 67.7259 23.4922 67.8724 23.4244 67.9904C20.5937 74.4633 16.758 85.1709 18.5838 86.3575C20.7069 87.7786 32.7377 86.8407 37.6915 86.3575L36.2761 64.6794C36.2624 64.4831 36.4098 64.313 36.6052 64.2992C36.8006 64.2855 36.9701 64.4334 36.9838 64.6296L38.4487 86.6559C38.4611 86.8471 38.3202 87.0138 38.1303 87.0325C37.6349 87.0609 30.5013 87.807 24.8186 87.807Z" fill="#231F20"/>
<path d="M29.1992 96.6882C29.1992 96.6882 25.5404 104.845 29.4398 109.989C33.3392 115.133 87.4706 115.752 87.4706 115.752L91.3558 96.2193L68.7097 93.1214L67.3933 86.3643L29.1992 96.6882Z" fill="white"/>
<path fill-rule="evenodd" clip-rule="evenodd" d="M59.885 115.155C73.7841 115.944 87.3506 116.107 87.485 116.107C87.6554 116.107 87.8011 115.984 87.8318 115.816L91.6746 96.2623C91.6953 96.1683 91.6747 96.0699 91.6179 95.9923C91.5632 95.9098 91.4753 95.8554 91.3773 95.8431L69.0072 92.7878L67.7404 86.2723C67.7219 86.1782 67.6656 86.096 67.5847 86.0449C67.5016 85.9886 67.3976 85.9729 67.3016 86.0023L29.0863 96.3263C28.9819 96.3526 28.8956 96.4261 28.8527 96.5252C28.697 96.8663 25.1586 104.938 29.1358 110.182C30.8201 112.42 41.1666 114.089 59.885 115.155ZM29.7232 109.777C26.2838 105.243 28.9943 98.1168 29.4543 96.987L67.1672 86.8052L68.4056 93.1999C68.4343 93.3486 68.5536 93.4627 68.7029 93.4842L90.9527 96.5252L87.1949 115.404C68.4481 115.177 32.7096 113.713 29.7232 109.777Z" fill="#231F20"/>
<path d="M51.3784 27.9735C50.8261 27.6407 50.345 27.2012 49.9631 26.6803C49.433 25.9174 49.049 25.062 48.8308 24.158C46.9129 17.1948 46.8988 8.27772 53.0769 3.51009C56.7745 0.673225 61.6126 -0.187556 66.056 1.20088C69.0566 2.1814 71.6043 6.32377 72.9418 9.01667C74.0388 11.198 74.7818 13.5711 76.084 15.6317C77.3861 17.6922 79.4597 19.4969 81.8941 19.6177C79.9407 20.7151 77.595 20.8564 75.5249 20.0014C76.4978 21.3126 78.1441 21.932 79.7357 21.5859C78.3203 22.7156 76.2963 22.673 74.5129 22.2964C72.7295 21.9198 70.9744 21.3514 69.1415 21.5859C66.3108 21.9056 64.4708 23.9946 62.2557 25.508C59.4461 27.3554 54.5914 29.8422 51.3784 27.9735Z" fill="white"/>
<path fill-rule="evenodd" clip-rule="evenodd" d="M51.2155 28.2861C52.079 28.7726 53.0564 29.018 54.0463 28.9966C57.2592 28.9966 60.7977 26.8722 62.4466 25.7211C63.0198 25.3232 63.5718 24.8969 64.1097 24.4777C64.1796 24.4245 64.2493 24.3713 64.3189 24.3182C65.8205 23.173 67.2627 22.0731 69.1768 21.8559C70.5209 21.7815 71.8679 21.9352 73.1611 22.3106L73.1611 22.3106C73.5857 22.4101 74.0103 22.5095 74.4349 22.5877C76.8269 23.0495 78.6811 22.7795 79.9478 21.7777C80.0807 21.6746 80.1232 21.492 80.0495 21.3406C79.9758 21.1891 79.8062 21.1105 79.6435 21.1524C78.6932 21.3634 77.6985 21.1952 76.8694 20.6835C78.6369 21.016 80.4647 20.7169 82.0355 19.838C82.1763 19.7637 82.2468 19.6013 82.2054 19.4472C82.1702 19.2936 82.0367 19.1828 81.8798 19.1772C78.9854 19.0351 77.0605 16.463 76.3528 15.3616C75.5976 14.0845 74.9445 12.7493 74.3995 11.3685C74.0386 10.5087 73.6565 9.62059 73.2318 8.76796C71.9792 6.24559 69.3678 1.85454 66.1549 0.810063C61.5986 -0.623169 56.6326 0.259502 52.8432 3.17612C45.094 9.17296 47.5568 20.783 48.4909 24.1935C48.7184 25.1505 49.1216 26.0565 49.6798 26.8651C50.0881 27.4405 50.611 27.9245 51.2155 28.2861ZM53.2608 3.76585C55.711 1.88396 58.7106 0.86511 61.7955 0.866905C63.2051 0.860133 64.6069 1.07593 65.9497 1.50638C69.0352 2.50822 71.6466 7.15506 72.6232 9.10901C72.9821 9.77814 73.2768 10.4795 73.5663 11.1686C73.6365 11.3356 73.7063 11.502 73.7768 11.6669C74.3348 13.0837 75.007 14.4524 75.7866 15.7595C76.8645 17.6479 78.61 19.0605 80.6768 19.7172C79.0546 20.2975 77.2766 20.2595 75.6805 19.6106C75.5356 19.5455 75.3652 19.5898 75.27 19.7172C75.1756 19.8435 75.1756 20.0172 75.27 20.1435C75.977 21.0948 77.0254 21.732 78.1928 21.9198C77.0149 22.1953 75.7897 22.1953 74.6118 21.9198C74.2987 21.8612 73.9856 21.7906 73.6725 21.72C73.5681 21.6964 73.4636 21.6729 73.3592 21.6498C71.9812 21.2496 70.5448 21.0909 69.1131 21.1809C66.9121 21.4295 65.2703 22.7085 63.6851 23.9448C63.1614 24.3569 62.6165 24.7832 62.0645 25.1598C60.4651 26.2469 54.9805 29.6574 51.5694 27.668C51.0514 27.3624 50.601 26.9538 50.246 26.4672C49.7374 25.732 49.3702 24.9078 49.1632 24.0372C48.2503 20.7261 45.8654 9.4998 53.2608 3.76585Z" fill="#231F20"/>
<path d="M70.5571 22.9146C70.5571 22.9146 72.4891 28.9824 71.4771 29.8422C70.4651 30.7019 68.3633 29.3519 68.3633 29.3519" fill="white"/>
<path d="M70.6206 30.4887C69.755 30.4143 68.9211 30.1263 68.1932 29.6503C68.0795 29.5852 68.0109 29.4623 68.0148 29.331C68.0187 29.1996 68.0946 29.0812 68.212 29.0231C68.3294 28.9649 68.4691 28.9766 68.5753 29.0534C69.0707 29.3661 70.6206 30.1405 71.2646 29.5721C71.7529 29.1529 71.123 25.849 70.2172 23.0282C70.1615 22.8401 70.265 22.6416 70.4507 22.5805C70.6363 22.5199 70.8359 22.6216 70.8966 22.8079C71.3636 24.2858 72.8144 29.2026 71.7246 30.1121C71.4162 30.3714 71.0224 30.5057 70.6206 30.4887Z" fill="#231F20"/>
<path d="M71.7319 15.9585C73.3808 18.3175 71.7319 21.8559 71.0242 24.2646C70.0476 27.6561 68.9931 31.0217 67.8608 34.3611C67.1531 36.4927 61.5765 34.9509 60.7839 34.0343L59.2694 42.7809L47.543 38.7096L51.315 28.1014C51.315 28.1014 55.087 29.1956 58.4839 25.4227C61.8808 21.6498 64.2445 12.0293 64.2445 12.0293C64.2445 12.0293 70.1254 13.6493 71.7319 15.9585Z" fill="white"/>
<path fill-rule="evenodd" clip-rule="evenodd" d="M59.1487 43.1363H59.2619C59.3148 43.1324 59.3659 43.1153 59.4105 43.0865C59.5015 43.0369 59.5643 42.9476 59.5804 42.845L60.9958 34.6597C62.6949 35.5481 64.6188 35.9092 66.5229 35.6971C67.2422 35.634 67.8681 35.1777 68.1505 34.5105C69.2829 31.1781 70.3444 27.7747 71.321 24.3997C71.4413 23.9947 71.5829 23.5613 71.7315 23.1065L71.7455 23.064C72.5142 20.7275 73.4423 17.9068 71.9792 15.7881C70.3441 13.4479 64.7277 11.8495 64.3037 11.7288C64.2964 11.7267 64.2907 11.7251 64.2865 11.7239C64.2004 11.6884 64.1038 11.6884 64.0176 11.7239C63.9351 11.7712 63.876 11.8511 63.8549 11.9442C63.8549 12.0437 61.3921 21.6287 58.1933 25.1813C55.0503 28.672 51.6476 27.8273 51.389 27.7631C51.3844 27.762 51.3808 27.7611 51.3782 27.7605C51.2009 27.7086 51.0141 27.8055 50.9536 27.9808L47.2099 38.6244C47.1781 38.714 47.1781 38.8119 47.2099 38.9015C47.2508 38.9868 47.3252 39.0511 47.4152 39.0792L59.1487 43.1363ZM58.9859 42.3121L47.9884 38.4894L51.5056 28.4994C52.5318 28.6984 55.7447 28.9471 58.7099 25.6573C61.7955 22.2326 63.9893 14.2889 64.4635 12.4771C65.7515 12.8608 70.1392 14.3387 71.413 16.1576C72.6709 17.9537 71.8034 20.6089 71.1001 22.7618L71.0733 22.8437C71.0251 22.9959 70.9768 23.1451 70.9296 23.2913C70.8312 23.5956 70.737 23.8869 70.6558 24.1652C69.6862 27.5331 68.6176 30.9223 67.4924 34.2405C67.365 34.6242 66.997 34.88 66.3884 35.0008C64.5909 35.356 61.5265 34.3897 61.017 33.8C60.9277 33.6965 60.7871 33.6539 60.6556 33.6903C60.5241 33.7267 60.4252 33.8357 60.4013 33.9705L58.9859 42.3121Z" fill="#231F20"/>
<path d="M68.4905 31.8031C68.4905 31.8031 65.4121 32.6842 64.7822 29.5649L68.4905 31.8031Z" fill="white"/>
<path d="M67.549 32.272C66.9418 32.2876 66.342 32.1352 65.8152 31.8315C65.0519 31.337 64.5365 30.5376 64.3998 29.636C64.365 29.4417 64.4915 29.2553 64.6842 29.2166C64.877 29.1779 65.0652 29.3012 65.1075 29.4939C65.2025 30.1941 65.5881 30.8214 66.169 31.2205C66.8497 31.5645 67.6313 31.6503 68.3699 31.462C68.4964 31.4278 68.6314 31.4638 68.7242 31.5566C68.8169 31.6494 68.8533 31.7848 68.8197 31.9119C68.786 32.0389 68.6874 32.1383 68.561 32.1726C68.229 32.247 67.8891 32.2804 67.549 32.272Z" fill="#231F20"/>
<path d="M63.4588 23.2625C63.6025 22.3854 63.5021 21.4854 63.1686 20.662C62.9961 19.9971 62.7292 19.3605 62.376 18.772C62.0042 18.1845 61.393 17.7918 60.7059 17.6991C60.0885 17.688 59.4968 17.9474 59.0853 18.4096C58.6721 18.8548 58.3669 19.3897 58.1936 19.9728C57.3606 22.5326 57.9454 25.344 59.7293 27.3551L59.5948 27.0993" fill="white"/>
<path d="M59.729 27.7106C59.6301 27.7096 59.5357 27.6686 59.4672 27.5969C57.5949 25.4791 56.9808 22.5236 57.8536 19.8308C58.0433 19.1963 58.3777 18.6148 58.8302 18.1327C59.3234 17.6087 60.0163 17.3217 60.7339 17.344C61.5316 17.4347 62.2436 17.8878 62.6659 18.5732C63.0418 19.189 63.3256 19.8569 63.5081 20.5556C63.8628 21.4408 63.9657 22.4075 63.8053 23.3479C63.7535 23.5394 63.5579 23.6535 63.3666 23.6037C63.1796 23.5518 63.0692 23.3585 63.1189 23.1703C63.2374 22.3581 63.1372 21.5289 62.8287 20.7687C62.67 20.1373 62.4171 19.5337 62.0786 18.9782C61.7712 18.4702 61.2503 18.1302 60.6632 18.0545C60.1536 18.0447 59.6643 18.2541 59.3186 18.63C58.9421 19.0346 58.6636 19.5209 58.5047 20.0511C57.7609 22.3362 58.1929 24.8429 59.6582 26.7442C59.7577 26.7717 59.842 26.8383 59.8918 26.929L60.0192 27.1848C60.1039 27.343 60.0549 27.54 59.9059 27.6395C59.8551 27.68 59.7936 27.7047 59.729 27.7106Z" fill="#231F20"/>
<ellipse cx="70.2966" cy="19.9851" rx="1.25739" ry="0.5" transform="rotate(-77.39 70.2966 19.9851)" fill="#231F20"/>
<path d="M60.7767 34.0344C59.2391 33.0327 57.7665 31.9339 56.3678 30.7446C56.3678 30.7446 55.6601 36.8978 59.8567 38.3117L60.7767 34.0344Z" fill="#231F20"/>
<path fill-rule="evenodd" clip-rule="evenodd" d="M59.7434 38.6669C59.7808 38.6737 59.8192 38.6737 59.8566 38.6669C59.9181 38.6669 59.9787 38.6523 60.0335 38.6243C60.1202 38.5733 60.1817 38.4883 60.2034 38.3898L61.1234 34.1266C61.1503 33.9832 61.089 33.8376 60.9677 33.7572C59.4438 32.7598 57.9831 31.6682 56.5942 30.4887C56.4924 30.4069 56.3551 30.3853 56.2332 30.4319C56.1131 30.4822 56.0293 30.5935 56.0138 30.7232C55.9855 30.9861 55.3415 37.1819 59.7434 38.6669ZM59.6018 37.8285C56.8843 36.6206 56.6862 32.9898 56.6862 31.4693C57.8694 32.4427 59.1024 33.3534 60.3803 34.1977L59.6018 37.8285Z" fill="#231F20"/>
<path d="M27.0054 99.3815C27.0054 99.3815 27.6423 55.8973 34.1389 45.886C40.6355 35.8747 57.4928 33.6152 65.5321 39.5836C73.5715 45.552 69.7004 91.1678 69.7004 91.1678C69.7004 91.1678 44.0678 99.3815 27.0054 99.3815Z" fill="#E7816B"/>
<path d="M59.9201 37.0254C64.1964 38.7695 68.193 41.1373 71.781 44.0525C77.3435 48.6922 89.0841 68.6438 89.0841 68.6438L73.5998 78.0583L59.7007 60.8493L59.9201 37.0254Z" fill="#E7816B"/>
<path d="M40.8338 39.7324C40.8338 39.7324 32.7307 40.649 28.4421 49.5803C26.1209 54.4261 20.1763 70.0719 20.1763 70.0719L38.0526 72.1395L40.8338 39.7324Z" fill="#E7816B"/>
<path d="M72.4392 76.9715C72.3263 76.971 72.2207 76.9153 72.1562 76.8222L58.3491 57.9436C58.2928 57.8682 58.2686 57.7734 58.2819 57.6802C58.2951 57.5869 58.3448 57.5027 58.4199 57.4462C58.579 57.334 58.798 57.3686 58.9152 57.5243L72.7223 76.403C72.8027 76.5107 72.8157 76.6547 72.7557 76.7751C72.6958 76.8954 72.5733 76.9715 72.4392 76.9715Z" fill="#231F20"/>
<path d="M113.655 55.6341L117.109 44.8696L118.185 45.1823L116.012 55.7975C116.012 55.7975 114.483 57.2754 113.655 55.6341Z" fill="#231F20"/>
<path fill-rule="evenodd" clip-rule="evenodd" d="M114.476 56.7641H114.717C115.294 56.725 115.839 56.4865 116.26 56.0891C116.31 56.0414 116.345 55.9794 116.359 55.9115L118.532 45.2536C118.568 45.0724 118.461 44.8932 118.284 44.8415L117.208 44.5289C117.023 44.4811 116.833 44.5828 116.769 44.7633L113.337 55.542C113.302 55.6285 113.302 55.7255 113.337 55.812C113.537 56.2991 113.963 56.6556 114.476 56.7641ZM114.568 56.0465C114.324 55.9865 114.119 55.8197 114.009 55.5917L117.314 45.3104L117.746 45.4312L115.658 55.6131C115.365 55.8946 114.974 56.0501 114.568 56.0465Z" fill="#231F20"/>
<path d="M48.3497 31.2631C41.9805 29.842 34.9036 30.8368 29.7586 34.8157C27.5782 36.4135 25.9402 38.6461 25.0666 41.2104C24.2265 43.8257 24.7184 46.6885 26.3829 48.8699C31.266 54.7602 41.9876 54.7318 48.6186 52.8062C53.1408 51.4989 66.5303 45.1183 62.8432 38.8515C60.1894 34.3681 53.1266 32.2933 48.3497 31.2631Z" fill="#E7816B"/>
<path d="M40.2395 53.3391C36.0194 53.2162 31.8984 52.026 28.2583 49.8788C28.1769 49.8304 28.1187 49.7506 28.0973 49.658C28.076 49.5654 28.0932 49.4681 28.1451 49.3886C28.2508 49.224 28.4692 49.1763 28.6334 49.282C28.7183 49.3388 37.4725 54.8028 45.7595 51.648C49.7368 50.1346 52.1288 47.4488 54.4146 44.8554C56.9411 42.0133 59.326 39.3275 63.4448 38.9509C63.5387 38.9431 63.6318 38.9732 63.7036 39.0345C63.7753 39.0959 63.8197 39.1834 63.8269 39.2778C63.8368 39.3713 63.8085 39.4649 63.7485 39.5372C63.6885 39.6095 63.6019 39.6543 63.5085 39.6615C59.6728 40.0096 57.4789 42.5036 54.9454 45.3457C52.6949 47.8822 50.1472 50.7528 46.0072 52.3301C44.1612 53.0137 42.207 53.3555 40.2395 53.3391Z" fill="#231F20"/>
<path d="M27.6422 83.8422C27.5484 83.8385 27.4598 83.7974 27.3961 83.7281C27.3324 83.6588 27.2987 83.5669 27.3025 83.4727C27.8192 72.225 30.1333 56.0393 30.1333 55.8758C30.1659 55.6836 30.3442 55.5517 30.5367 55.5774C30.7271 55.6067 30.8593 55.7836 30.8339 55.9753C30.8339 56.1387 28.4915 72.3174 28.0032 83.5011C27.9955 83.6945 27.835 83.8462 27.6422 83.8422Z" fill="#231F20"/>
<path d="M81.9155 154.319H96.954C96.954 154.319 98.5888 150.66 102.113 150.156C102.113 150.156 115.828 155.975 113.811 157.169C111.794 158.362 80.854 158.234 80.854 158.234L81.9155 154.319Z" fill="#231F20"/>
<path fill-rule="evenodd" clip-rule="evenodd" d="M80.8466 158.596H84.01C92.2121 158.596 112.275 158.49 113.995 157.453C114.234 157.325 114.38 157.071 114.37 156.799C114.278 155.037 105.078 151.001 102.247 149.807C102.187 149.79 102.123 149.79 102.063 149.807C98.8574 150.269 97.1518 153.154 96.7343 153.971H81.9152C81.7533 153.969 81.6105 154.077 81.5684 154.234L80.5069 158.149C80.4777 158.257 80.5013 158.373 80.5706 158.461C80.6367 158.547 80.7387 158.597 80.8466 158.596ZM113.634 156.863C112.233 157.694 93.7195 157.921 81.3137 157.886L82.1841 154.674H96.9537C97.0931 154.676 97.2206 154.595 97.2792 154.468C97.2934 154.433 98.8503 151.044 102.063 150.518C107.64 152.891 113.634 155.982 113.634 156.863Z" fill="#231F20"/>
<path d="M70.5498 119.368C80.1249 117.343 86.5437 112.846 82.7787 106.778C79.0138 100.71 51.9729 104.646 46.6864 100.149C41.4 95.6511 43.2895 71.7987 37.4864 67.7132C31.6833 63.6277 6.80796 59.4995 4.02673 64.6579C1.2455 69.8164 4.02673 107.353 12.1298 115.688C20.2329 124.022 61.2083 121.301 70.5498 119.368Z" fill="#231F20"/>
<path fill-rule="evenodd" clip-rule="evenodd" d="M40.862 121.749H42.4614C53.8482 121.749 65.7657 120.704 70.6417 119.624C77.7399 118.125 82.3965 115.489 83.8119 112.206C84.5762 110.43 84.3356 108.512 83.1042 106.522C80.974 103.097 72.0784 102.735 63.4799 102.387L63.4536 102.386C56.4769 102.102 49.2736 101.809 46.927 99.8077C44.4574 97.6977 43.5727 90.8707 42.7165 84.2635L42.7162 84.2614L42.7122 84.2305C41.7722 77.0069 40.801 69.5433 37.6845 67.3509C32.7307 63.8835 14.9464 60.544 7.25374 62.3772C5.41373 62.8461 4.23189 63.5495 3.71527 64.5087C0.707581 70.1148 3.83558 107.666 11.8467 115.965C16.3405 120.569 30.1051 121.656 40.862 121.749ZM7.39527 63.1019C9.11749 62.7446 10.8739 62.5802 12.6322 62.6116C21.1174 62.6116 33.4313 65.2903 37.2528 67.9974C40.126 70.0082 41.0814 77.3693 41.9943 84.4177C42.9073 91.4661 43.7707 98.1237 46.4457 100.412C48.9793 102.579 55.9996 102.863 63.4304 103.161L63.4546 103.162C71.8827 103.503 80.5513 103.854 82.4814 106.963C83.5854 108.746 83.8048 110.444 83.1396 112.007C81.8587 115.034 77.2445 117.592 70.4719 119.013C61.0808 120.967 20.3177 123.639 12.3845 115.461C4.58574 107.417 1.5922 69.9443 4.33804 64.8498C4.7485 64.0753 5.78173 63.4856 7.39527 63.1019Z" fill="#231F20"/>
<path d="M88.3199 99.7367H88.2633L65.4473 95.7294C65.2518 95.696 65.1203 95.5099 65.1536 95.3137C65.1868 95.1175 65.3721 94.9855 65.5676 95.0188L88.3836 99.0262C88.579 99.0439 88.7232 99.2172 88.7056 99.4134C88.688 99.6096 88.5153 99.7544 88.3199 99.7367Z" fill="#D1D3D4"/>
<path d="M154.1 146.369L153.392 146.29C153.392 146.084 155.621 125.515 148.53 116.377L149.089 115.944C152.147 119.88 153.923 126.204 154.355 134.737C154.551 138.615 154.465 142.503 154.1 146.369Z" fill="#231F20"/>
<path d="M151.658 148.99C151.647 148.751 151.671 148.512 151.729 148.28C153.421 137.515 150.554 132.499 147.851 130.183L148.311 129.643C151.142 132.073 154.171 137.302 152.43 148.393C152.387 148.663 152.359 148.841 152.359 148.912L151.658 148.99Z" fill="#231F20"/>
<path d="M147.986 125.614C147.413 125.277 146.766 125.087 146.103 125.06C144.914 124.889 143.707 125.22 142.77 125.976C142.536 126.204 142.331 126.587 142.543 126.836C142.669 126.951 142.827 127.026 142.996 127.049C143.938 127.319 144.674 128.058 144.942 129.003C144.454 128.641 144.037 128.179 143.527 127.817C143.056 127.42 142.45 127.221 141.836 127.262C141.171 127.42 140.585 127.814 140.187 128.371C139.73 128.862 139.35 129.42 139.062 130.026C138.76 130.635 138.671 131.328 138.807 131.994C139.453 131.808 140.13 131.762 140.795 131.859C141.268 131.902 141.718 132.088 142.083 132.392C142.194 132.478 142.273 132.598 142.31 132.733C142.334 133.019 142.143 133.278 141.864 133.337C141.594 133.401 141.313 133.401 141.043 133.337C140.466 133.219 139.882 133.136 139.295 133.089C139.075 133.06 138.852 133.075 138.637 133.131C138.119 133.422 137.836 134.006 137.929 134.595C137.919 134.836 138.008 135.07 138.177 135.242C138.467 135.469 138.885 135.305 139.224 135.163C139.817 134.915 140.451 134.78 141.093 134.765C141.165 134.759 141.238 134.771 141.305 134.801C141.377 134.852 141.425 134.931 141.436 135.019C141.447 135.107 141.42 135.196 141.362 135.263C141.242 135.397 141.084 135.489 140.909 135.526C140.423 135.68 139.926 135.797 139.422 135.874C139.132 135.917 138.793 135.98 138.651 136.243C138.596 136.359 138.57 136.485 138.573 136.613C138.545 137.577 138.822 138.525 139.366 139.32C139.454 139.464 139.569 139.59 139.706 139.689C139.9 139.793 140.115 139.851 140.335 139.86C142.02 140.035 143.721 139.791 145.289 139.149C145.371 139.121 145.442 139.069 145.494 139C145.586 138.837 145.431 138.645 145.31 138.503C144.787 137.856 144.907 136.925 145.056 136.108C145.068 135.95 145.132 135.799 145.24 135.682C145.445 135.543 145.723 135.586 145.877 135.782C146.02 135.976 146.101 136.208 146.11 136.449C146.215 137.29 146.147 138.144 145.912 138.958C146.727 138.767 147.521 138.496 148.283 138.148C148.899 137.908 149.48 137.585 150.01 137.188C150.542 136.785 150.915 136.207 151.064 135.554C151.096 135.433 151.083 135.305 151.029 135.192C150.974 135.114 150.901 135.051 150.816 135.007C150.078 134.528 149.497 133.841 149.146 133.032C149.075 132.861 149.04 132.627 149.196 132.542C149.262 132.52 149.334 132.52 149.401 132.542C150.293 132.691 150.746 133.693 151.482 134.225C151.54 134.274 151.611 134.304 151.687 134.311C151.778 134.311 151.866 134.272 151.927 134.204C152.223 133.928 152.424 133.565 152.501 133.167C152.714 132.385 152.67 131.555 152.373 130.801C152.064 130.045 151.428 129.472 150.646 129.245C150.285 129.161 149.91 129.144 149.542 129.195C149.415 129.195 148.736 129.437 148.644 129.351C148.552 129.266 148.913 128.754 148.998 128.584C149.458 127.532 148.842 126.182 147.986 125.614Z" fill="#231F20"/>
<path d="M158.679 119.184C157.551 119.174 156.491 119.724 155.848 120.654C155.419 121.397 155.245 122.261 155.353 123.113C155.463 123.955 155.667 124.782 155.961 125.578C156.517 124.577 157.528 123.915 158.665 123.809C159.818 123.71 158.474 124.825 158.275 125.06C157.624 125.827 157.002 126.616 156.386 127.412C156.206 127.611 156.085 127.857 156.039 128.122C156.037 128.408 156.121 128.688 156.28 128.925C156.759 129.99 157.487 130.924 158.403 131.646C158.656 131.869 159.013 131.927 159.323 131.795C159.466 131.675 159.574 131.518 159.634 131.341C159.973 130.626 160.414 129.966 160.943 129.38C161.071 129.23 161.276 129.081 161.439 129.188C161.602 129.294 161.573 129.458 161.559 129.614L161.411 131.199C161.312 131.769 161.346 132.356 161.51 132.911C161.885 133.92 163.017 134.424 164.071 134.623C164.359 134.702 164.662 134.702 164.949 134.623C165.515 134.424 165.749 133.749 165.848 133.153C165.959 132.371 166.28 131.634 166.775 131.021C166.904 132.053 167.233 133.05 167.744 133.955C168.001 134.443 168.355 134.871 168.785 135.213C169.242 135.539 169.767 135.758 170.32 135.853C171.254 136.021 172.205 136.074 173.151 136.009C173.806 136.016 174.458 135.933 175.09 135.76C175.727 135.581 176.273 135.168 176.619 134.602C177.178 133.593 176.746 132.293 176.024 131.398C175.303 130.502 174.326 129.834 173.576 128.96C174.512 129.219 175.383 129.674 176.131 130.296C176.309 130.502 176.567 130.621 176.838 130.623C176.963 130.596 177.076 130.532 177.164 130.438C178.282 129.316 176.994 127.419 176.399 126.41C176.083 125.692 175.521 125.112 174.814 124.775C174.396 124.669 173.958 124.669 173.54 124.775C172.903 124.882 169.747 126.324 171.092 124.427C171.825 123.576 172.902 123.103 174.022 123.141C174.567 123.191 175.395 123.632 175.38 122.608C175.342 122.242 175.2 121.894 174.97 121.607C174.532 120.949 174.06 120.316 173.555 119.709C173.429 119.524 173.24 119.39 173.024 119.333C172.836 119.326 172.65 119.378 172.493 119.482C171.202 120.267 169.776 120.802 168.289 121.059C167.95 121.059 167.475 120.953 167.532 120.619C167.566 120.497 167.644 120.393 167.751 120.328C168.65 119.617 169.995 119.923 170.915 119.269C171.192 119.092 171.376 118.8 171.417 118.473C171.417 117.997 171.028 117.62 170.646 117.329C169.691 116.497 168.52 115.952 167.27 115.759C165.409 115.61 163.732 116.839 162.479 118.239C162.062 118.715 161.771 119.951 161.127 119.873C160.721 119.729 160.324 119.56 159.939 119.368C159.531 119.241 159.106 119.178 158.679 119.184Z" fill="#231F20"/>
<path d="M149.663 109.35C149.583 108.631 149.255 107.962 148.736 107.46C147.787 106.593 146.365 106.551 145.098 106.749C144.148 106.953 143.216 107.231 142.31 107.581C141.397 107.844 141.128 108.05 141.942 108.796C142.515 109.314 144.065 111.169 143.357 112.057C142.649 112.945 141.461 110.679 141.001 110.302C140.4 109.714 139.603 109.372 138.764 109.343C138.03 109.469 137.356 109.827 136.839 110.366C136.288 110.856 135.763 111.375 135.268 111.922C135.188 112 135.125 112.095 135.084 112.199C134.971 112.611 135.53 112.853 135.948 112.91C137.144 113.13 138.481 113.755 138.722 114.949C137.49 115.254 136.33 114.004 135.07 114.139C134.141 114.363 133.385 115.037 133.053 115.937C132.713 116.736 132.608 117.616 132.749 118.473C133.812 118.103 134.951 118.005 136.061 118.189C136.199 118.197 136.33 118.255 136.429 118.352C136.534 118.551 136.462 118.797 136.266 118.907C136.074 119.003 135.857 119.04 135.643 119.013H133.591C133.39 118.992 133.188 119.039 133.018 119.148C132.879 119.292 132.799 119.481 132.791 119.681C132.659 120.623 132.647 121.578 132.756 122.523C132.773 123.11 133.001 123.671 133.4 124.101C133.72 124.343 134.094 124.504 134.49 124.569C135.526 124.819 136.587 124.953 137.653 124.967C137.179 124.301 137.06 123.444 137.335 122.672C137.759 121.678 138.481 122.253 138.517 123.156C138.517 123.582 138.439 124.001 138.425 124.427C138.417 124.508 138.432 124.589 138.467 124.662C138.51 124.717 138.566 124.761 138.63 124.79C139.193 125.095 139.848 125.181 140.47 125.031C140.647 124.996 140.814 124.921 140.958 124.811C141.287 124.417 141.399 123.884 141.255 123.39L140.965 120.825C140.933 120.704 140.959 120.575 141.036 120.477C141.163 120.349 141.39 120.477 141.524 120.576C142.052 121.048 142.334 121.737 142.289 122.445C142.289 122.85 142.119 123.241 142.09 123.639C142.032 124.047 142.193 124.455 142.515 124.712C142.856 124.876 143.249 124.896 143.605 124.768C144.078 124.699 144.515 124.471 144.843 124.122C145.125 123.674 145.21 123.128 145.077 122.616C144.936 122.111 144.836 121.595 144.78 121.074C144.78 120.022 145.855 118.516 146.032 120.363C146.039 120.966 146.004 121.57 145.926 122.168C145.909 122.245 145.909 122.325 145.926 122.402C146.021 122.529 146.172 122.601 146.329 122.594C147.162 122.667 147.998 122.505 148.743 122.125C149.256 121.875 149.706 121.51 150.059 121.059C150.321 120.689 150.541 120.291 150.717 119.873C151.573 118.047 152.939 116.619 151.347 114.665C150.802 113.997 149.79 113.819 149.281 113.137C148.679 112.327 149.606 111.041 149.641 110.025C149.666 109.801 149.673 109.575 149.663 109.35Z" fill="#231F20"/>
<path d="M144.561 144.237H162.607L161.191 157.836C160.981 159.905 159.243 161.478 157.172 161.474H149.96C147.891 161.474 146.158 159.903 145.948 157.836L144.561 144.237Z" fill="white"/>
<path fill-rule="evenodd" clip-rule="evenodd" d="M149.96 161.851H157.2C159.439 161.829 161.303 160.117 161.524 157.879L162.939 144.279C162.952 144.178 162.918 144.076 162.847 144.002C162.78 143.924 162.681 143.88 162.578 143.881H144.532C144.427 143.88 144.327 143.924 144.256 144.002C144.19 144.079 144.157 144.178 144.164 144.279L145.579 157.879C145.805 160.137 147.7 161.855 149.96 161.851ZM146.308 157.808L144.964 144.613H162.203L160.851 157.808C160.662 159.69 159.083 161.121 157.2 161.119H149.96C148.076 161.121 146.497 159.69 146.308 157.808Z" fill="#231F20"/>
<path d="M156.089 144.486C156.089 144.358 154.673 131.341 161.042 120.854L161.651 121.223C155.416 131.497 156.803 144.272 156.818 144.4L156.089 144.486Z" fill="#231F20"/>
<path d="M139.698 119.795C139.609 119.793 139.523 119.758 139.458 119.695C139.391 119.629 139.353 119.538 139.353 119.443C139.353 119.349 139.391 119.258 139.458 119.191C143.152 115.283 148.969 112.903 149.217 112.796C149.399 112.724 149.604 112.813 149.677 112.995C149.749 113.178 149.66 113.384 149.479 113.457C149.422 113.457 143.555 115.873 139.967 119.674C139.899 119.752 139.801 119.796 139.698 119.795Z" fill="white"/>
<path d="M142.189 137.899C142.066 137.898 141.953 137.833 141.889 137.727C141.826 137.621 141.821 137.49 141.878 137.38C143.22 134.849 144.922 132.527 146.931 130.488C146.996 130.421 147.085 130.384 147.179 130.384C147.272 130.384 147.361 130.421 147.426 130.488C147.561 130.626 147.561 130.848 147.426 130.986C145.476 132.975 143.822 135.237 142.515 137.7C142.453 137.823 142.327 137.9 142.189 137.899Z" fill="white"/>
<path d="M172.281 132.869C172.162 132.868 172.052 132.809 171.983 132.712C171.814 132.449 167.737 126.318 162.904 122.694C162.747 122.576 162.716 122.353 162.833 122.197C162.952 122.043 163.171 122.012 163.328 122.125C168.155 125.785 172.132 131.661 172.571 132.314C172.677 132.477 172.633 132.696 172.472 132.805C172.416 132.846 172.35 132.868 172.281 132.869Z" fill="white"/>
<rect x="127.441" y="9.4502" width="42.964" height="30.2826" fill="white"/>
<path fill-rule="evenodd" clip-rule="evenodd" d="M127.441 40.0879H170.398C170.594 40.0879 170.752 39.9288 170.752 39.7326V9.44999C170.752 9.25378 170.594 9.09473 170.398 9.09473H127.441C127.246 9.09473 127.087 9.25378 127.087 9.44999V39.7326C127.087 39.9288 127.246 40.0879 127.441 40.0879ZM170.044 39.3774H127.795V9.80525H170.044V39.3774Z" fill="#D1D3D4"/>
<path d="M155.169 68.4803C154.994 68.4796 154.845 68.3541 154.815 68.1819L153.074 56.8419L150.031 58.1919C149.944 58.2299 149.847 58.2318 149.759 58.1971C149.671 58.1624 149.601 58.0941 149.564 58.0072C149.526 57.9215 149.524 57.8243 149.559 57.7374C149.594 57.6505 149.662 57.5813 149.748 57.5453L153.222 56.039C153.32 55.9896 153.436 55.9896 153.534 56.039C153.631 56.0916 153.699 56.1858 153.718 56.2948L155.529 68.054C155.546 68.1476 155.523 68.2438 155.467 68.3203C155.411 68.3967 155.326 68.4469 155.232 68.459L155.169 68.4803Z" fill="#231F20"/>
<path d="M161.17 80.6516H152.309L151.828 61.5029H161.651L161.17 80.6516Z" fill="white"/>
<path fill-rule="evenodd" clip-rule="evenodd" d="M152.31 81.0001H161.17C161.335 80.9889 161.47 80.8651 161.496 80.7016L161.977 61.5174C161.973 61.3202 161.819 61.1591 161.623 61.1479H151.8C151.704 61.1508 151.612 61.1917 151.545 61.2616C151.48 61.3306 151.445 61.4224 151.446 61.5174L151.956 80.659C151.964 80.8496 152.12 81.0002 152.31 81.0001ZM160.845 80.2895H152.678L152.189 61.8514H161.305L160.845 80.2895Z" fill="#231F20"/>
<rect x="150.93" y="59.5635" width="11.6203" height="1.93974" fill="white"/>
<path fill-rule="evenodd" clip-rule="evenodd" d="M150.93 61.8583H162.55C162.745 61.8583 162.904 61.6992 162.904 61.503V59.5633C162.904 59.3671 162.745 59.208 162.55 59.208H150.93C150.734 59.208 150.576 59.3671 150.576 59.5633V61.503C150.576 61.6992 150.734 61.8583 150.93 61.8583ZM162.196 61.1477H151.283V59.9185H162.196V61.1477Z" fill="#231F20"/>
<path fill-rule="evenodd" clip-rule="evenodd" d="M152.76 71.8209C153.533 73.3963 155.188 74.3351 156.931 74.1859C159.175 74.0822 160.912 72.1758 160.816 69.9227C160.81 68.1668 159.732 66.5944 158.1 65.9615C156.469 65.3286 154.618 65.7648 153.437 67.0603C152.257 68.3557 151.988 70.2455 152.76 71.8209ZM153.416 68.3288C154.079 67.0201 155.476 66.2559 156.931 66.4056C158.784 66.5088 160.205 68.0974 160.108 69.9582C160.101 71.4265 159.194 72.7388 157.827 73.2605C156.46 73.7822 154.914 73.4058 153.937 72.3134C152.96 71.2209 152.753 69.6375 153.416 68.3288Z" fill="#D1D3D4"/>
<path fill-rule="evenodd" clip-rule="evenodd" d="M137.504 33.2954C138.324 33.5816 139.185 33.7304 140.052 33.7359C142.027 33.6425 143.93 32.9652 145.523 31.7891C147.263 30.6593 148.028 29.5438 147.858 28.3785C147.685 27.6786 147.328 27.038 146.825 26.5241C146.391 26.1069 146.084 25.5747 145.94 24.9893C145.964 24.3257 146.18 23.6836 146.563 23.142C147.662 21.3462 147.771 19.1115 146.853 17.2162C145.82 15.2196 143.654 13.8909 140.908 13.5783C138.93 13.3819 136.977 14.1446 135.65 15.6317C134.44 17.0597 133.944 18.9645 134.306 20.8043C134.362 21.0885 134.433 21.3799 134.511 21.6783L134.519 21.7107C134.799 22.871 135.063 23.9661 134.362 24.7193C134.027 25.0176 133.644 25.2577 133.23 25.4299C132.607 25.6641 132.065 26.0766 131.673 26.6164C131.426 27.0717 131.341 27.5982 131.432 28.1085C131.687 29.5138 132.509 30.7507 133.704 31.5262L133.704 31.5262C133.938 31.6825 134.171 31.8388 134.412 31.9738C135.397 32.5147 136.433 32.9573 137.504 33.2954ZM137.731 32.6204C136.703 32.2957 135.71 31.8697 134.766 31.3485V31.3841C134.546 31.2551 134.334 31.1152 134.129 30.9649C133.097 30.301 132.379 29.2441 132.14 28.0375C132.072 27.6848 132.124 27.3191 132.289 27.0001C132.615 26.5825 133.051 26.265 133.548 26.0835C134.042 25.8712 134.495 25.5729 134.886 25.2025C135.855 24.1657 135.509 22.7528 135.205 21.51L135.204 21.5078C135.134 21.2235 135.063 20.9393 135.006 20.6693C134.688 19.0452 135.123 17.3639 136.188 16.1006C137.359 14.7825 139.087 14.1064 140.838 14.2817C143.343 14.573 145.31 15.7596 146.23 17.543C147.04 19.2487 146.923 21.2523 145.919 22.8506C145.472 23.5022 145.237 24.2766 145.247 25.0675C145.401 25.7924 145.763 26.4565 146.287 26.9788C146.704 27.3964 147.006 27.9154 147.164 28.4851C147.271 29.3449 146.634 30.2259 145.147 31.1993C143.06 32.528 140.717 33.6435 137.731 32.6204Z" fill="#D1D3D4"/>
<path fill-rule="evenodd" clip-rule="evenodd" d="M154.036 32.4282C155.712 33.1311 157.507 33.505 159.323 33.5295C160.379 33.5508 161.433 33.4045 162.444 33.0961C164.586 32.4173 166.257 30.7211 166.909 28.5629C167.366 26.909 166.922 25.1359 165.742 23.8948C163.59 21.5216 158.12 20.5766 155.289 21.5216C154.68 21.7388 154.084 21.9926 153.506 22.2819C152.623 22.7644 151.666 23.0958 150.675 23.2624C149.382 23.315 148.092 23.1172 146.874 22.6798C145.176 22.1966 143.428 21.7063 141.786 22.4169C140.082 23.2587 139.121 25.1158 139.415 26.9998C139.655 28.5253 140.329 29.9488 141.354 31.0995C142.562 32.645 144.465 33.4736 146.414 33.3021C147.273 33.1523 148.103 32.872 148.877 32.4708C150.313 31.4935 152.177 31.4218 153.682 32.2861L154.036 32.4282ZM151.658 30.9716H151.489C150.481 31.0452 149.501 31.336 148.615 31.8242C147.908 32.1928 147.149 32.4538 146.365 32.5987C144.242 32.8687 142.671 31.4761 141.921 30.6306C140.975 29.5819 140.351 28.2818 140.123 26.8861C139.873 25.3204 140.652 23.7705 142.055 23.0421C143.459 22.4187 145.011 22.862 146.648 23.3295L146.662 23.3335C147.969 23.799 149.353 24.0065 150.738 23.9445C151.798 23.7573 152.819 23.3947 153.76 22.8716C154.314 22.5999 154.883 22.3626 155.466 22.1611C158.056 21.2871 163.229 22.2037 165.168 24.3353C166.184 25.4025 166.568 26.926 166.18 28.3498C165.586 30.2719 164.088 31.7779 162.175 32.3785C159.558 33.1005 156.772 32.8819 154.298 31.7603L153.958 31.6182C153.235 31.2695 152.457 31.0507 151.658 30.9716Z" fill="#D1D3D4"/>
<path fill-rule="evenodd" clip-rule="evenodd" d="M155.806 27.1492C156.432 27.877 157.362 28.2688 158.318 28.2079L158.764 28.2221C160.625 28.1799 162.427 27.5593 163.923 26.4458C166.768 24.1366 165.855 21.8558 165.055 20.7047C162.798 17.4505 155.876 15.1555 152.147 17.3582C150.782 18.191 149.831 19.5638 149.528 21.1382C149.281 22.3401 149.568 23.5907 150.314 24.5629C150.983 25.3485 151.953 25.8131 152.982 25.8418C153.554 25.8917 154.112 26.0433 154.631 26.2895C155.064 26.5132 155.461 26.8033 155.806 27.1492ZM152.508 17.9337C153.509 17.3937 154.634 17.1289 155.77 17.1663C159.068 17.1663 162.96 18.8929 164.475 21.0813C165.6 22.7368 165.282 24.3924 163.477 25.8632C162.087 26.8649 160.431 27.4266 158.721 27.476C157.819 27.6592 156.889 27.3352 156.294 26.6305C155.46 25.722 154.309 25.1722 153.081 25.0958C152.233 25.0865 151.43 24.7142 150.873 24.0726C150.25 23.2675 150.014 22.2269 150.229 21.2305C150.494 19.859 151.321 18.6625 152.508 17.9337Z" fill="#D1D3D4"/>
<path d="M50.317 25.6216C50.317 25.6216 52.6028 23.76 50.317 21.3584H46.6299C46.6299 21.3584 47.4225 24.4634 46.6299 25.6216H50.317Z" fill="#231F20"/>
<path fill-rule="evenodd" clip-rule="evenodd" d="M46.63 25.9768H50.317C50.3894 25.9714 50.4585 25.9441 50.5152 25.8987C51.1625 25.3376 51.5725 24.5499 51.6617 23.6961C51.6722 22.7156 51.2654 21.7772 50.5435 21.1168C50.4744 21.0513 50.3838 21.0134 50.2887 21.0103H46.6017C46.4917 21.0096 46.3875 21.0593 46.3186 21.1453C46.2556 21.2363 46.2326 21.3493 46.2549 21.4579C46.4672 22.275 46.8847 24.5842 46.3115 25.4155C46.2443 25.5294 46.2443 25.6711 46.3115 25.785C46.3754 25.902 46.4971 25.9753 46.63 25.9768ZM50.1755 25.2663H47.182C47.3964 24.0892 47.3529 22.8793 47.0546 21.7208H50.1401C50.6629 22.2235 50.9571 22.9196 50.954 23.6463C50.8947 24.2621 50.6186 24.8365 50.1755 25.2663Z" fill="#231F20"/>
<path d="M48.3143 24.2148C48.4229 23.3745 48.1258 22.5326 47.5146 21.9483C47.2442 21.5951 46.933 21.2755 46.5875 20.9962C45.9239 20.5629 45.1802 20.2681 44.4007 20.1293C42.681 19.7101 40.6712 20.243 38.9161 20.2785C37.0308 20.3144 35.1579 19.9664 33.4103 19.2554C32.8098 19.0518 32.2713 18.6971 31.8463 18.2251C31.4075 20.8043 31.4641 23.6464 32.9432 25.8135C34.1965 27.4494 35.929 28.6496 37.897 29.2454C40.5606 30.3242 43.5962 29.8818 45.8444 28.0872C46.8536 27.3221 47.6325 26.2918 48.0949 25.1101C48.1974 24.8197 48.2709 24.5198 48.3143 24.2148Z" fill="white"/>
<path fill-rule="evenodd" clip-rule="evenodd" d="M37.7485 29.5791C38.778 29.9584 39.8647 30.1579 40.9614 30.1688C42.8168 30.1557 44.6121 29.5064 46.0497 28.3286C47.1077 27.5203 47.9251 26.4367 48.4134 25.1951C48.5345 24.8832 48.6222 24.5593 48.6752 24.2288C48.8049 23.288 48.4818 22.3413 47.8048 21.678C47.5118 21.3091 47.1822 20.971 46.8211 20.6691C46.1173 20.2072 45.3277 19.893 44.4999 19.7454C43.2565 19.5285 41.9853 19.5285 40.742 19.7454C40.6604 19.7545 40.5794 19.7637 40.4989 19.7729C39.9513 19.8352 39.4292 19.8946 38.9232 19.8946C37.0806 19.9514 35.2451 19.6399 33.5235 18.978C32.983 18.7922 32.4968 18.4748 32.1082 18.0543C32.0243 17.9429 31.8822 17.8925 31.7472 17.9265C31.6126 17.9625 31.5107 18.0731 31.4854 18.2107C30.9263 21.4507 31.3085 24.0867 32.6319 26.0265C33.9249 27.7193 35.7146 28.9619 37.7485 29.5791ZM33.2192 25.6072C32.0799 23.9233 31.7119 21.7207 32.0799 18.9496C32.4365 19.2176 32.8237 19.4419 33.2334 19.6175C35.0332 20.3382 36.9575 20.6932 38.8949 20.662C39.4586 20.6488 40.0587 20.5869 40.6389 20.527C40.6852 20.5223 40.7314 20.5175 40.7774 20.5128C41.9483 20.3106 43.145 20.3106 44.3159 20.5128C45.0482 20.642 45.7479 20.9149 46.3752 21.3157C46.6963 21.5634 46.9904 21.8445 47.2528 22.1541C47.7897 22.6669 48.0523 23.4052 47.9605 24.1436C47.9097 24.4253 47.8314 24.7014 47.7269 24.9678C47.2919 26.0925 46.5575 27.0756 45.6039 27.8099C43.4456 29.5207 40.5405 29.9408 37.9891 28.9112C36.0926 28.3409 34.4235 27.1848 33.2192 25.6072Z" fill="#231F20"/>
<rect x="92" y="5.69141" width="30.0486" height="19.9232" fill="white"/>
<path fill-rule="evenodd" clip-rule="evenodd" d="M91.9998 25.977H122.048C122.242 25.9732 122.399 25.8164 122.402 25.6217V5.68436C122.399 5.48975 122.242 5.33288 122.048 5.3291H91.9998C91.8044 5.3291 91.646 5.48816 91.646 5.68436V25.6217C91.646 25.8179 91.8044 25.977 91.9998 25.977ZM121.723 25.2665H92.3254L92.3537 6.04673H121.723V25.2665Z" fill="#D1D3D4"/>
<rect x="92" y="25.6216" width="30.0486" height="3.94342" fill="white"/>
<path fill-rule="evenodd" clip-rule="evenodd" d="M91.9998 29.9201H122.048C122.244 29.9201 122.402 29.761 122.402 29.5648V25.6214C122.402 25.4252 122.244 25.2661 122.048 25.2661H91.9998C91.8044 25.2661 91.646 25.4252 91.646 25.6214V29.5648C91.646 29.761 91.8044 29.9201 91.9998 29.9201ZM121.723 29.2095H92.3254L92.3537 25.9766H121.723V29.2095Z" fill="#D1D3D4"/>
<path d="M95.4395 20.9819C95.3015 20.9873 95.1734 20.91 95.1134 20.785C95.0535 20.6601 95.0732 20.5113 95.1635 20.4064C95.5032 19.98 103.656 9.9403 111.256 10.5443C114.285 10.7858 116.352 12.3774 116.791 14.8074C117.197 16.9466 116.12 19.0929 114.165 20.0369C112.042 21.0245 110.075 21.0103 108.702 19.9943C107.487 19.0207 106.923 17.4427 107.244 15.9158C107.302 14.5907 108.192 13.4488 109.459 13.0737C110.763 12.7285 112.152 13.1232 113.082 14.104C113.512 14.5796 113.605 15.272 113.316 15.8448C112.778 16.8893 112.141 17.4364 111.419 17.4648C110.266 17.4648 109.416 16.1503 109.381 16.0935C109.332 16.0126 109.317 15.9152 109.339 15.8231C109.362 15.7311 109.42 15.6519 109.501 15.6032C109.581 15.554 109.677 15.5392 109.767 15.5619C109.858 15.5846 109.935 15.6431 109.983 15.724C110.167 16.0153 110.754 16.7898 111.398 16.7543C112.042 16.7187 112.403 16.0437 112.686 15.5179C112.846 15.1957 112.783 14.8067 112.53 14.5516C111.782 13.7873 110.683 13.4838 109.65 13.7558C108.66 14.0626 107.974 14.9683 107.944 16.0082C107.667 17.2742 108.121 18.5893 109.119 19.4116C110.273 20.2714 112.007 20.2643 113.868 19.4116C115.535 18.5935 116.438 16.7453 116.062 14.9211C115.687 12.8393 113.861 11.4679 111.171 11.2548C103.974 10.6579 95.7933 20.7474 95.7155 20.854C95.6467 20.9353 95.5458 20.9821 95.4395 20.9819Z" fill="#D1D3D4"/>
<path fill-rule="evenodd" clip-rule="evenodd" d="M95.5951 44.1451H107.173C107.368 44.1451 107.527 43.9861 107.527 43.7899V34.553C107.527 34.3568 107.368 34.1978 107.173 34.1978H95.5951C95.3996 34.1978 95.2412 34.3568 95.2412 34.553V43.7899C95.2412 43.9861 95.3996 44.1451 95.5951 44.1451ZM106.819 43.4346H95.9489V34.9083H106.819V43.4346Z" fill="#D1D3D4"/>
<path d="M101.384 36.2367C101.189 36.2367 101.03 36.0776 101.03 35.8814V33.6717C101.03 33.4755 101.189 33.3164 101.384 33.3164C101.58 33.3164 101.738 33.4755 101.738 33.6717V35.8672C101.742 35.9639 101.706 36.0579 101.639 36.1276C101.573 36.1974 101.48 36.2367 101.384 36.2367Z" fill="#D1D3D4"/>
</svg>
