<svg width="201" height="128" viewBox="0 0 201 128" fill="none" xmlns="http://www.w3.org/2000/svg">
<path d="M172.225 2.48528C171.23 2.43522 170.234 2.57006 169.288 2.88295C167.888 3.50431 166.525 6.77887 165.554 11.9175C164.704 16.3679 164.339 20.897 164.465 25.4259C164.492 26.2395 164.909 26.9908 165.585 27.4453C169.941 30.5521 184.721 26.7556 186.289 26.3393C187.036 24.9101 193.843 11.5323 190.489 7.9346C187.54 4.74703 177.645 2.48528 172.225 2.48528Z" fill="white"/>
<path fill-rule="evenodd" clip-rule="evenodd" d="M165.212 27.9362C166.569 28.9179 168.834 29.2721 171.391 29.2721C177.348 29.2721 184.909 27.3457 186.366 26.9744C186.482 26.945 186.559 26.9253 186.594 26.9171C186.68 26.893 186.752 26.8345 186.793 26.7556L186.798 26.7461C187.194 26.0004 194.828 11.6249 190.962 7.49345C187.079 3.34277 172.661 0.733063 169.033 2.28646C165.405 3.83986 163.457 18.4418 163.824 25.4507C163.863 26.4528 164.379 27.3761 165.212 27.9362ZM169.288 2.88297C170.234 2.57007 171.23 2.43523 172.225 2.4853C177.645 2.4853 187.54 4.74704 190.489 7.93462C193.844 11.5323 187.036 24.9102 186.289 26.3393C184.721 26.7556 169.941 30.5521 165.585 27.4453C164.909 26.9908 164.492 26.2396 164.465 25.4259C164.339 20.8971 164.705 16.3679 165.554 11.9175C166.525 6.77889 167.888 3.50432 169.288 2.88297Z" fill="#231F20"/>
<path d="M130.438 110.086C140.817 105.517 147.843 95.6228 148.728 84.331L138.429 73.2832L124.271 100.58" fill="white"/>
<path d="M130.439 110.409C130.287 110.404 130.159 110.293 130.132 110.144C130.105 109.994 130.186 109.846 130.327 109.788C140.513 105.242 147.432 95.5411 148.404 84.4426L138.51 73.8298L124.564 100.722C124.473 100.859 124.294 100.905 124.148 100.831C124.001 100.756 123.934 100.584 123.992 100.43L138.149 73.1338C138.196 73.0407 138.287 72.9777 138.391 72.9661C138.494 72.9493 138.599 72.9841 138.672 73.0593L148.97 84.1132C149.033 84.1804 149.064 84.2705 149.058 84.3618C148.106 95.7581 141.013 105.732 130.551 110.384C130.516 110.401 130.477 110.41 130.439 110.409Z" fill="#231F20"/>
<path d="M162.362 126.962L193.514 126.359L193.084 87.189L147.34 88.8356L140.974 126.962H162.362Z" fill="#231F20"/>
<path fill-rule="evenodd" clip-rule="evenodd" d="M140.974 127.273H162.362H162.368L193.52 126.652C193.602 126.65 193.681 126.616 193.738 126.556C193.795 126.497 193.827 126.417 193.825 126.335L193.395 87.1891C193.396 87.1037 193.36 87.0223 193.296 86.9654C193.234 86.9103 193.155 86.8794 193.072 86.8784L147.327 88.525C147.179 88.5295 147.056 88.6396 147.035 88.786L140.669 126.913C140.651 127.002 140.676 127.094 140.737 127.161C140.795 127.232 140.882 127.273 140.974 127.273ZM162.362 126.652H141.341L147.601 89.134L192.779 87.506L193.203 126.03L162.362 126.652Z" fill="#231F20"/>
<path d="M199.519 43.731C196.731 39.9469 190.06 37.9524 185.567 37.2378C181.242 36.5543 176.911 37.2378 172.568 36.865C168.59 36.6326 164.601 37.0225 160.744 38.0207C146.251 42.0223 132.778 62.9745 132.778 62.9745L147.552 63.7512C147.552 63.7512 145.405 79.1796 139.244 112.988C164.907 113.901 194.777 116.449 194.777 116.449C194.777 116.449 194.908 109.371 195.231 102.406C197.546 100.25 197.465 96.8137 197.889 94.8192C198.436 92.253 197.329 64.3726 197.329 64.3726L200.695 63.1299C200.695 63.1299 200.739 45.359 199.519 43.731Z" fill="#E7816B"/>
<path d="M165 43.3399L153.743 117.275L167.185 118.624L182.474 43.1846L165 43.3399Z" fill="#231F20"/>
<path fill-rule="evenodd" clip-rule="evenodd" d="M167.153 118.934H167.185C167.334 118.934 167.463 118.827 167.489 118.68L182.773 43.2466C182.791 43.1538 182.766 43.0577 182.705 42.9857C182.646 42.9123 182.556 42.8709 182.462 42.8738L164.994 43.0292C164.842 43.0302 164.713 43.1405 164.689 43.2901L153.432 117.232C153.416 117.315 153.437 117.401 153.488 117.468C153.542 117.534 153.621 117.576 153.706 117.586L167.153 118.934ZM166.954 118.288L154.116 117.002L165.287 43.6443L182.088 43.4952L166.954 118.288Z" fill="#231F20"/>
<path d="M166.998 34.069L165.063 43.3397C165.063 43.3397 167.122 49.4974 173.364 48.845C177.099 48.4232 180.445 46.344 182.474 43.1844L184.69 26.1467C184.69 26.1467 180.527 23.158 183.153 13.6201C177.923 15.0777 172.397 15.1034 167.154 13.6947C167.154 13.6947 162.99 23.8663 163.096 28.6073C163.202 33.3483 166.998 34.069 166.998 34.069Z" fill="white"/>
<path fill-rule="evenodd" clip-rule="evenodd" d="M164.761 43.4488C164.86 43.718 166.87 49.2177 172.462 49.2177C172.782 49.218 173.102 49.1993 173.42 49.1618C177.256 48.7446 180.693 46.6034 182.754 43.3459C182.777 43.31 182.792 43.2698 182.798 43.2278L185.013 26.1901C185.032 26.072 184.981 25.9536 184.882 25.8857C184.845 25.8608 180.931 22.9218 183.464 13.7008C183.496 13.5872 183.462 13.4651 183.377 13.3839C183.289 13.3037 183.165 13.2774 183.053 13.3156C177.882 14.7393 172.424 14.7629 167.241 13.3839C167.084 13.3442 166.921 13.4265 166.861 13.5765C166.687 13.9928 162.679 23.8662 162.779 28.6507C162.891 32.789 165.666 34.0068 166.624 34.3051L164.758 43.2713C164.742 43.3261 164.742 43.3842 164.758 43.4391C164.758 43.4403 164.759 43.4435 164.761 43.4488ZM173.333 48.528C167.726 49.1059 165.666 44.048 165.399 43.3148L167.309 34.1622C167.327 34.076 167.309 33.9862 167.259 33.9136C167.212 33.8436 167.137 33.7963 167.054 33.7831L167.048 33.782C166.837 33.7388 163.506 33.0556 163.413 28.6569C163.328 24.5207 166.573 16.1099 167.3 14.2245C167.317 14.181 167.332 14.1411 167.346 14.1047C172.383 15.3699 177.655 15.3699 182.692 14.1047C180.582 22.3998 183.601 25.6806 184.347 26.302L182.163 43.0787C180.17 46.1081 176.938 48.1028 173.333 48.528Z" fill="#231F20"/>
<path d="M181.186 25.3761C181.503 24.5731 182.073 23.8948 182.81 23.4437C183.513 23.0575 184.277 22.7948 185.069 22.667C185.495 22.5505 185.941 22.5293 186.376 22.6049C186.671 22.6975 186.948 22.8427 187.191 23.0336C187.796 23.4436 188.236 24.0529 188.436 24.7548C188.524 25.3388 188.471 25.9354 188.28 26.4946C188.124 27.1149 187.883 27.7108 187.565 28.2655C186.907 29.376 185.829 30.176 184.575 30.4856C183.32 30.7953 181.994 30.5886 180.894 29.9121" fill="white"/>
<path d="M183.439 30.9374C182.487 30.939 181.552 30.6789 180.738 30.1856C180.588 30.0921 180.541 29.8956 180.633 29.7444C180.676 29.6711 180.748 29.6185 180.831 29.5986C180.914 29.5788 181.002 29.5932 181.074 29.6388C182.106 30.2576 183.338 30.4494 184.509 30.1732C185.681 29.8812 186.688 29.137 187.31 28.104C187.613 27.5723 187.841 27.0015 187.988 26.4077C188.163 25.9011 188.215 25.3599 188.137 24.8295C187.953 24.2024 187.554 23.6595 187.011 23.2947C186.8 23.1251 186.56 22.9965 186.302 22.9157C185.916 22.8541 185.521 22.8753 185.144 22.9778C184.378 23.1005 183.637 23.3504 182.954 23.7172C182.276 24.1322 181.752 24.7559 181.46 25.4943C181.395 25.6659 181.203 25.7522 181.031 25.687C180.859 25.6217 180.773 25.4298 180.838 25.2582C181.184 24.3925 181.799 23.6607 182.593 23.1704C183.345 22.7651 184.162 22.4939 185.007 22.3689C185.48 22.2389 185.976 22.2198 186.457 22.313C186.795 22.4128 187.11 22.5774 187.384 22.7976C188.058 23.2471 188.547 23.9246 188.76 24.7052C188.857 25.3301 188.803 25.969 188.604 26.5693C188.44 27.2214 188.189 27.8485 187.857 28.4334C187.148 29.6125 186 30.4636 184.665 30.8007C184.263 30.8955 183.852 30.9414 183.439 30.9374Z" fill="#231F20"/>
<path d="M166.251 38.7046C168.474 39.2627 170.83 38.8321 172.711 37.5241C175.723 35.3182 175.692 33.7959 175.692 33.7959C175.692 33.7959 171.08 35.573 167.222 34.2495L166.251 38.7046Z" fill="#231F20"/>
<path fill-rule="evenodd" clip-rule="evenodd" d="M166.164 39.0025C166.837 39.1772 167.529 39.2629 168.224 39.2572C169.899 39.2672 171.533 38.7401 172.885 37.7536C175.996 35.4794 175.996 33.839 175.996 33.7706C175.997 33.6697 175.945 33.5758 175.859 33.5221C175.772 33.4757 175.667 33.4757 175.579 33.5221C175.536 33.5407 171.024 35.2122 167.322 33.9695C167.243 33.9325 167.152 33.9325 167.073 33.9695C166.995 34.0122 166.94 34.0874 166.923 34.1745L165.953 38.6421C165.916 38.7992 166.009 38.9572 166.164 39.0025ZM172.53 37.2751C170.808 38.4688 168.67 38.9025 166.618 38.4743L167.452 34.6468C170.539 35.5664 173.943 34.6903 175.25 34.2739C175.019 34.858 174.366 35.9268 172.53 37.2751Z" fill="#231F20"/>
<path d="M172.567 20.2002C172.567 20.2002 168.616 24.3571 169.226 25.3016C169.835 26.246 172.02 26.0969 172.02 26.0969" fill="white"/>
<path d="M171.559 26.3894C170.819 26.3894 169.481 26.2713 168.964 25.4697C168.292 24.4383 171.099 21.288 172.337 19.9894C172.396 19.9305 172.475 19.8975 172.558 19.8975C172.641 19.8975 172.721 19.9305 172.779 19.9894C172.837 20.0466 172.87 20.125 172.87 20.2068C172.87 20.2887 172.837 20.367 172.779 20.4243C170.763 22.5494 169.219 24.7738 169.475 25.1466C169.885 25.768 171.466 25.8115 171.964 25.768C172.134 25.7536 172.283 25.8783 172.3 26.0476C172.307 26.1301 172.28 26.2119 172.227 26.2748C172.173 26.3378 172.096 26.3768 172.014 26.3831C171.989 26.3769 171.802 26.3894 171.559 26.3894Z" fill="#231F20"/>
<ellipse cx="177.918" cy="20.9748" rx="1.11247" ry="0.790145" transform="rotate(-68.08 177.918 20.9748)" fill="#231F20"/>
<ellipse cx="169.72" cy="19.6355" rx="1.11247" ry="0.790145" transform="rotate(-68.08 169.72 19.6355)" fill="#231F20"/>
<path d="M172.014 31.6332C171.695 31.6327 171.377 31.593 171.068 31.5152C166.761 30.4775 166.861 25.4569 166.861 25.4072C166.871 25.2371 167.014 25.1053 167.185 25.109C167.267 25.1106 167.345 25.1451 167.401 25.2047C167.457 25.2643 167.487 25.344 167.483 25.4259C167.483 25.6123 167.402 29.9928 171.217 30.9125C175.032 31.8321 176.917 25.8111 176.936 25.749C176.961 25.6343 177.05 25.5439 177.164 25.5152C177.278 25.4866 177.398 25.5246 177.475 25.6134C177.552 25.7023 177.572 25.8269 177.527 25.9354C177.446 26.1839 175.698 31.6332 172.014 31.6332Z" fill="#231F20"/>
<path d="M35.9995 45.9805L59.2607 72.0092L91.8066 83.3739L87.6497 91.9611C87.6497 91.9611 66.5229 88.7735 58.2029 87.8414C49.8828 86.9094 39.3661 74.4325 39.3661 74.4325L35.9995 45.9805Z" fill="white"/>
<path fill-rule="evenodd" clip-rule="evenodd" d="M87.6063 92.2655H87.6499C87.7708 92.2661 87.8806 92.1955 87.9299 92.0853L92.0931 83.4732C92.1304 83.3924 92.1304 83.2993 92.0931 83.2185C92.06 83.1378 91.9945 83.0746 91.9126 83.0445L59.4415 71.7047L36.23 45.7381C36.139 45.6371 35.9928 45.6069 35.8691 45.6635C35.7493 45.722 35.6776 45.8478 35.6886 45.9804L39.0552 74.4697C39.0618 74.5303 39.088 74.587 39.1299 74.6313C39.5593 75.147 49.8208 87.2076 58.1658 88.1459C64.3472 88.842 77.7595 90.8206 84.1228 91.7593C86.2218 92.069 87.5539 92.2655 87.6063 92.2655ZM58.2342 87.5245C50.4556 86.6484 40.53 75.3024 39.665 74.2958L36.4229 46.9125L59.0432 72.1956C59.0784 72.2355 59.1234 72.2655 59.1739 72.2826L91.3899 83.5354L87.4819 91.613C85.1607 91.2527 66.0128 88.4006 58.2342 87.5245Z" fill="#231F20"/>
<path d="M47.2939 33.0748C46.9703 30.8938 46.0929 28.8371 45.427 26.7431C43.7469 21.6666 43.5042 16.4286 41.7431 11.3707C39.4842 4.86506 35.1468 0.130301 27.5611 0.397485C24.4377 0.399575 21.622 2.27714 20.4234 5.1571C16.8328 3.18117 12.0474 7.20137 11.8793 10.8798C11.6304 16.3043 11.9789 20.9334 9.61419 26.072C7.822 29.9742 5.04658 33.6278 4.81633 37.9152C4.58608 42.2025 7.01924 46.2103 10.5041 48.5777C13.9889 50.9451 18.3823 51.7342 22.5827 51.4235C26.7832 51.1128 30.8468 49.7707 34.7485 48.1676C36.6687 47.4259 38.5112 46.4977 40.2496 45.3963C44.2136 42.7493 48.0531 38.1202 47.2939 33.0748Z" fill="white"/>
<path fill-rule="evenodd" clip-rule="evenodd" d="M10.3298 48.8326C13.4626 50.847 17.1275 51.8793 20.8527 51.7965C21.4315 51.7965 22.0164 51.7779 22.5889 51.7468C27.2188 51.4051 31.5686 49.8144 34.8481 48.466C36.7936 47.7199 38.6594 46.7811 40.4176 45.6637C44.4065 42.9856 48.3891 38.2944 47.6175 33.0439C47.3159 31.3927 46.8575 29.774 46.2484 28.2097C46.0618 27.694 45.8813 27.172 45.707 26.6563C44.9573 24.212 44.369 21.7212 43.946 19.2C43.4959 16.5167 42.8533 13.8691 42.0231 11.2777C39.3908 3.71574 34.3751 -0.130477 27.5299 0.0932125C24.4127 0.099063 21.5829 1.91319 20.2802 4.74098C18.7062 4.08371 16.9096 4.23687 15.4699 5.15108C13.267 6.38137 11.6677 8.73011 11.5682 10.8676C11.5636 10.9661 11.5589 11.0648 11.5543 11.1636C11.5147 12.0052 11.4748 12.8525 11.4748 13.6699C11.3566 18.0194 11.2508 21.7476 9.33414 25.9418C8.84699 26.9997 8.27643 28.0577 7.72157 29.0865L7.68506 29.1542C6.20401 31.9006 4.67318 34.7402 4.50516 37.9029C4.28113 41.9977 6.59606 46.2788 10.3298 48.8326ZM15.7686 5.68545C16.5557 5.22066 17.4494 4.96602 18.3636 4.94603L18.3698 4.97088C19.037 4.96544 19.6946 5.13012 20.2802 5.44933C20.3591 5.48634 20.4503 5.48634 20.5292 5.44933C20.6087 5.42205 20.6738 5.36377 20.7096 5.28778C21.8571 2.52215 24.5568 0.716086 27.5548 0.708358C34.2258 0.472242 38.8681 4.09477 41.4568 11.4765C42.2713 14.041 42.8953 16.6619 43.3237 19.3181C43.7548 21.8603 44.3514 24.3718 45.1096 26.8365C45.2462 27.2505 45.3904 27.6606 45.5333 28.0669C45.5727 28.179 45.612 28.2908 45.651 28.4023C46.2469 29.9286 46.6969 31.5076 46.9952 33.1185C47.7295 38.0831 43.8962 42.5818 40.0691 45.1355C38.3494 46.2284 36.5255 47.1483 34.624 47.882C31.3881 49.2117 27.0694 50.7961 22.5516 51.113C18.0338 51.4299 13.8209 50.4544 10.6721 48.3231C7.08766 45.8874 4.90965 41.8113 5.115 37.934C5.28273 34.9194 6.77754 32.1402 8.21894 29.4602L8.22646 29.4462C8.79897 28.3899 9.39014 27.2963 9.8942 26.2027C11.8609 21.916 11.972 17.9381 12.0898 13.721L12.0909 13.6823C12.1158 12.7565 12.1407 11.8431 12.1842 10.8924C12.2713 8.96001 13.7462 6.81632 15.7686 5.68545Z" fill="#231F20"/>
<path d="M47.4124 49.883C47.151 48.8515 46.871 47.8325 46.5599 46.8197C45.7384 44.1043 44.7614 40.1649 42.8261 38.0088C39.6711 34.5167 32.5708 34.4049 28.2583 34.38C21.5811 34.3428 14.7546 35.9086 9.29707 39.7424C0.896145 45.6453 -0.659583 54.2138 0.304968 63.7703C1.41265 74.4577 2.79413 85.1202 4.29385 95.7641C4.4432 96.8577 6.24162 113.119 7.0506 113.125C7.10661 113.125 62.4345 113.168 60.6672 114.473C58.178 105.843 56.3112 97.0752 54.3074 88.3762C53.8842 86.5121 53.1313 84.822 52.6708 83.0076C52.0049 80.3855 52.3098 77.5086 52.0485 74.8243C51.5071 68.6107 50.1816 62.4965 48.8872 56.4072C48.433 54.22 47.96 52.0391 47.4124 49.883Z" fill="#E7816B"/>
<path d="M63.0939 127.168L56.7527 99.3804L5.53817 103.593L4.88477 127.168H63.0939Z" fill="#231F20"/>
<path fill-rule="evenodd" clip-rule="evenodd" d="M4.88491 127.478H63.094C63.1774 127.468 63.2535 127.426 63.3056 127.36C63.3632 127.286 63.3859 127.191 63.3678 127.099L57.0267 99.3121C56.9863 99.1647 56.8498 99.0643 56.6969 99.0697L5.4823 103.283C5.32394 103.298 5.20153 103.428 5.19605 103.587L4.57376 127.161C4.57296 127.244 4.60415 127.324 4.66088 127.385C4.72024 127.445 4.80081 127.478 4.88491 127.478ZM62.7144 126.857H5.22094L5.82456 103.879L56.4915 99.7159L62.7144 126.857Z" fill="#231F20"/>
<path d="M32.7136 57.7862C32.8842 57.8559 33.0649 57.8979 33.2488 57.9105C34.4125 57.9974 35.3273 56.9163 35.8064 55.8538C36.8768 53.4864 36.8768 50.7897 36.6901 48.2048C36.6544 46.6782 36.327 45.1723 35.7255 43.7683C35.1533 42.6789 34.3855 41.7037 33.4604 40.8914C31.7989 39.3567 29.7827 38.0705 27.5362 37.7846C25.2897 37.4988 22.004 38.7167 21.3133 41.1772C20.5914 43.8367 23.3917 46.5147 24.7483 48.472C26.7067 51.3009 28.8477 53.9992 31.1579 56.5497C31.5752 57.075 32.1074 57.498 32.7136 57.7862Z" fill="#231F20"/>
<path fill-rule="evenodd" clip-rule="evenodd" d="M33.2241 58.2213H33.3859C34.9478 58.2213 35.8439 56.5436 36.0866 55.9906C37.213 53.5114 37.1819 50.6842 37.0014 48.1987C36.9611 46.6313 36.6232 45.0858 36.0057 43.6442C35.4196 42.5196 34.6282 41.5144 33.6721 40.6803C31.6621 38.8162 29.6086 37.7475 27.5737 37.5114C24.9725 37.2007 21.7241 38.5863 21.0334 41.1339C20.4111 43.4081 22.166 45.6512 23.5723 47.4469C23.9208 47.8943 24.2444 48.3106 24.5058 48.6896C26.4763 51.5161 28.6255 54.2142 30.9403 56.7673C31.3876 57.3242 31.9557 57.7725 32.6018 58.0783C32.8022 58.1525 33.0114 58.2005 33.2241 58.2213ZM33.2739 57.5937C33.1199 57.5822 32.9687 57.5466 32.8258 57.4881C32.2676 57.2096 31.7819 56.8055 31.407 56.3075C29.1063 53.7707 26.9736 51.0869 25.0223 48.2733C24.7588 47.9225 24.4512 47.5277 24.1254 47.1095C24.105 47.0833 24.0845 47.057 24.064 47.0306C22.7385 45.3467 21.0956 43.2403 21.6308 41.2644C22.2282 39.0585 25.2028 37.8283 27.499 38.0954C29.4032 38.3191 31.3385 39.3319 33.249 41.1028C34.1487 41.8857 34.8938 42.8299 35.4457 43.8865C36.0267 45.2652 36.3434 46.7406 36.3791 48.236C36.5533 50.622 36.5845 53.3747 35.5203 55.7296C35.091 56.6741 34.2509 57.6807 33.2739 57.5937Z" fill="#231F20"/>
<rect x="59.5845" y="8.27051" width="87.4817" height="93.2536" fill="white"/>
<path fill-rule="evenodd" clip-rule="evenodd" d="M59.5846 101.828H147.06C147.232 101.828 147.371 101.689 147.371 101.518V8.27015C147.371 8.09857 147.232 7.95947 147.06 7.95947H59.5846C59.4127 7.95947 59.2734 8.09857 59.2734 8.27015V101.518C59.2734 101.689 59.4127 101.828 59.5846 101.828ZM146.749 101.207H59.8957V8.58083H146.749V101.207Z" fill="#231F20"/>
<rect x="65.2285" y="15.4409" width="76.1809" height="68.4551" fill="white"/>
<path fill-rule="evenodd" clip-rule="evenodd" d="M65.2286 84.2064H141.416C141.5 84.2065 141.582 84.172 141.64 84.111C141.699 84.0501 141.73 83.9678 141.727 83.8833V15.4406C141.727 15.269 141.588 15.1299 141.416 15.1299H65.2286C65.0568 15.1299 64.9175 15.269 64.9175 15.4406V83.8957C64.9175 84.0673 65.0568 84.2064 65.2286 84.2064ZM141.105 83.585H65.5398V15.7512H141.105V83.585Z" fill="#D1D3D4"/>
<path d="M132.89 39.3506C131.795 40.5561 130.75 41.8361 129.605 42.9607C126.611 46.0054 123.575 49.0066 120.557 52.0264C120.451 52.132 120.37 52.2749 120.245 52.3308C119.704 52.567 119.001 53.0889 118.64 52.9087C118.146 52.527 117.845 51.9474 117.819 51.3242C117.731 48.9941 117.787 46.664 117.787 44.1724C116.804 44.1724 115.877 44.1351 114.95 44.1724C111.446 44.3402 108.073 45.0361 105.024 46.8567C101.256 48.9438 98.873 52.8639 98.7578 57.165C98.7899 58.3236 98.9761 59.4729 99.3116 60.5825C99.4423 61.1666 99.7721 61.8252 99.0378 62.0551C98.4853 62.0573 97.9705 61.7756 97.675 61.3095C96.7279 59.4315 95.9692 57.4647 95.4098 55.4376C93.3127 45.9681 98.5213 37.2877 107.937 34.3114C110.65 33.445 113.482 33.0028 116.331 33.0004H117.781C117.781 31.1798 117.781 29.4462 117.781 27.7126C117.763 26.8808 117.819 26.0489 117.949 25.2271C118.136 24.2827 118.733 24.059 119.573 24.525C119.913 24.7377 120.223 24.9947 120.494 25.2893C124.29 29.0796 128.082 32.8761 131.87 36.6788C132.243 37.1144 132.582 37.5776 132.884 38.0644L132.89 39.3506Z" fill="#E7816B"/>
<path d="M85.5154 73.5068C83.3848 73.1016 81.446 72.0103 79.9957 70.4C78.6047 68.7959 77.8421 66.7433 77.8488 64.6214C77.8488 56.376 77.799 48.1367 77.8488 39.8913C77.8371 37.5466 78.7652 35.2946 80.4263 33.6372C82.0873 31.9798 84.3433 31.0547 86.6915 31.068C88.2286 31.0307 89.7594 31.0307 91.2965 31.068C92.5411 31.068 93.3252 31.8074 93.3127 32.8886C93.3003 33.9697 92.5349 34.5849 91.3214 34.5973C89.8217 34.5973 88.3282 34.5973 86.8284 34.5973C85.3848 34.5514 83.985 35.0969 82.9543 36.1074C81.9236 37.1178 81.3515 38.5051 81.371 39.9472C81.3461 48.232 81.3461 56.5168 81.371 64.8016C81.3709 66.2066 81.934 67.5532 82.9348 68.5408C83.9357 69.5284 85.2908 70.0749 86.6978 70.0583C94.8809 70.0583 108.988 70.0583 117.19 70.0583C118.653 70.1229 120.077 69.5761 121.12 68.5491C122.162 67.5222 122.73 66.1079 122.685 64.6463C122.728 62.0552 122.685 59.4641 122.685 56.873C122.685 55.6303 123.22 54.9717 124.234 54.835C125.081 54.7169 126.101 55.301 126.101 56.1461C126.101 59.607 126.356 63.1053 125.939 66.5165C125.479 70.2447 122.579 72.7301 118.839 73.4323C118.7 73.4722 118.565 73.5242 118.435 73.5876L85.5154 73.5068Z" fill="#E7816B"/>
<path d="M140.849 90.7991H76.3365C76.1647 90.7991 76.0254 90.66 76.0254 90.4884C76.0254 90.3168 76.1647 90.1777 76.3365 90.1777H140.849C141.021 90.1777 141.161 90.3168 141.161 90.4884C141.161 90.66 141.021 90.7991 140.849 90.7991Z" fill="#D1D3D4"/>
<path d="M124.813 95.6394H76.3365C76.1647 95.6394 76.0254 95.5003 76.0254 95.3287C76.0254 95.1572 76.1647 95.0181 76.3365 95.0181H124.813C124.985 95.0181 125.124 95.1572 125.124 95.3287C125.121 95.4989 124.983 95.6361 124.813 95.6394Z" fill="#D1D3D4"/>
<ellipse cx="68.8193" cy="91.7436" rx="3.5844" ry="3.57903" fill="white"/>
<path fill-rule="evenodd" clip-rule="evenodd" d="M65.21 93.2389C65.8159 94.6945 67.2406 95.6421 68.8192 95.6396C70.9717 95.6362 72.7148 93.8929 72.7148 91.7437C72.7148 90.1674 71.7635 88.7464 70.3047 88.1437C68.846 87.5411 67.1673 87.8755 66.0518 88.9911C64.9364 90.1066 64.6042 91.7833 65.21 93.2389ZM65.7844 90.4939C66.2936 89.2697 67.4917 88.4728 68.8192 88.4753C70.6256 88.4788 72.0891 89.94 72.0925 91.7437C72.095 93.0693 71.2969 94.2656 70.0709 94.774C68.8449 95.2824 67.4328 95.0027 66.4941 94.0654C65.5554 93.128 65.2752 91.7181 65.7844 90.4939Z" fill="#D1D3D4"/>
<path d="M39.2043 14.2169C39.2043 14.2169 42.3157 21.4557 41.4134 27.166C40.9687 30.419 38.6389 33.1012 35.4768 34.001L36.0991 43.9738C36.0991 43.9738 36.4787 49.0689 30.1686 48.6899C26.4539 48.4566 23.1226 46.326 21.357 43.0542L19.4839 24.78C19.4839 24.78 26.3291 20.2441 25.265 13.7012C25.265 13.7012 33.9584 17.2243 39.2043 14.2169Z" fill="white"/>
<path fill-rule="evenodd" clip-rule="evenodd" d="M30.1812 49.0313H30.8533C32.7077 49.0313 34.139 48.5342 35.1097 47.5711C36.0086 46.6006 36.4833 45.3127 36.429 43.992L35.8067 34.2678C38.9612 33.2471 41.2562 30.5189 41.7185 27.2402C42.6519 21.505 39.6089 14.4153 39.4782 14.1171C39.4445 14.0346 39.3762 13.971 39.2915 13.9431C39.2099 13.9089 39.118 13.9089 39.0364 13.9431C34.3627 16.6337 26.6876 13.8807 25.5307 13.4657C25.4399 13.4331 25.3892 13.415 25.3833 13.415C25.2793 13.3723 25.1604 13.3889 25.0722 13.4584C24.9838 13.5277 24.9407 13.64 24.9602 13.7505C25.9558 20.0138 19.3782 24.4751 19.3098 24.5186C19.2142 24.5838 19.1618 24.6957 19.1729 24.8107L21.0771 43.1159C21.0808 43.1528 21.0913 43.1886 21.1082 43.2216C22.9393 46.5792 26.3612 48.7704 30.1812 49.0313ZM30.2185 48.3913C26.6397 48.1529 23.4278 46.114 21.6931 42.9792L19.8449 24.9536C20.8406 24.2328 26.2483 20.0262 25.6696 14.1979C27.5676 14.8938 34.4252 17.081 39.0675 14.6763C39.6462 16.1241 41.93 22.2507 41.1397 27.1408C40.7307 30.28 38.4893 32.8747 35.4395 33.7396C35.29 33.773 35.187 33.91 35.1968 34.0627L35.8191 44.0045C35.8561 45.1504 35.443 46.2653 34.6679 47.1113C33.7158 48.0806 32.2161 48.5093 30.2185 48.3913Z" fill="#231F20"/>
<path d="M22.8569 23.2638C22.8569 23.2638 19.2912 16.5407 16.13 21.1263C12.9687 25.712 18.3204 30.1733 21.3759 29.5582" fill="white"/>
<path d="M20.7661 29.937C19.0174 29.937 16.9265 28.6943 15.7877 26.9359C14.5213 25.1297 14.5691 22.7133 15.906 20.9584C16.7461 19.7157 17.7044 19.1565 18.7561 19.2248C21.1643 19.3677 23.1121 22.953 23.1619 23.1207C23.2178 23.2678 23.1548 23.4335 23.0152 23.5064C22.8755 23.5793 22.7033 23.5364 22.6143 23.4066C22.6143 23.4066 20.7474 19.9704 18.6689 19.8462C17.8392 19.7965 17.0738 20.2853 16.3727 21.3126C15.1911 22.8622 15.1459 24.996 16.2607 26.5941C17.4368 28.3836 19.7019 29.5829 21.3012 29.2598C21.4709 29.2293 21.6339 29.3396 21.6684 29.5083C21.6848 29.5883 21.6683 29.6715 21.6227 29.7393C21.5771 29.8071 21.5061 29.8537 21.4257 29.8687C21.2085 29.9128 20.9876 29.9357 20.7661 29.937Z" fill="#231F20"/>
<path d="M36.5909 27.1224C36.0835 27.1219 35.5772 27.0741 35.0787 26.9795C34.9975 26.9661 34.9254 26.9199 34.8794 26.8516C34.8335 26.7834 34.8178 26.6993 34.836 26.6191C34.8511 26.5372 34.8984 26.4648 34.9675 26.418C35.0365 26.3713 35.1214 26.3542 35.2032 26.3706C35.2032 26.3706 37.2194 26.762 38.1715 26.1842C38.3084 25.4075 36.3918 22.804 34.9978 21.2133C34.9432 21.1519 34.9157 21.0712 34.9215 20.9893C34.9274 20.9074 34.9661 20.8313 35.029 20.7783C35.1521 20.6592 35.3477 20.6592 35.4708 20.7783C36.0931 21.4618 39.0116 24.9539 38.8063 26.2339C38.7776 26.4344 38.6614 26.6119 38.4889 26.7185C37.902 27.0151 37.2479 27.1543 36.5909 27.1224Z" fill="#231F20"/>
<path d="M35.4708 34.0132C35.4708 34.0132 30.1813 35.0322 27.0698 34.4543C27.0698 34.4543 30.9218 42.0846 35.9935 41.7118L35.4708 34.0132Z" fill="#231F20"/>
<path fill-rule="evenodd" clip-rule="evenodd" d="M26.796 34.5848C26.9205 34.9017 30.6169 42.0411 35.6325 42.0411C35.7653 42.0411 35.896 42.0453 36.0246 42.0536C36.1941 42.0403 36.3215 41.8937 36.3108 41.7242L35.7881 34.0256C35.7808 33.9381 35.7381 33.8573 35.6699 33.8019C35.5987 33.7485 35.5089 33.7261 35.421 33.7398C35.3649 33.7522 30.1501 34.7402 27.132 34.1747C27.014 34.1313 26.8814 34.1632 26.796 34.2555C26.7314 34.3558 26.7314 34.4845 26.796 34.5848ZM35.6388 41.4198C31.737 41.4198 28.6255 36.511 27.6485 34.852C30.3431 35.1689 34.0457 34.5848 35.1596 34.386L35.6388 41.4198Z" fill="#231F20"/>
<ellipse cx="31.9843" cy="20.0292" rx="0.78407" ry="1.37323" transform="rotate(-6.85 31.9843 20.0292)" fill="#231F20"/>
<ellipse cx="38.807" cy="19.7836" rx="0.78407" ry="1.37323" transform="rotate(-6.85 38.807 19.7836)" fill="#231F20"/>
<path d="M33.4417 30.1109C32.9889 30.1077 32.5417 30.0103 32.1287 29.8251C30.6103 29.1664 29.6395 27.3396 29.235 24.3509C29.2109 24.1793 29.3308 24.0207 29.5026 23.9967C29.6744 23.9727 29.8332 24.0923 29.8573 24.2639C30.2307 27.0041 31.1019 28.6818 32.3838 29.2348C33.9582 29.9307 35.7317 28.7191 35.7504 28.7066C35.8413 28.6363 35.9637 28.6217 36.0686 28.6688C36.1735 28.7159 36.2438 28.8169 36.2515 28.9315C36.2591 29.0461 36.2028 29.1556 36.1051 29.2161C35.3172 29.7544 34.3953 30.0642 33.4417 30.1109Z" fill="#231F20"/>
<path d="M117.047 101.841C116.944 101.153 116.877 100.46 116.848 99.7654C116.801 98.3216 117.026 96.8819 117.513 95.5215C117.662 94.9162 117.995 94.3715 118.465 93.9619C118.969 93.5671 119.69 93.6182 120.133 94.08C120.376 94.5782 120.398 95.1551 120.195 95.6707C119.871 97.1138 119.797 98.6019 119.978 100.07C120.214 98.094 120.475 96.0435 121.552 94.3782C121.776 93.9884 122.095 93.6613 122.479 93.4276C122.872 93.1934 123.362 93.1934 123.755 93.4276C124.309 93.8314 124.265 94.6703 124.197 95.3289C124.021 97.0681 124.049 98.8216 124.278 100.555C124.153 99.0305 124.265 97.4965 124.607 96.0062C124.831 95.0307 125.273 93.9557 126.225 93.645C126.425 93.5754 126.641 93.5625 126.848 93.6078C127.283 93.7554 127.601 94.1305 127.675 94.5833C127.747 95.0278 127.747 95.4809 127.675 95.9254C127.496 97.675 127.55 99.4407 127.837 101.176C127.613 99.6541 127.67 98.1041 128.005 96.6027C128.093 96.0016 128.333 95.4327 128.702 94.9499C129.088 94.4591 129.743 94.2669 130.333 94.4714C130.754 94.6945 131.046 95.1014 131.123 95.5713C131.196 96.0357 131.212 96.5071 131.173 96.9755C131.13 98.747 131.459 100.508 132.137 102.145C132.697 103.506 133.425 105.016 133.295 106.538C133.061 108.152 131.956 109.507 130.42 110.061C128.901 110.586 127.264 110.664 125.703 110.285C120.556 109.266 116.306 106.818 114.501 101.903" fill="white"/>
<path d="M127.881 110.857C127.134 110.853 126.39 110.776 125.659 110.627C119.735 109.453 115.883 106.563 114.203 102.04C114.141 101.868 114.23 101.679 114.402 101.617C114.574 101.555 114.763 101.644 114.825 101.816C116.418 106.116 120.115 108.868 125.802 109.993C127.303 110.364 128.878 110.292 130.339 109.788C131.759 109.277 132.784 108.029 133.008 106.538C133.12 105.252 132.579 103.966 132.056 102.729L131.876 102.288C131.184 100.609 130.847 98.8041 130.886 96.9881V96.7706C130.919 96.4016 130.904 96.0299 130.843 95.6646C130.779 95.2935 130.55 94.9713 130.221 94.7885C129.765 94.6544 129.273 94.8091 128.976 95.18C128.644 95.6249 128.43 96.1464 128.354 96.6961C128.021 98.1578 127.964 99.6686 128.186 101.151C128.212 101.326 128.093 101.489 127.918 101.518C127.759 101.538 127.609 101.437 127.57 101.282C127.276 99.5178 127.222 97.7226 127.408 95.9442V95.8386C127.467 95.4619 127.467 95.0782 127.408 94.7015C127.352 94.3609 127.113 94.0788 126.785 93.9683C126.63 93.9363 126.469 93.947 126.319 93.9994C125.665 94.2106 125.192 94.9314 124.912 96.1244C124.577 97.5821 124.47 99.0829 124.595 100.573C124.573 100.719 124.457 100.831 124.31 100.847C124.164 100.863 124.025 100.779 123.973 100.642C123.74 98.884 123.713 97.1054 123.892 95.3415C123.954 94.7201 123.985 94.0366 123.581 93.7384C123.293 93.568 122.935 93.568 122.647 93.7384C122.309 93.9421 122.028 94.2287 121.832 94.571C120.774 96.2114 120.531 98.2992 120.314 100.163C120.292 100.322 120.157 100.441 119.996 100.443C119.836 100.441 119.701 100.322 119.679 100.163C119.493 98.6603 119.566 97.1365 119.897 95.6584C120.077 95.2333 120.077 94.7537 119.897 94.3287C119.794 94.19 119.639 94.1 119.467 94.0801C119.191 94.0397 118.909 94.1088 118.683 94.2728C118.266 94.6443 117.973 95.1343 117.843 95.677C117.363 96.9957 117.141 98.3943 117.19 99.7966C117.19 100.014 117.221 100.207 117.233 100.387C117.255 100.876 117.307 101.364 117.389 101.847C117.381 101.998 117.269 102.123 117.12 102.148C116.971 102.173 116.824 102.092 116.767 101.953C116.682 101.449 116.628 100.941 116.605 100.43C116.605 100.25 116.605 100.058 116.561 99.8464C116.509 98.3662 116.742 96.8898 117.246 95.4968C117.414 94.8273 117.786 94.2262 118.31 93.7757C118.67 93.5178 119.115 93.4067 119.554 93.465C119.894 93.5126 120.201 93.6938 120.407 93.9683C120.716 94.5429 120.759 95.2234 120.525 95.8324C120.522 95.8655 120.522 95.8987 120.525 95.9318C120.726 95.3612 120.992 94.815 121.316 94.3038C121.571 93.8684 121.933 93.5049 122.367 93.2475C122.869 92.954 123.494 92.9709 123.979 93.291C124.601 93.7633 124.601 94.6332 124.601 95.2359C124.825 94.4308 125.411 93.7758 126.188 93.465C126.452 93.3713 126.737 93.3562 127.009 93.4215C127.573 93.6001 127.987 94.0811 128.08 94.6642C128.137 94.9484 128.153 95.2391 128.13 95.5279C128.237 95.303 128.376 95.094 128.54 94.9066C129.015 94.304 129.826 94.0777 130.544 94.3473C131.055 94.615 131.414 95.1036 131.515 95.6708C131.588 96.0807 131.611 96.4981 131.583 96.9135V97.131C131.549 98.8571 131.869 100.572 132.523 102.17L132.703 102.605C133.232 103.848 133.83 105.271 133.705 106.719C133.471 108.456 132.285 109.918 130.631 110.509C129.746 110.803 128.812 110.921 127.881 110.857Z" fill="#231F20"/>
<path d="M182.151 67.1442L181.205 81.3982C181.205 81.3982 151.957 58.4079 147.06 57.4199V61.4401C147.06 61.4401 138.927 60.4459 138.279 62.0615C137.632 63.677 138.734 69.816 140.849 71.0588C142.094 71.8106 152.604 71.8727 152.604 71.8727C152.604 71.8727 154.092 75.5139 168.591 88.8545C183.09 102.195 196.731 109.328 197.584 96.8327C198.436 84.3372 199.519 63.2793 199.519 63.2793" fill="white"/>
<path d="M192.219 103.612C187.073 103.612 178.598 98.4794 168.373 89.072C155.623 77.3345 152.903 73.0907 152.405 72.1773C150.669 72.1773 141.932 72.053 140.688 71.3198C138.36 69.9466 137.284 63.6584 137.981 61.9248C138.678 60.1912 144.776 60.8312 146.742 61.0487V57.3889C146.744 57.2928 146.787 57.202 146.861 57.1404C146.936 57.0811 147.033 57.0563 147.128 57.072C151.752 58.0041 176.998 77.6514 180.925 80.7396L181.827 67.107C181.8 66.9732 181.86 66.8369 181.977 66.7663C182.094 66.6958 182.243 66.7062 182.349 66.7923C182.455 66.8785 182.495 67.0218 182.449 67.1505L181.528 81.3982C181.522 81.5173 181.447 81.6218 181.336 81.6654C181.227 81.716 181.1 81.7016 181.006 81.6281C180.726 81.4044 153.14 59.7501 147.402 57.8177V61.4153C147.403 61.5075 147.365 61.5956 147.296 61.6577C147.227 61.7208 147.134 61.7504 147.041 61.7384C143.768 61.3345 138.951 61.2041 138.597 62.1672C138.005 63.6398 139.082 69.6235 141.03 70.773C141.907 71.2887 148.441 71.5124 152.623 71.5435C152.754 71.5418 152.873 71.6208 152.922 71.7423C152.922 71.7734 154.646 75.5512 168.828 88.606C180.464 99.2996 189.674 104.389 194.155 102.643C196.022 101.903 197.061 99.9334 197.266 96.7955C198.106 84.4491 199.189 63.4472 199.202 63.2421C199.205 63.1569 199.242 63.0766 199.305 63.0193C199.369 62.962 199.452 62.9326 199.538 62.9377C199.623 62.9408 199.703 62.9782 199.761 63.0414C199.818 63.1045 199.848 63.1881 199.843 63.2732C199.843 63.4844 198.747 84.4926 197.907 96.8266C197.671 100.232 196.488 102.419 194.379 103.22C193.691 103.488 192.958 103.621 192.219 103.612Z" fill="#231F20"/>
<path d="M181.205 81.3672L188.218 86.5866L181.205 81.3672Z" fill="white"/>
<path d="M188.218 86.9093C188.149 86.9058 188.083 86.8844 188.025 86.8472L181.012 81.6277C180.872 81.518 180.844 81.3174 180.95 81.1741C181.057 81.0353 181.256 81.0077 181.398 81.112L188.411 86.3314C188.519 86.4156 188.562 86.5586 188.519 86.6884C188.475 86.8182 188.355 86.9067 188.218 86.9093Z" fill="#231F20"/>
<path d="M19.0049 55.6363C19.0049 55.6363 31.0026 77.8809 31.3262 78.7508C31.4382 79.0429 56.0499 65.8825 56.9522 64.0867C56.6565 62.0707 56.8551 60.0132 57.5309 58.0906C57.9292 57.0405 58.6635 56.91 59.5347 56.1706C59.4226 57.4828 59.3976 58.8008 59.46 60.1163C61.1116 58.3729 62.8967 56.7608 64.7993 55.2945C65.2014 54.8698 65.792 54.678 66.3674 54.785C66.6255 54.9148 66.8413 55.1152 66.9897 55.3629C69.5411 58.9481 67.4129 63.2541 65.5834 66.6095C62.1359 72.9225 56.9708 76.8433 51.4822 81.2549C47.8272 84.1721 44.0241 86.8993 40.0881 89.4258C37.0403 91.4845 33.7996 93.2429 30.4115 94.6763C28.3828 95.484 25.5825 96.5403 23.4294 95.5337C15.6196 91.9174 6.66484 73.4382 4.21924 65.3046" fill="white"/>
<path d="M25.464 96.2548C24.7267 96.2659 23.9959 96.1153 23.3233 95.8137C18.8988 93.7694 14.4868 87.3197 11.5682 82.268C8.45036 76.9236 5.89768 71.2699 3.95137 65.3981C3.92306 65.243 4.0156 65.0913 4.16663 65.0453C4.31766 64.9993 4.47927 65.0735 4.54254 65.2179C7.03171 73.5814 16.0549 91.7686 23.5847 95.2544C25.5386 96.1554 28.09 95.2544 30.3241 94.3908C33.6897 92.9617 36.9095 91.2117 39.9385 89.1651C43.8678 86.6443 47.6646 83.9233 51.3139 81.0129L52.2598 80.2486C57.3315 76.1911 62.1169 72.3574 65.3279 66.4607C67.2633 62.9189 69.1239 58.8676 66.753 55.5434C66.6337 55.3426 66.4586 55.1807 66.2489 55.0774C65.8569 54.922 65.3653 55.2451 65.0043 55.5372C63.1185 56.9982 61.3461 58.5996 59.7024 60.3278C59.6182 60.4161 59.49 60.4471 59.3747 60.4069C59.2593 60.3667 59.1782 60.2629 59.1673 60.1414C59.1175 59.5698 59.1237 57.9045 59.1673 56.8358L58.9494 56.9849C58.4368 57.2489 58.0384 57.6909 57.8293 58.2276C57.1783 60.0977 56.9842 62.0959 57.263 64.056C57.2844 64.1184 57.2844 64.1862 57.263 64.2486C56.7403 65.2925 49.8764 69.2568 44.1949 72.3946C40.959 74.1904 31.9296 79.0929 31.3384 79.0929C31.2119 79.084 31.1012 79.0047 31.0521 78.8878C30.8032 78.2168 22.8939 63.4968 18.7494 55.8106C18.667 55.6596 18.7227 55.4704 18.8739 55.388C19.0251 55.3057 19.2146 55.3613 19.2971 55.5123C19.7638 56.3822 30.2307 75.7997 31.5126 78.4032C34.2258 77.322 55.2966 65.7523 56.6283 64.0001C56.3477 61.9682 56.5611 59.8988 57.2506 57.9667C57.5096 57.3174 57.9901 56.7804 58.6072 56.4506C58.8643 56.2871 59.1116 56.1087 59.3477 55.9162C59.4464 55.8306 59.5881 55.8157 59.7024 55.8789C59.8138 55.9433 59.8753 56.0684 59.858 56.1958C59.7643 57.2452 59.729 58.299 59.7522 59.3523C61.2719 57.7921 62.8979 56.3388 64.6185 55.0028C65.1288 54.6113 65.8071 54.1888 66.4854 54.4498C66.8095 54.5995 67.0837 54.8389 67.2757 55.1395C70.0636 59.0541 67.4499 63.8385 65.888 66.7154C62.6147 72.7177 57.7982 76.5888 52.6581 80.6898L51.706 81.4541C48.0449 84.3803 44.2333 87.1139 40.2869 89.6436C37.2227 91.7127 33.9654 93.4815 30.5605 94.9251C28.9568 95.6742 27.2297 96.1248 25.464 96.2548Z" fill="#231F20"/>
<path d="M19.0049 55.9224C18.8944 55.9217 18.7926 55.8626 18.7373 55.7671L12.7135 45.5084C12.6259 45.3591 12.6761 45.1672 12.8256 45.0797C12.9751 44.9922 13.1673 45.0423 13.2549 45.1915L19.2912 55.4812C19.3337 55.5518 19.3458 55.6366 19.3247 55.7162C19.3036 55.7958 19.2511 55.8635 19.1791 55.9038C19.1246 55.9284 19.0635 55.935 19.0049 55.9224Z" fill="#231F20"/>
<path d="M182.151 67.4673C182.066 67.4595 181.989 67.4183 181.935 67.3529C181.881 67.2876 181.856 67.2035 181.864 67.1194L183.19 52.6976C183.21 52.5239 183.364 52.3972 183.538 52.4118C183.625 52.4163 183.705 52.4563 183.76 52.5223C183.816 52.5883 183.841 52.6743 183.831 52.7597L182.499 67.1753C182.493 67.2606 182.452 67.3398 182.387 67.3948C182.321 67.4498 182.236 67.4759 182.151 67.4673Z" fill="#231F20"/>
</svg>
