<svg width="182" height="93" viewBox="0 0 182 93" fill="none" xmlns="http://www.w3.org/2000/svg">
<path d="M153.347 45.8665H167.883C167.883 45.8665 177.421 65.536 179.299 73.9641H153.347V45.8665Z" fill="#E7816B"/>
<path fill-rule="evenodd" clip-rule="evenodd" d="M153.346 74.2313H179.299C179.38 74.2319 179.458 74.1955 179.509 74.1325C179.558 74.0679 179.577 73.9854 179.561 73.9058C177.695 65.5126 168.221 45.9477 168.122 45.7501C168.08 45.6565 167.986 45.597 167.883 45.599H153.346C153.198 45.599 153.078 45.7187 153.078 45.8663V73.964C153.078 74.1116 153.198 74.2313 153.346 74.2313ZM178.966 73.7024H153.632L153.615 46.1279H167.714C168.589 47.9472 177.041 65.623 178.966 73.7024Z" fill="#231F20"/>
<path d="M154.321 67.4772L165.666 72.4934C165.666 72.4934 155.691 29.4809 136.208 10.0671C136.208 10.0671 129.401 15.2984 124.489 28.8706C123.241 32.3174 124.302 30.1493 124.221 30.7306L122.896 40.1061L154.321 67.4772Z" fill="#E7816B"/>
<path fill-rule="evenodd" clip-rule="evenodd" d="M165.562 72.7609C165.597 72.7664 165.632 72.7664 165.667 72.7609C165.731 72.7602 165.792 72.7376 165.842 72.697C165.918 72.6334 165.952 72.5321 165.929 72.4354C165.83 72.0053 155.709 29.1497 136.395 9.8813C136.295 9.7925 136.145 9.7925 136.045 9.8813C135.975 9.93362 129.121 15.316 124.238 28.801C123.463 30.9504 123.533 30.9923 123.754 31.1258L123.754 31.126C123.797 31.1517 123.845 31.1676 123.894 31.1725L122.611 40.0598C122.598 40.15 122.634 40.2403 122.704 40.2981L154.128 67.6982C154.146 67.717 154.168 67.731 154.193 67.7389L165.562 72.7609ZM165.299 72.0344L154.467 67.2507L123.177 39.9436L124.501 30.7424C124.545 30.5935 124.48 30.4341 124.343 30.3587H124.273C124.304 30.2722 124.343 30.1571 124.391 30.0137C124.478 29.7529 124.596 29.3985 124.758 28.9521C129.138 16.8156 135.1 11.3635 136.208 10.4219C154.152 28.5104 164.086 67.0937 165.299 72.0344Z" fill="#231F20"/>
<path d="M124.775 36.5665C124.775 36.5665 127.884 21.9073 136.343 13.7466C136.343 13.7466 149.374 24.7903 161.974 69.0118L121.013 66.7391C121.013 66.7391 121.818 44.2622 124.775 36.5665Z" fill="#231F20"/>
<path fill-rule="evenodd" clip-rule="evenodd" d="M121.012 67.0298L161.974 69.3025C162.07 69.3281 162.172 69.3016 162.242 69.2327C162.302 69.1596 162.322 69.0616 162.295 68.9712C149.812 25.1449 136.704 13.671 136.57 13.5606C136.46 13.458 136.289 13.458 136.179 13.5606C127.884 21.5412 124.658 35.8399 124.512 36.5025C121.598 44.1012 120.784 65.5231 120.739 66.7066L120.738 66.7275C120.732 66.8859 120.854 67.0204 121.012 67.0298ZM161.583 68.7038L121.333 66.466C121.421 63.8329 122.325 43.7682 125.061 36.6711V36.6246C125.09 36.4793 128.182 22.1922 136.348 14.1477C137.118 14.88 140.128 17.949 144.212 24.988C148.581 32.4861 155.126 46.1455 161.583 68.7038Z" fill="#231F20"/>
<path d="M110.991 49.2144C110.991 49.2144 117.851 34.9447 126.367 26.6619C126.367 26.6619 137.118 35.0667 144.118 44.0645C151.118 53.0622 157.535 69.0117 157.535 69.0117H111.615L110.991 49.2144Z" fill="white"/>
<path fill-rule="evenodd" clip-rule="evenodd" d="M111.615 69.3024H157.541L157.511 69.2792C157.608 69.2798 157.699 69.2329 157.753 69.1538C157.808 69.0747 157.82 68.9736 157.786 68.8839C157.739 68.7444 151.264 52.7949 144.322 43.8902C137.602 35.269 127.305 27.0783 126.561 26.4862C126.536 26.4667 126.522 26.4554 126.519 26.4527C126.409 26.3563 126.244 26.3563 126.134 26.4527C117.85 34.5297 111.018 48.4368 110.709 49.0655C110.704 49.077 110.7 49.084 110.699 49.0865C110.69 49.1307 110.69 49.1761 110.699 49.2202L111.323 69.0234C111.329 69.1794 111.458 69.3025 111.615 69.3024ZM157.109 68.7212H111.895L111.288 49.2783C111.298 49.2585 111.31 49.2342 111.325 49.2055C112.06 47.736 118.535 34.7934 126.391 27.0455C127.896 28.2487 137.515 36.0491 143.891 44.2447C150.109 52.2718 156.053 66.1927 157.109 68.7212Z" fill="#231F20"/>
<path d="M126.251 29.5042C126.251 29.5042 116.976 38.2229 113.575 50.1502C113.575 50.1502 153.364 64.1525 153.009 63.8037C152.653 63.455 147.099 50.8941 140.759 43.5413C131.793 33.1312 126.251 29.5042 126.251 29.5042Z" fill="#231F20"/>
<path fill-rule="evenodd" clip-rule="evenodd" d="M133.151 57.3228C149.66 63.083 152.495 64.0536 153.078 64.0536C153.201 64.0536 153.23 64.0129 153.253 63.9606C153.329 63.8526 153.317 63.7059 153.224 63.6119C153.148 63.5131 152.816 62.8446 152.431 62.0658L152.413 62.0297C150.489 58.1677 146.027 49.2077 140.991 43.3495C132.09 33.0033 126.466 29.3007 126.408 29.2658C126.295 29.1905 126.146 29.2026 126.046 29.2949C125.953 29.3821 116.678 38.1996 113.295 50.0688C113.249 50.2163 113.329 50.3736 113.476 50.4233C113.476 50.4233 123.305 53.8818 133.151 57.3228ZM152.431 63.3561C148.388 62.0832 126.181 54.3061 113.931 49.9874C117.075 39.2633 125.026 31.12 126.291 29.8994C127.341 30.6318 132.638 34.5319 140.566 43.7448C145.557 49.5419 149.998 58.4727 151.908 62.3143L151.923 62.3448L152.431 63.3561Z" fill="#231F20"/>
<path d="M116.743 37.0024C116.743 37.0024 135.491 39.8564 146.668 52.6206C152.373 59.1423 157.541 69.0119 157.541 69.0119H134.68L116.743 37.0024Z" fill="#E7816B"/>
<path fill-rule="evenodd" clip-rule="evenodd" d="M134.68 69.2792H157.541C157.637 69.2788 157.725 69.2249 157.768 69.1397C157.815 69.0587 157.815 68.959 157.768 68.8781L157.765 68.8717C157.606 68.5708 152.458 58.8354 146.854 52.4345C135.747 39.7575 116.958 36.7408 116.772 36.7408C116.67 36.7272 116.57 36.7695 116.509 36.8512C116.459 36.9397 116.459 37.0476 116.509 37.136L134.447 69.1455C134.495 69.2285 134.584 69.2795 134.68 69.2792ZM157.097 68.7502H134.837L117.25 37.3627C120.412 37.9556 136.547 41.4664 146.463 52.7949C151.451 58.4912 156.077 66.8612 157.097 68.7502Z" fill="#231F20"/>
<path d="M106.593 50.1678C110.676 44.1576 113.009 40.3504 116.743 37.0024C123.713 41.1262 130.13 46.1144 135.841 51.8476C140.844 56.9319 145.078 62.7138 148.412 69.0119H97.376C97.376 69.0119 102.813 55.7129 106.593 50.1678Z" fill="white"/>
<path fill-rule="evenodd" clip-rule="evenodd" d="M97.3756 69.3024H148.411C148.509 69.3024 148.6 69.2517 148.651 69.1687C148.697 69.0794 148.697 68.9731 148.651 68.8839C145.292 62.5622 141.039 56.7542 136.021 51.6382C130.287 45.8932 123.849 40.8917 116.859 36.7524C116.753 36.6895 116.617 36.7037 116.526 36.7872C113.312 39.6412 111.125 42.8904 108.103 47.3834C107.566 48.2088 106.983 49.0807 106.353 50.0049C102.596 55.5093 97.1598 68.7734 97.1073 68.9071C97.0693 68.9952 97.0803 69.0966 97.1365 69.1745C97.1895 69.2545 97.2794 69.3026 97.3756 69.3024ZM147.933 68.7211H97.8131C98.7523 66.4659 103.477 55.2477 106.837 50.3304L108.616 47.7089C111.562 43.3205 113.709 40.1352 116.783 37.3627C123.651 41.4655 129.984 46.399 135.636 52.0509C140.491 57.0128 144.629 62.6233 147.933 68.7211Z" fill="#231F20"/>
<path d="M99.2368 69.0117C99.2368 69.0117 103.198 59.27 108.121 51.5161C113.132 43.6285 117.005 39.8562 117.005 39.8562C117.005 39.8562 122.879 42.6346 132.586 52.138C139.218 58.6306 145.378 68.9943 145.378 68.9943L99.2368 69.0117Z" fill="#231F20"/>
<path fill-rule="evenodd" clip-rule="evenodd" d="M99.2366 69.3025H145.378C145.489 69.3113 145.594 69.2543 145.647 69.1572C145.699 69.0673 145.699 68.9565 145.647 68.8666C145.643 68.8622 145.622 68.8273 145.584 68.7643C144.915 67.6667 139.042 58.0251 132.813 51.929C123.188 42.5011 117.215 39.5949 117.157 39.5949C117.045 39.5438 116.914 39.5644 116.824 39.6472C116.823 39.6489 116.814 39.6571 116.8 39.672C116.461 40.0146 112.663 43.8609 107.899 51.3594C103.017 59.026 99.0266 68.8085 98.9916 68.9073C98.9449 68.9903 98.9449 69.0916 98.9916 69.1747C99.0472 69.2548 99.1388 69.3026 99.2366 69.3025ZM144.859 68.7213H99.6741C100.473 66.8439 104.072 58.4332 108.366 51.6732C112.758 44.7564 116.311 40.9782 117.063 40.211C118.131 40.769 123.772 43.9136 132.382 52.3475C138.139 57.9798 143.611 66.6811 144.859 68.7213Z" fill="#231F20"/>
<path d="M117.833 72.4935H58.2226C58.2226 72.4935 55.3818 46.9185 56.7876 30.0622C58.1934 13.206 66.9376 0.662598 66.9376 0.662598C66.9376 0.662598 89.0459 6.07985 102.34 27.3536C115.634 48.6273 117.833 72.4935 117.833 72.4935Z" fill="white"/>
<path fill-rule="evenodd" clip-rule="evenodd" d="M58.2223 72.7842H117.833C117.921 72.7926 118.008 72.758 118.066 72.6912C118.123 72.6321 118.151 72.5514 118.142 72.4703L118.142 72.4689C118.111 72.153 115.776 48.2671 102.591 27.1735C89.384 6.04506 67.229 0.406936 67.0073 0.354623C66.8898 0.320185 66.7636 0.367641 66.6982 0.470873C66.6107 0.581311 57.884 13.3107 56.4957 30.01C55.2236 45.3109 57.4922 68.0534 57.8811 71.9518C57.9166 72.3081 57.9365 72.507 57.9365 72.5284C57.9515 72.6743 58.0752 72.785 58.2223 72.7842ZM117.53 72.2029H58.4848C58.1932 69.4711 55.7665 45.8026 57.0907 30.0332C58.3973 14.5197 66.0565 2.51687 67.0832 0.970748C69.2823 1.57525 89.6815 7.61444 102.095 27.4816C114.386 47.1452 117.203 69.2967 117.53 72.2029Z" fill="#231F20"/>
<path d="M117.833 72.4935H99.7501C99.7501 72.4935 97.5451 49.412 88.6667 28.9346C79.7884 8.45717 66.9551 0.633545 66.9551 0.633545C66.9551 0.633545 89.0634 6.05079 102.358 27.3245C115.652 48.5983 117.833 72.4935 117.833 72.4935Z" fill="#E7816B"/>
<path fill-rule="evenodd" clip-rule="evenodd" d="M99.75 72.7609H117.833H117.921C117.996 72.7612 118.068 72.7299 118.119 72.6746C118.17 72.6193 118.196 72.5451 118.189 72.4703L118.189 72.4682C118.155 72.1194 115.825 48.258 102.638 27.1851C89.4192 6.06248 67.2759 0.430168 67.0542 0.377856C66.9262 0.345171 66.7937 0.412397 66.745 0.534793C66.6967 0.654329 66.7409 0.791179 66.85 0.860293C66.8524 0.861979 66.861 0.867565 66.8757 0.877101C67.521 1.29497 79.8786 9.29732 88.4334 29.0451C97.1834 49.2435 99.4875 72.2901 99.4875 72.5226C99.5022 72.6566 99.6147 72.7588 99.75 72.7609ZM117.542 72.232H99.96C99.6975 69.7152 97.195 47.9997 88.8767 28.8417C81.7659 12.4097 71.9659 4.01648 68.4134 1.36598C73.675 3.06323 91.0467 9.79411 102.095 27.4757C114.433 47.1975 117.233 69.442 117.542 72.232Z" fill="#231F20"/>
<path d="M97.3759 72.4934C97.3759 72.4934 93.6076 48.0112 88.6667 34.8749C81.4101 15.6937 67.6667 4.68481 67.6667 4.68481C67.6667 4.68481 61.8334 15.6937 60.5209 24.7728C59.6692 30.7713 58.9692 60.5836 60.5792 72.2261L97.3759 72.4934Z" fill="#231F20"/>
<path fill-rule="evenodd" clip-rule="evenodd" d="M60.5792 72.5167L97.3759 72.784C97.4628 72.7873 97.5466 72.751 97.6034 72.6852C97.6613 72.6202 97.687 72.5328 97.6734 72.4469C97.6711 72.4351 97.66 72.3663 97.6404 72.2448C97.2562 69.8607 93.5968 47.154 88.9234 34.7877C81.7192 15.7402 67.9759 4.58597 67.8359 4.47553C67.7703 4.41871 67.6812 4.39705 67.5967 4.41741C67.512 4.43354 67.4391 4.48694 67.3984 4.56272C67.34 4.64991 61.5184 15.6937 60.2292 24.7321C59.4067 30.5504 58.6775 60.6068 60.2934 72.2667C60.3136 72.409 60.435 72.5152 60.5792 72.5167ZM97.0375 72.2028L60.8359 71.9354C59.2725 60.1477 59.99 30.5737 60.8125 24.8251C61.9559 16.7399 66.7859 7.03303 67.7484 5.16722C76.8943 13.3478 83.9632 23.5727 88.375 35.0028C92.9542 47.0986 96.5592 69.2035 97.0375 72.2028Z" fill="#231F20"/>
<path d="M52.4998 20.7041C52.4998 20.7041 64.709 22.814 78.6273 32.4919C102.281 48.9412 110.501 72.4935 110.501 72.4935H48.6265C48.6265 72.4935 50.7498 27.528 52.4998 20.7041Z" fill="#E7816B"/>
<path fill-rule="evenodd" clip-rule="evenodd" d="M48.6267 72.7608H110.518V72.7143C110.605 72.7127 110.685 72.6707 110.736 72.6009C110.786 72.5312 110.801 72.4418 110.775 72.3597C110.773 72.3554 110.768 72.3415 110.759 72.3184C110.341 71.1963 101.785 48.2343 78.8025 32.2535C64.9775 22.6454 52.675 20.4192 52.5525 20.4192C52.4138 20.3964 52.2803 20.4817 52.2433 20.6168C50.5108 27.3884 48.4283 70.6218 48.3408 72.4585C48.3403 72.5315 48.3674 72.6021 48.4167 72.6561C48.4674 72.7206 48.5445 72.759 48.6267 72.7608ZM110.157 72.226H48.9067C49.0875 68.4653 51.0825 28.1847 52.7392 21.0063C54.53 21.3666 65.8758 23.9125 78.5167 32.701C100.24 47.8135 108.99 69.2268 110.157 72.226Z" fill="#231F20"/>
<path d="M91.064 72.4935C91.064 72.4935 89.454 59.6479 78.5749 45.3259C67.6957 31.0039 52.4999 20.7041 52.4999 20.7041C52.4999 20.7041 45.984 29.8065 43.5632 40.6468C41.1424 51.4871 42.9799 72.4935 42.9799 72.4935H91.064Z" fill="white"/>
<path fill-rule="evenodd" clip-rule="evenodd" d="M42.9857 72.784H91.064C91.1369 72.78 91.2056 72.7489 91.2565 72.6968C91.3105 72.6343 91.3359 72.5521 91.3265 72.4701C91.309 72.3306 89.559 59.3397 78.779 45.1514C68.0773 31.0661 53.0293 20.7214 52.663 20.4696C52.6604 20.4678 52.6585 20.4665 52.6574 20.4657C52.5265 20.3758 52.3476 20.4068 52.2549 20.5355C52.2539 20.5368 52.2515 20.5402 52.2478 20.5456C51.9974 20.9019 45.6163 29.9836 43.2774 40.5828C41.0589 50.6363 42.4771 69.6022 42.6726 72.2166C42.6863 72.4 42.694 72.5029 42.694 72.5166C42.7089 72.6667 42.8344 72.7818 42.9857 72.784ZM90.7024 72.2028H43.254C43.0557 69.7499 41.6382 50.7256 43.8199 40.6932C46.0132 30.9747 51.549 22.5931 52.5699 21.0935C54.5474 22.4885 68.3374 32.3581 78.3182 45.506C88.0715 58.3341 90.3582 70.1161 90.7024 72.2028Z" fill="#231F20"/>
<path d="M88.264 70.7556C88.264 70.7556 85.0498 57.5961 72.059 42.1C66.5477 35.5537 60.2243 29.7315 53.2406 24.7729C53.2406 24.7729 47.2148 32.6838 45.704 42.7219C44.4673 50.9583 44.199 65.722 44.1406 70.7556H88.264Z" fill="#231F20"/>
<path fill-rule="evenodd" clip-rule="evenodd" d="M44.1408 71.0462H88.2642C88.349 71.0431 88.4281 71.0026 88.48 70.9357C88.537 70.8657 88.5565 70.7726 88.5325 70.6858C88.5033 70.5521 85.155 57.2822 72.2692 41.9139C66.7327 35.3537 60.3908 29.5129 53.3925 24.5287C53.2661 24.4421 53.0936 24.4703 53.0017 24.5926C52.9492 24.6566 46.9233 32.6836 45.4183 42.6753C44.1992 50.7896 43.9133 65.0128 43.8492 70.7497C43.848 70.8285 43.8797 70.9043 43.9367 70.959C43.9909 71.0132 44.064 71.0444 44.1408 71.0462ZM87.8792 70.4649H44.4383C44.5083 64.5594 44.8 50.7024 45.9958 42.7625C47.3375 33.8461 52.3367 26.5282 53.3108 25.1681C60.1669 30.0962 66.3891 35.8452 71.8375 42.2859C83.4458 56.1371 87.255 68.2503 87.8792 70.4649Z" fill="#231F20"/>
<path d="M84.7527 72.4935C84.1694 70.2092 81.7369 62.3449 74.2527 51.0163C65.2869 37.4674 52.9961 33.4509 52.9961 33.4509H28.8169V34.3577L45.3369 72.4935H84.7527Z" fill="#E7816B"/>
<path fill-rule="evenodd" clip-rule="evenodd" d="M45.3366 72.7609H84.7524C84.8481 72.7646 84.9387 72.7183 84.9916 72.6388C85.0434 72.5754 85.0609 72.4907 85.0383 72.4121C84.4724 70.2324 82.0399 62.2577 74.4974 50.8536C65.5841 37.3802 53.2291 33.2243 53.1066 33.1836C53.0777 33.1781 53.048 33.1781 53.0191 33.1836H28.8458C28.6999 33.1867 28.5832 33.3055 28.5833 33.4509V34.3577C28.5777 34.3923 28.5777 34.4277 28.5833 34.4623L45.0916 72.5981C45.1322 72.6972 45.2292 72.7617 45.3366 72.7609ZM84.3908 72.2261H45.4999L29.0849 34.3054V33.7241H52.9374C53.7074 33.9857 65.4558 38.2288 74.0074 51.1616C81.1649 61.9787 83.6908 69.6744 84.3908 72.2261Z" fill="#231F20"/>
<path d="M72.0594 72.4935C68.7927 66.8437 53.6669 42.6405 28.8169 33.4509C28.8169 33.4509 21.0469 50.0224 23.2577 72.4935H72.0594Z" fill="white"/>
<path fill-rule="evenodd" clip-rule="evenodd" d="M23.2576 72.7841H72.0593C72.1629 72.7835 72.2583 72.7282 72.3101 72.6388C72.3622 72.5489 72.3622 72.4381 72.3101 72.3481C69.4751 67.4715 54.0576 42.4777 28.9218 33.1777C28.7785 33.1242 28.618 33.1902 28.5543 33.3288C28.5537 33.3302 28.5526 33.3326 28.551 33.336C28.3565 33.7639 20.7901 50.4088 22.966 72.5225C22.9835 72.6703 23.1083 72.7822 23.2576 72.7841ZM71.5518 72.2028H23.526C21.5835 51.6673 28.041 35.9503 28.9685 33.8403C53.1068 42.8788 68.1685 66.4601 71.5518 72.2028Z" fill="#231F20"/>
<path d="M69.0844 72.4934C67.5852 69.6918 62.0844 61.781 55.5919 54.5735C43.3944 41.0769 29.8144 36.6536 29.8144 36.6536C23.5085 53.9864 25.7777 67.1808 25.9002 72.4934H69.0844Z" fill="#231F20"/>
<path fill-rule="evenodd" clip-rule="evenodd" d="M25.9175 72.7842H69.0842V72.7958C69.1873 72.7961 69.2829 72.7421 69.3356 72.6537C69.3884 72.5654 69.3903 72.4559 69.3408 72.3657C67.9641 69.7966 62.5742 61.8799 55.8075 54.3934C43.6975 40.9782 30.0417 36.4212 29.9017 36.3747C29.7524 36.3313 29.5948 36.4099 29.54 36.5549C24.1967 51.2838 25.0133 63.1238 25.4567 69.5176C25.472 69.7365 25.4876 69.9502 25.5028 70.1581C25.5682 71.0539 25.6258 71.8436 25.6258 72.4994C25.6258 72.5759 25.6567 72.6493 25.7116 72.7029C25.7665 72.7564 25.8407 72.7858 25.9175 72.7842ZM68.5883 72.2029H26.18C26.1583 71.4914 26.1016 70.6499 26.0376 69.7016C26.0326 69.6274 26.0276 69.5524 26.0225 69.4769C25.585 63.1819 24.78 51.5104 29.9892 37.0257C31.9492 37.729 44.2925 42.5185 55.3758 54.7654C61.7691 61.8451 66.9142 69.2967 68.5883 72.2029Z" fill="#231F20"/>
<path d="M171.657 72.4934L168.863 66.8669H78.3766L75.5999 72.4934H18.5791V92.3664H181.177V72.4934H171.657Z" fill="white"/>
<path fill-rule="evenodd" clip-rule="evenodd" d="M18.5793 92.6571H181.178C181.336 92.6539 181.463 92.5247 181.463 92.3665V72.4935C181.463 72.333 181.333 72.2029 181.172 72.2029H171.838L169.126 66.7392C169.076 66.6403 168.975 66.5775 168.863 66.5764H78.3768C78.2652 66.5762 78.1633 66.6394 78.1143 66.7392L75.4193 72.2029H18.5793C18.4182 72.2029 18.2876 72.333 18.2876 72.4935V92.3665C18.2876 92.527 18.4182 92.6571 18.5793 92.6571ZM180.886 92.0759H18.8709V72.7842H75.6001C75.7112 72.783 75.8125 72.7203 75.8626 72.6214L78.5576 67.1577H168.683L171.395 72.6214C171.445 72.7203 171.546 72.783 171.658 72.7842H180.886V92.0759Z" fill="#231F20"/>
<rect x="58.2227" y="72.4934" width="32.8417" height="19.8671" fill="#D1D3D4"/>
<path fill-rule="evenodd" clip-rule="evenodd" d="M58.2223 92.6571H91.064C91.2251 92.6571 91.3557 92.527 91.3557 92.3664V72.4935C91.3557 72.333 91.2251 72.2029 91.064 72.2029H58.2223C58.0626 72.206 57.9338 72.3343 57.9307 72.4935V92.3664C57.9307 92.527 58.0612 92.6571 58.2223 92.6571ZM90.7723 92.0758H58.514V72.7841H90.7723V92.0758Z" fill="#231F20"/>
<path d="M142.502 73.9641L164.191 92.3665H142.502V73.9641Z" fill="#D1D3D4"/>
<path fill-rule="evenodd" clip-rule="evenodd" d="M142.503 92.6571H164.191C164.313 92.6559 164.421 92.5797 164.462 92.4658C164.504 92.352 164.47 92.2244 164.378 92.1456L142.689 73.7433C142.602 73.6726 142.483 73.6569 142.38 73.7026C142.277 73.7486 142.21 73.8512 142.211 73.9641V92.3665C142.211 92.527 142.342 92.6571 142.503 92.6571ZM163.398 92.0759H142.794V74.5977L163.398 92.0759Z" fill="#231F20"/>
<rect x="13.8833" y="76.103" width="44.3392" height="1.9995" fill="white"/>
<path fill-rule="evenodd" clip-rule="evenodd" d="M13.8893 78.3932H58.2227C58.3 78.3932 58.3742 78.3626 58.4289 78.3081C58.4836 78.2536 58.5143 78.1797 58.5143 78.1026V76.1031C58.5143 75.9426 58.3837 75.8125 58.2227 75.8125H13.8893C13.7282 75.8125 13.5977 75.9426 13.5977 76.1031V78.1026C13.6008 78.2618 13.7295 78.3902 13.8893 78.3932ZM57.9252 77.812H14.1752V76.3938H57.9252V77.812Z" fill="#231F20"/>
<rect x="9.60156" y="81.1775" width="48.6267" height="3.52238" fill="white"/>
<path fill-rule="evenodd" clip-rule="evenodd" d="M9.60173 84.9845H58.2226C58.3836 84.9845 58.5142 84.8544 58.5142 84.6939V81.1773C58.5142 81.0168 58.3836 80.8867 58.2226 80.8867H9.60173C9.44064 80.8867 9.31006 81.0168 9.31006 81.1773V84.6939C9.31006 84.8544 9.44064 84.9845 9.60173 84.9845ZM57.9309 84.4033H9.89339L9.91673 81.468H57.9309V84.4033Z" fill="#231F20"/>
<rect x="9.60156" y="83.2756" width="48.6267" height="4.38844" fill="#E7816B"/>
<path fill-rule="evenodd" clip-rule="evenodd" d="M9.60183 87.9257H58.2227C58.2933 87.9272 58.3616 87.9004 58.4121 87.8512C58.4626 87.8019 58.491 87.7345 58.491 87.6641V83.2757C58.491 83.128 58.3709 83.0083 58.2227 83.0083H9.60183C9.45363 83.0083 9.3335 83.128 9.3335 83.2757V87.6641C9.33348 87.7345 9.36193 87.8019 9.41243 87.8512C9.46293 87.9004 9.5312 87.9272 9.60183 87.9257ZM57.9602 87.3967H9.86433V83.5431H57.9602V87.3967Z" fill="#231F20"/>
<rect x="13.8833" y="78.1025" width="44.3392" height="3.07481" fill="#E7816B"/>
<path fill-rule="evenodd" clip-rule="evenodd" d="M13.8891 81.439H58.2224C58.293 81.4406 58.3613 81.4137 58.4118 81.3645C58.4623 81.3153 58.4908 81.2478 58.4908 81.1775V78.1026C58.4924 78.0313 58.4646 77.9623 58.4139 77.9118C58.3633 77.8613 58.2941 77.8337 58.2224 77.8353H13.8891C13.8184 77.8353 13.7508 77.8636 13.7014 77.9139C13.652 77.9642 13.625 78.0323 13.6266 78.1026V81.1775C13.6266 81.3219 13.7441 81.439 13.8891 81.439ZM57.9599 80.9101H14.1516V78.3642H57.9599V80.9101Z" fill="#231F20"/>
<rect x="18.5791" y="74.3069" width="39.6492" height="1.79606" fill="#E7816B"/>
<path fill-rule="evenodd" clip-rule="evenodd" d="M18.5559 76.3704H58.2226C58.3708 76.3704 58.4909 76.2507 58.4909 76.103V74.3069C58.4909 74.236 58.4627 74.168 58.4123 74.1179C58.362 74.0677 58.2938 74.0396 58.2226 74.0396H18.5559C18.4848 74.0396 18.4165 74.0677 18.3662 74.1179C18.3159 74.168 18.2876 74.236 18.2876 74.3069V76.103C18.2876 76.2507 18.4077 76.3704 18.5559 76.3704ZM57.9601 75.8356H18.8418V74.5743H57.9601V75.8356Z" fill="#231F20"/>
<path d="M75.6001 72.4934H101.36L103.74 66.8669H78.3768L75.6001 72.4934Z" fill="#D1D3D4"/>
<path fill-rule="evenodd" clip-rule="evenodd" d="M75.5999 72.7842H101.36C101.473 72.779 101.573 72.7087 101.617 72.604L103.997 66.9833C104.043 66.8982 104.043 66.7952 103.997 66.7101C103.943 66.6269 103.851 66.5766 103.752 66.5764H78.3882C78.2767 66.5762 78.1748 66.6394 78.1257 66.7392L75.349 72.3657C75.299 72.452 75.299 72.5583 75.349 72.6447C75.4039 72.7302 75.4981 72.7826 75.5999 72.7842ZM101.15 72.2029H76.0665L78.5574 67.1577H103.285L101.15 72.2029Z" fill="#231F20"/>
<rect x="109.305" y="69.8838" width="38.4825" height="1.73794" fill="#E7816B"/>
<rect x="159.997" y="78.585" width="16.1875" height="1.27294" fill="#E7816B"/>
<rect x="0.822266" y="86.0598" width="57.4058" height="6.30656" fill="white"/>
<path fill-rule="evenodd" clip-rule="evenodd" d="M0.822428 92.6571H58.2224C58.3835 92.6571 58.5141 92.527 58.5141 92.3665V86.0599C58.5141 85.8994 58.3835 85.7693 58.2224 85.7693H0.822428C0.661345 85.7693 0.530762 85.8994 0.530762 86.0599V92.3665C0.530762 92.527 0.661345 92.6571 0.822428 92.6571ZM57.9308 92.0759H1.1141V86.3505H57.9308V92.0759Z" fill="#231F20"/>
<path d="M171.658 74.2314H142.491C142.387 74.2468 142.283 74.2 142.226 74.1118C142.169 74.0236 142.169 73.9102 142.226 73.822C142.283 73.7338 142.387 73.687 142.491 73.7024H171.658C171.762 73.687 171.865 73.7338 171.923 73.822C171.98 73.9102 171.98 74.0236 171.923 74.1118C171.865 74.2 171.762 74.2468 171.658 74.2314Z" fill="#231F20"/>
</svg>
