<svg width="188" height="162" viewBox="0 0 188 162" fill="none" xmlns="http://www.w3.org/2000/svg">
<path d="M157.845 118.137C157.845 118.137 180.439 59.1713 168.733 50.1789C157.028 41.1865 107.935 44.8178 105.246 48.0303C102.556 51.2429 86.7202 122.221 86.7202 122.221L157.845 118.137Z" fill="#231F20"/>
<path fill-rule="evenodd" clip-rule="evenodd" d="M86.425 122.461C86.4919 122.535 86.5864 122.577 86.6857 122.578L86.7063 122.592L157.865 118.473C158.001 118.467 158.12 118.381 158.167 118.253L158.17 118.244C158.339 117.802 163.939 103.153 168.013 87.6174C173.605 66.3926 173.92 53.7347 168.946 49.918C161.797 44.4334 141.837 44.097 133.603 44.2069C119.579 44.3922 106.474 46.0465 104.985 47.8244C102.268 51.0644 87.0013 119.262 86.3564 122.166C86.33 122.27 86.3556 122.38 86.425 122.461ZM133.617 44.8727H136.197C152.15 44.8727 163.862 46.884 168.507 50.4466C179.54 58.9104 159.031 113.956 157.584 117.793L87.0974 121.857C92.6139 97.2138 103.427 50.728 105.486 48.25C106.686 46.8428 119.208 45.0649 133.617 44.8727Z" fill="#231F20"/>
<path d="M66.1021 67.1888L55.9199 101.38C55.9199 101.38 76.9224 104.092 76.9224 103.316C76.9224 102.541 81.0392 65.6924 81.0392 65.6924L66.1021 67.1888Z" fill="white"/>
<path fill-rule="evenodd" clip-rule="evenodd" d="M55.8783 101.703C62.2525 102.541 72.318 103.762 75.8653 103.762C76.2937 103.802 76.7254 103.743 77.1278 103.591C77.2096 103.514 77.2588 103.408 77.265 103.296C77.265 102.602 79.9615 78.4053 81.3818 65.7061C81.3964 65.6044 81.3605 65.502 81.2858 65.4315C81.2148 65.357 81.1137 65.3191 81.0113 65.3286L66.0674 66.825C65.9278 66.8393 65.8109 66.9372 65.7723 67.0721L55.5901 101.264C55.5635 101.361 55.5799 101.464 55.635 101.549C55.6902 101.633 55.7788 101.689 55.8783 101.703ZM76.5652 103.097C74.9733 103.323 63.6385 102.026 56.338 101.092L66.3418 67.5115L80.6271 66.0768C80.5996 66.323 80.5619 66.661 80.5153 67.0797C79.7796 73.678 76.8103 100.308 76.5652 103.097Z" fill="#231F20"/>
<path d="M46.8011 58.6978C46.8903 58.7939 50.5062 57.826 52.3725 60.0706C54.2388 62.3153 51.8168 64.3197 45.9229 63.1596C40.029 61.9995 46.8011 58.6978 46.8011 58.6978Z" fill="white"/>
<path fill-rule="evenodd" clip-rule="evenodd" d="M45.8542 63.5027C46.9 63.7158 47.9637 63.8284 49.031 63.8391C51.055 63.8391 52.5302 63.3174 53.0997 62.4181C53.5388 61.663 53.381 60.7638 52.64 59.8852C50.991 57.9083 48.097 58.2602 47.1163 58.3794C47.1094 58.3802 47.1027 58.3811 47.0961 58.3819H46.8696C46.7984 58.3578 46.7213 58.3578 46.6501 58.3819C46.0326 58.6908 42.9724 60.2627 43.1714 61.8141C43.2743 62.6172 44.1526 63.1664 45.8542 63.5027ZM43.8712 61.6905C43.7752 60.9286 45.5385 59.7204 46.8765 59.034C46.9588 59.034 47.0549 59.034 47.1853 59.0065C48.139 58.883 50.6845 58.5672 52.098 60.2558C52.5806 60.686 52.7376 61.375 52.4891 61.9719C51.9813 62.83 49.9778 63.5576 45.9914 62.7751C44.228 62.425 43.8712 61.9445 43.8712 61.6905Z" fill="#231F20"/>
<path d="M37.7372 51.5244C37.7372 51.5244 36.9962 50.6732 37.4628 50.076C37.6757 49.83 37.9942 49.7019 38.3181 49.7318C38.642 49.7618 38.9315 49.9462 39.0958 50.227C39.0958 50.227 37.9294 50.6458 37.7372 51.5244Z" fill="white"/>
<path fill-rule="evenodd" clip-rule="evenodd" d="M37.4695 51.7574C37.538 51.8327 37.6354 51.8752 37.7371 51.8741L37.8263 51.8673C37.9549 51.8335 38.0533 51.7298 38.0802 51.5996C38.2037 51.0435 38.9378 50.6591 39.2123 50.563C39.3205 50.5239 39.4026 50.4341 39.4319 50.3228C39.4655 50.2106 39.4397 50.0889 39.3632 50.0001C39.0861 49.6151 38.6436 49.3836 38.1694 49.3755C37.7843 49.376 37.4214 49.5562 37.1882 49.8629C36.6736 50.5081 37.1265 51.3593 37.4695 51.7574ZM37.7508 50.2953C37.8557 50.1631 38.0144 50.085 38.1831 50.0825L38.19 50.11C38.2925 50.0953 38.397 50.1096 38.4919 50.1512C38.2086 50.315 37.9575 50.529 37.7508 50.7827C37.6715 50.6299 37.6715 50.4481 37.7508 50.2953Z" fill="#231F20"/>
<path d="M39.3563 50.1924C38.5169 50.2606 37.8291 50.8867 37.6821 51.7163L52.3996 70.8748C52.5865 68.9853 54.0403 67.4685 55.9195 67.2024L39.3563 50.1924Z" fill="white"/>
<path fill-rule="evenodd" clip-rule="evenodd" d="M52.1184 71.0877C52.1839 71.1732 52.2851 71.2239 52.3928 71.2249L52.4957 71.2112C52.6366 71.1715 52.7379 71.0483 52.7496 70.9023C52.9238 69.1728 54.2598 67.788 55.9813 67.5525C56.1106 67.5302 56.2165 67.4374 56.2557 67.3122C56.2994 67.1873 56.2673 67.0484 56.1734 66.9553L39.6102 49.9453C39.5438 49.876 39.4523 49.8364 39.3563 49.8354C38.3612 49.9134 37.5381 50.6416 37.3391 51.6202C37.3107 51.7272 37.3335 51.8413 37.4009 51.9291L52.1184 71.0877ZM52.2144 70.0511L38.0733 51.6477C38.2221 51.0975 38.6679 50.678 39.226 50.5631L55.2266 66.9965C53.76 67.4215 52.6194 68.5782 52.2144 70.0511Z" fill="#231F20"/>
<path d="M52.4001 70.875L57.4225 73.4835L58.0469 72.9L55.9199 67.2026C55.9199 67.2026 52.009 66.8113 52.4001 70.875Z" fill="white"/>
<path fill-rule="evenodd" clip-rule="evenodd" d="M57.2575 73.7925C57.3079 73.8204 57.3646 73.8346 57.4222 73.8337C57.5104 73.8341 57.5958 73.8024 57.6623 73.7445L58.2867 73.161C58.3927 73.0635 58.4281 72.9109 58.3759 72.7766L56.2558 67.0792C56.2087 66.9495 56.0911 66.8587 55.9539 66.8458C54.8545 66.7542 53.7645 67.1078 52.928 67.8274C52.1759 68.6617 51.8494 69.7959 52.0429 70.9026C52.0539 71.0234 52.1266 71.1299 52.235 71.1841L57.2575 73.7925ZM57.3604 73.0512L52.7359 70.6486C52.6135 69.812 52.8643 68.9638 53.422 68.3285C54.0513 67.801 54.852 67.5225 55.6726 67.5459L57.6349 72.8041L57.3604 73.0512Z" fill="#231F20"/>
<path d="M57.4224 73.4834L58.3829 74.513L58.8358 73.9982L58.0467 72.8999L57.4224 73.4834Z" fill="white"/>
<path fill-rule="evenodd" clip-rule="evenodd" d="M58.1289 74.7535C58.1921 74.8282 58.2851 74.8709 58.3828 74.8702H58.4103C58.5113 74.8703 58.6071 74.825 58.671 74.7467L59.1238 74.2318C59.2271 74.1036 59.2271 73.9207 59.1238 73.7925L58.3348 72.6942C58.2753 72.6121 58.1837 72.5593 58.0829 72.5488C57.9821 72.5383 57.8816 72.5712 57.8065 72.6393L57.1821 73.2228C57.1126 73.2868 57.0707 73.3755 57.0654 73.4699C57.0649 73.5635 57.0991 73.654 57.1615 73.7239L58.1289 74.7535ZM58.376 73.9847L57.9231 73.4973L57.9849 73.4424L58.376 73.9847Z" fill="#231F20"/>
<path d="M47.7339 72.3785C48.5436 70.7379 50.5745 67.2576 51.0411 65.7474C52.331 61.6288 44.7767 57.771 42.3341 57.771C39.8914 57.771 34.7866 66.3103 34.7866 70.8751C34.7866 75.44 51.6998 110.394 51.6998 110.394L67.9268 102.966L47.7339 72.3785Z" fill="white"/>
<path fill-rule="evenodd" clip-rule="evenodd" d="M51.405 110.551C51.4631 110.673 51.5859 110.75 51.7206 110.751C51.78 110.759 51.8406 110.747 51.8921 110.716L68.126 103.275C68.2184 103.233 68.2883 103.153 68.3181 103.056C68.3443 102.955 68.3268 102.848 68.2701 102.76L48.1733 72.351C48.3247 72.068 48.4969 71.741 48.686 71.3821C48.8224 71.123 48.9677 70.8472 49.1202 70.5594C49.9919 69.047 50.7577 67.4758 51.4119 65.8573C51.7756 64.5367 51.4593 63.1216 50.5679 62.0819C48.585 59.4185 44.2143 57.4141 42.3343 57.4141C39.6104 57.4141 34.4507 66.2897 34.4507 70.8752C34.4507 75.3455 49.9128 107.453 51.3244 110.384C51.3607 110.459 51.3878 110.516 51.405 110.551ZM35.1643 70.8752C35.1643 66.3584 40.1867 58.1211 42.3343 58.1211C43.9124 58.1211 48.0773 59.9264 49.9916 62.528C50.7444 63.3883 51.0197 64.5671 50.7257 65.6719C50.0848 67.2471 49.3375 68.7768 48.4889 70.2505C48.0773 71.0193 47.6999 71.7264 47.4392 72.248C47.3781 72.3592 47.3781 72.4938 47.4392 72.605L67.4262 102.808L51.8853 109.934L51.839 109.837C49.9526 105.901 35.1643 75.0399 35.1643 70.8752Z" fill="#231F20"/>
<path d="M134.07 79.2975L154.071 74.1972C153.385 73.2293 145.316 47.6045 136.808 43.4104C129.363 38.468 111.709 35.1731 96.1131 36.292C96.1131 36.292 91.9963 36.141 84.7782 39.0034C67.1995 45.9914 63.8101 70.3257 63.8101 70.3257L77.5327 75.069C77.5327 75.069 74.9117 106.542 72.4347 122.996C72.4347 122.996 102.775 128.934 146.949 121.623C146.983 121.61 134.152 83.9515 134.07 79.2975Z" fill="#E7816B"/>
<path d="M132.424 44.1174C129.775 46.8631 127.71 50.158 124.787 52.7459C118.488 58.3198 110.248 62.7336 101.609 62.1982C91.4272 61.5667 82.6241 54.6062 80.4148 44.4674C79.0425 38.111 80.4696 32.2076 85.3823 27.7183C88.7787 24.6156 93.1288 22.721 97.5749 21.5403C109.383 18.3758 122.632 20.0576 132.712 26.9907C134.359 28.0048 135.749 29.3862 136.774 31.0269C139.292 35.5918 136.396 40.287 133.13 43.4241C132.911 43.6369 132.677 43.8771 132.424 44.1174Z" fill="#E7816B"/>
<path d="M97.6845 51.3114C97.5816 51.3114 95.6879 53.6178 95.5918 53.6521C96.669 57.7159 97.808 63.0083 102.405 63.53C111.73 64.594 113.143 52.1557 114.9 46.2866C108.443 48.0988 103.887 48.8265 97.6845 51.3114Z" fill="#231F20"/>
<path fill-rule="evenodd" clip-rule="evenodd" d="M102.371 63.8732C102.744 63.9159 103.12 63.9388 103.496 63.9418C110.81 63.935 112.985 55.2309 114.405 49.355C114.433 49.2475 114.459 49.1406 114.486 49.0345C114.73 48.0623 114.959 47.148 115.195 46.3621C115.227 46.2433 115.196 46.1161 115.112 46.0257C115.025 45.9371 114.896 45.903 114.776 45.9365C112.774 46.4989 110.971 46.9516 109.223 47.3906L109.218 47.3917C105.25 48.304 101.352 49.4992 97.5541 50.9681C97.4443 51.0161 97.4306 51.023 96.3671 52.2449C96.0035 52.6705 95.5026 53.2539 95.3928 53.3569C95.2762 53.4381 95.2216 53.5827 95.2556 53.7207L95.434 54.4072L95.4451 54.4494C96.493 58.4168 97.7968 63.3533 102.371 63.8732ZM96.0721 54.2356L95.9486 53.7619H95.9691C96.1201 53.5972 96.3877 53.2951 96.868 52.6773C97.2248 52.2586 97.7051 51.7094 97.8423 51.5722C101.603 50.1161 105.465 48.9369 109.397 48.0439C109.701 47.9661 110.008 47.8879 110.32 47.8087C111.605 47.4821 112.955 47.1387 114.385 46.7465C114.179 47.4878 113.973 48.3116 113.761 49.1696L113.756 49.1871C112.192 55.4596 110.055 64.0302 102.426 63.1593C98.3112 62.7278 97.1271 58.237 96.0791 54.2622L96.0721 54.2356Z" fill="#231F20"/>
<path d="M106.714 3.43231C105.342 3.3774 104.464 3.9746 103.283 4.40019C100.985 5.21019 99.9146 3.28816 97.9385 2.26536C91.5238 -1.07107 83.6473 0.580179 79.1111 6.2124C77.742 7.83461 76.8553 9.80856 76.5518 11.9099C76.2636 14.2849 76.9292 16.7149 76.5175 19.0626C76.0059 21.8036 74.1178 24.0869 71.5225 25.1032C73.7191 25.2729 75.9285 25.0639 78.0544 24.4854C76.8181 25.9555 75.0069 26.819 73.0868 26.8537C75.2749 28.5369 77.9635 29.4383 80.7235 29.4141L75.8863 30.5467C80.003 33.1895 85.0187 33.9789 89.8696 33.7593C99.5303 33.2582 115.709 29.3043 115.428 16.7836C115.27 11.9854 112.635 3.70689 106.714 3.43231Z" fill="white"/>
<path fill-rule="evenodd" clip-rule="evenodd" d="M75.6734 30.8554C79.7764 33.4777 84.5107 34.1641 88.209 34.1641C88.7853 34.1641 89.3411 34.1504 89.9175 34.1092C92.8335 33.9582 100.299 33.2305 106.556 30.0935C112.814 26.9565 115.922 22.474 115.798 16.7834C115.702 11.4155 112.724 3.35664 106.783 3.09579C105.843 3.08981 104.917 3.3087 104.079 3.73418C104.036 3.75193 103.993 3.76984 103.95 3.78784C103.71 3.88815 103.463 3.99114 103.201 4.08426C101.76 4.58536 100.882 3.91952 99.7703 3.0752C99.25 2.65917 98.6944 2.28938 98.1099 1.97003C91.5521 -1.44614 83.4961 0.239894 78.857 5.99943C77.4471 7.67324 76.5344 9.70887 76.2223 11.8754C76.1151 13.0169 76.1151 14.166 76.2223 15.3076C76.36 16.5448 76.3461 17.7942 76.1811 19.0281C75.6901 21.6559 73.8721 23.8411 71.3782 24.801C71.2251 24.8553 71.1327 25.0113 71.1586 25.1717C71.1803 25.33 71.3083 25.4524 71.4674 25.4669C73.2904 25.6107 75.1247 25.4952 76.9153 25.1237C75.8215 26.0122 74.4612 26.5078 73.0524 26.5309C72.9047 26.5309 72.7736 26.6254 72.7269 26.7656C72.6802 26.9057 72.7284 27.06 72.8465 27.1487C74.4941 28.4136 76.4254 29.2572 78.4728 29.6061L75.7832 30.2308C75.6517 30.2663 75.5511 30.3722 75.5224 30.5054C75.4992 30.6416 75.5584 30.7788 75.6734 30.8554ZM89.8283 33.4777C86.2672 33.6493 81.183 33.306 76.7506 30.7319L80.7851 29.7228C80.9556 29.6821 81.0681 29.5193 81.0458 29.3453C81.0279 29.1704 80.8784 29.0387 80.7027 29.0432C78.3339 29.0665 76.0111 28.3882 74.0267 27.0938C75.6933 26.8278 77.2084 25.97 78.2944 24.6775C78.3804 24.5562 78.3804 24.3938 78.2944 24.2725C78.2123 24.1446 78.056 24.086 77.9102 24.1283C76.2604 24.5817 74.5574 24.8126 72.8465 24.8148C74.924 23.5771 76.367 21.5031 76.8055 19.1242C76.9814 17.8361 76.9998 16.5314 76.8604 15.2389C76.7575 14.1453 76.7575 13.0445 76.8604 11.9509C77.1647 9.92446 78.0271 8.02289 79.351 6.45935C83.7822 0.949517 91.486 -0.662638 97.7531 2.60842C98.3018 2.90727 98.823 3.25413 99.3106 3.64494C100.484 4.53731 101.595 5.38164 103.372 4.75698C103.656 4.6603 103.924 4.54766 104.186 4.4378C104.221 4.42285 104.257 4.40796 104.292 4.39316C105.039 4.01524 105.863 3.81553 106.7 3.80969C112.203 4.0774 114.941 11.7449 115.057 16.8521C115.174 22.2612 112.196 26.524 106.192 29.5306C99.983 32.6471 92.6826 33.3266 89.8283 33.4777Z" fill="#231F20"/>
<path d="M94.9058 41.8316L95.5919 53.6521C95.5919 53.6521 100.992 59.8301 107.942 56.0341C114.893 52.238 114.625 46.218 114.625 46.218L110.062 24.0253C110.062 24.0253 103.757 22.5701 102.151 10.1455C96.7724 14.4064 90.3437 17.136 83.5435 18.0464C83.5435 18.0464 83.667 31.9469 86.1164 37.4727C88.5659 42.9986 94.9058 41.8316 94.9058 41.8316Z" fill="white"/>
<path fill-rule="evenodd" clip-rule="evenodd" d="M95.3311 53.8788C95.3722 53.9337 98.6588 57.6062 103.379 57.6062C105.031 57.5888 106.65 57.1518 108.086 56.3363C115.044 52.5382 114.952 46.458 114.948 46.1593C114.948 46.1546 114.948 46.1513 114.948 46.1495L110.378 23.9363C110.351 23.806 110.253 23.7023 110.124 23.6686C108.864 23.2394 107.748 22.4696 106.899 21.4445C105.328 19.7284 103.283 16.3717 102.474 10.0839C102.455 9.95958 102.371 9.85478 102.254 9.80933C102.135 9.76317 102 9.78698 101.904 9.87111C96.5648 14.0685 90.203 16.765 83.4747 17.6828C83.3057 17.7097 83.1809 17.8548 83.1797 18.026L83.1798 18.0391C83.1886 18.7752 83.3469 32.1346 85.7801 37.5896C87.9552 42.4976 93.1149 42.3603 94.5626 42.2162L95.2487 53.6729C95.251 53.7491 95.2802 53.8221 95.3311 53.8788ZM107.784 55.7116C101.52 59.137 96.6073 54.2358 95.9211 53.4875L95.2487 41.7769C95.2409 41.6782 95.194 41.5867 95.1184 41.5229C95.0396 41.4648 94.94 41.4424 94.8439 41.4611L94.8433 41.4612C94.5876 41.5039 88.7355 42.4797 86.4251 37.2807C84.2363 32.3314 83.8933 20.3462 83.8933 18.2869C90.4321 17.3183 96.6229 14.7219 101.897 10.736C103.469 21.5818 108.628 23.8608 109.767 24.2383L114.289 46.2044C114.289 46.205 114.289 46.2063 114.289 46.2084C114.292 46.3877 114.38 52.1002 107.784 55.7116Z" fill="#231F20"/>
<path d="M107.489 30.2445C109.101 30.4874 110.744 30.0827 112.059 29.1187C113.865 27.6881 114.795 25.4201 114.515 23.1329C114.473 22.2923 114.238 21.4727 113.829 20.7373C113.424 19.993 112.715 19.4619 111.888 19.282C110.874 19.219 109.868 19.4863 109.019 20.044C107.688 20.7304 107.647 21.4923 106.92 22.6181C107.002 22.5151 107.064 22.2268 107.146 22.1239" fill="white"/>
<path d="M108.409 30.6633C108.083 30.662 107.757 30.6368 107.435 30.5878C107.246 30.5562 107.118 30.3788 107.146 30.1896C107.16 30.0999 107.209 30.0193 107.283 29.9663C107.356 29.9133 107.448 29.8924 107.538 29.9082C109.058 30.132 110.604 29.7445 111.84 28.8305C113.549 27.4696 114.426 25.3152 114.152 23.1467C114.124 22.3592 113.915 21.5886 113.541 20.8952C113.183 20.2452 112.564 19.7802 111.84 19.6184C110.989 19.4674 110.138 19.8587 109.191 20.3461C108.54 20.6627 108.031 21.2111 107.764 21.8837C107.62 22.1445 107.462 22.4397 107.249 22.7623C107.235 22.7902 107.217 22.8157 107.194 22.8378C107.08 22.9798 106.873 23.0042 106.728 22.8928C106.577 22.7862 106.54 22.5778 106.646 22.426C106.646 22.426 106.646 22.3367 106.694 22.2887C106.734 22.1644 106.792 22.0465 106.865 21.9386C106.901 21.897 106.945 21.8641 106.995 21.8425L107.126 21.5954C107.465 20.7991 108.078 20.1511 108.855 19.7694C109.665 19.3507 110.783 18.7741 111.929 18.9732C112.872 19.1604 113.685 19.7528 114.152 20.5932C114.573 21.3783 114.807 22.2496 114.838 23.1399C115.133 25.5435 114.149 27.9262 112.244 29.4208C111.13 30.2322 109.787 30.6674 108.409 30.6633Z" fill="#231F20"/>
<path d="M95.2626 48.0509C98.006 47.8535 100.474 46.3116 101.856 43.9323C104.278 39.8892 103.311 37.3013 103.311 37.3013C103.311 37.3013 100.045 41.468 94.9058 41.8043L95.2626 48.0509Z" fill="#231F20"/>
<path fill-rule="evenodd" clip-rule="evenodd" d="M94.9263 48.0646C94.9337 48.245 95.0821 48.3874 95.2625 48.3873L95.2831 48.4216C98.1353 48.2385 100.709 46.6449 102.144 44.1725C104.628 40.0333 103.674 37.3562 103.633 37.2463C103.589 37.131 103.487 37.0475 103.366 37.0267C103.243 37.0084 103.119 37.0583 103.043 37.1571C103.043 37.1576 103.042 37.1588 103.04 37.1606C102.927 37.2995 99.7423 41.2111 94.8851 41.5229C94.7941 41.5282 94.7089 41.5695 94.6484 41.6378C94.5879 41.7061 94.557 41.7956 94.5627 41.8867L94.9263 48.0646ZM95.585 47.6802L95.2625 42.1407C98.2738 41.7486 101.051 40.3073 103.105 38.0701C103.229 39.0311 103.187 41.0355 101.547 43.7813C100.27 45.9343 98.0686 47.3741 95.585 47.6802Z" fill="#231F20"/>
<path d="M94 23.0439C94 23.0439 91.427 29.826 92.5934 30.636C93.7599 31.446 96.2231 30.1555 96.2231 30.1555" fill="white"/>
<path d="M93.609 31.2466C93.1797 31.2663 92.7551 31.1511 92.3945 30.9171C91.1046 30.0248 93.0807 24.5744 93.6708 22.9201C93.738 22.7447 93.9337 22.656 94.1099 22.721C94.1958 22.7533 94.2652 22.8187 94.3026 22.9025C94.34 22.9864 94.3422 23.0817 94.3089 23.1672C93.115 26.318 92.2505 29.963 92.7856 30.3474C93.6021 30.9103 95.4272 30.1826 96.0585 29.8532C96.2274 29.7668 96.4343 29.8307 96.5251 29.9973C96.6098 30.1661 96.5423 30.3716 96.3741 30.4572C95.5194 30.9152 94.5765 31.1843 93.609 31.2466Z" fill="#231F20"/>
<ellipse cx="98.6285" cy="21.533" rx="0.994933" ry="1.40714" transform="rotate(-17.91 98.6285 21.533)" fill="#231F20"/>
<ellipse cx="89.4427" cy="23.7109" rx="0.994891" ry="1.4072" transform="rotate(-0.78 89.4427 23.7109)" fill="#231F20"/>
<path fill-rule="evenodd" clip-rule="evenodd" d="M92.9638 38.8046C93.5095 39.1745 94.1574 39.3641 94.8163 39.3469C95.2366 39.3453 95.6545 39.2852 96.0582 39.1684C97.7026 38.6554 99.0204 37.4154 99.633 35.8049C100.136 34.5082 100.326 33.1114 100.189 31.7274C100.176 31.6291 100.124 31.5401 100.045 31.4803C99.8868 31.3636 99.7908 31.295 90.9122 33.2376C90.7489 33.2736 90.6339 33.4203 90.6378 33.5877L90.6378 33.5878C90.6447 33.7407 90.8031 37.2263 92.9638 38.8046ZM93.3549 38.2417C91.8042 37.116 91.4337 34.686 91.3514 33.8554V33.8485C94.1782 33.2307 98.343 32.3383 99.5232 32.1255C99.6045 33.2941 99.4264 34.4662 99.0017 35.5577C98.4574 36.975 97.2946 38.065 95.8455 38.5163C95.016 38.8015 94.1024 38.7008 93.3549 38.2417Z" fill="#231F20"/>
<path d="M99.3178 35.6949C98.0004 38.88 94.7001 39.642 93.1426 38.5368C93.4925 37.3218 94.1306 36.0587 95.3176 35.5988C96.6201 35.1543 98.0381 35.1884 99.3178 35.6949Z" fill="#231F20"/>
<path fill-rule="evenodd" clip-rule="evenodd" d="M92.964 38.8047C93.511 39.1713 94.1585 39.3585 94.8166 39.3401C95.2365 39.3405 95.6544 39.2827 96.0585 39.1685C97.7003 38.6552 99.0172 37.4186 99.6332 35.8118C99.6672 35.7258 99.6672 35.6301 99.6332 35.5441C99.5946 35.458 99.5228 35.3912 99.4342 35.3588C98.0818 34.8341 96.5879 34.8025 95.2145 35.2696C94.1099 35.6883 93.3071 36.7591 92.8405 38.434C92.7984 38.5713 92.848 38.7202 92.964 38.8047ZM95.8458 38.5096C95.0971 38.7586 94.2812 38.7095 93.5678 38.3723C94.0001 37.068 94.6176 36.2306 95.4615 35.8873C96.5618 35.5214 97.7508 35.5214 98.851 35.8873C98.2677 37.1493 97.1747 38.1029 95.8458 38.5096Z" fill="#231F20"/>
<path fill-rule="evenodd" clip-rule="evenodd" d="M81.2105 26.9017C81.4169 27.8473 82.2535 28.5214 83.2209 28.5217C83.3697 28.5138 83.5171 28.4884 83.66 28.4462L91.3104 26.7713C92.3995 26.5156 93.0851 25.4364 92.8542 24.3413L92.1681 21.067C92.0515 20.5322 91.727 20.0658 91.2661 19.7708C90.8052 19.4759 90.2459 19.3767 89.7117 19.495L82.0613 21.1768C80.9513 21.4198 80.2479 22.5167 80.4901 23.6274L81.2105 26.9017ZM89.8627 20.1609C89.9607 20.1507 90.0596 20.1507 90.1577 20.1609L90.1851 20.1403C90.8167 20.1494 91.3605 20.5886 91.5025 21.2043L92.1886 24.4786C92.3343 25.204 91.8791 25.9144 91.1594 26.0849L83.5091 27.801C82.784 27.9467 82.0739 27.4913 81.9035 26.7713L81.1831 23.4489C81.0337 22.7191 81.4935 22.0032 82.2191 21.8358L89.8627 20.1609Z" fill="#231F20"/>
<path fill-rule="evenodd" clip-rule="evenodd" d="M95.7428 25.2059C96.0741 25.42 96.4599 25.5344 96.8543 25.5354C97.0156 25.5347 97.1764 25.5186 97.3346 25.4874L104.978 23.8124C106.078 23.5538 106.763 22.4573 106.515 21.355L105.829 18.0807C105.712 17.5459 105.388 17.0795 104.927 16.7845C104.466 16.4896 103.907 16.3903 103.373 16.5087L95.7291 18.1836C95.1934 18.3008 94.7266 18.627 94.4323 19.0897C94.1389 19.55 94.0401 20.108 94.1578 20.6411L94.8439 23.9154C94.9611 24.4476 95.2843 24.9117 95.7428 25.2059ZM103.496 17.1952C103.593 17.1736 103.692 17.1621 103.791 17.1608C104.435 17.1579 104.994 17.6033 105.136 18.2317L105.822 21.506C105.899 21.8571 105.835 22.2244 105.644 22.5288C105.448 22.8292 105.143 23.041 104.793 23.1191L97.1425 24.794C96.4174 24.9397 95.7073 24.4844 95.5369 23.7644L94.8165 20.4901C94.7419 20.138 94.8084 19.7707 95.0018 19.4673C95.1941 19.1637 95.5009 18.9508 95.8526 18.8769L103.496 17.1952Z" fill="#231F20"/>
<path d="M91.818 21.4995C91.7552 21.5008 91.6933 21.4842 91.6396 21.4514C91.4732 21.353 91.4154 21.14 91.5093 20.9709C91.8317 20.4149 92.8815 19.5431 94.6037 20.2364C94.7932 20.3085 94.8884 20.5205 94.8164 20.7101C94.7444 20.8996 94.5324 20.9949 94.343 20.9229C92.806 20.3051 92.1885 21.2455 92.1268 21.3553C92.0541 21.4516 91.9385 21.5056 91.818 21.4995Z" fill="#231F20"/>
<path d="M23.4656 112.878H164.534L187.17 154.236H0.830078L23.4656 112.878Z" fill="white"/>
<path fill-rule="evenodd" clip-rule="evenodd" d="M0.830187 154.58H187.17C187.292 154.581 187.407 154.519 187.472 154.415C187.53 154.308 187.53 154.179 187.472 154.072L164.829 112.714C164.77 112.602 164.654 112.533 164.527 112.535H23.4794C23.3533 112.533 23.2367 112.602 23.1775 112.714L0.53515 154.072C0.476564 154.179 0.476564 154.308 0.53515 154.415C0.598725 154.517 0.710101 154.579 0.830187 154.58ZM186.587 153.893H1.4134L23.6715 113.222H164.328L186.587 153.893Z" fill="#D1D3D4"/>
<path d="M25.6543 86.1966L25.9562 84.8924C26.6423 83.5881 27.4039 82.7095 29.1742 82.7095H96.3258C97.9931 82.7123 99.4595 83.8132 99.928 85.414L110.844 122.935C111.429 124.605 110.615 126.442 108.985 127.129L107.798 127.41L25.6543 86.1966Z" fill="white"/>
<path fill-rule="evenodd" clip-rule="evenodd" d="M107.647 127.719C107.695 127.74 107.746 127.752 107.798 127.753L107.867 127.781L109.095 127.486C110.889 126.731 111.79 124.713 111.153 122.873L100.23 85.3037C99.715 83.5592 98.1169 82.3594 96.2986 82.3521H29.1469C27.1023 82.3521 26.3132 83.4709 25.6271 84.7134C25.6241 84.7431 25.6241 84.773 25.6271 84.8026L25.3252 86.1069C25.2863 86.2611 25.3607 86.4215 25.5036 86.4913L107.647 127.719ZM107.867 127.046L26.0731 86.0108L26.2789 85.0154C27.0062 83.7387 27.658 83.0522 29.1744 83.0522H96.3466C97.8599 83.0595 99.1897 84.058 99.6195 85.5097L110.536 123.031C110.927 124.39 110.584 126.154 108.93 126.799L107.867 127.046Z" fill="#231F20"/>
<path d="M107.798 127.41H39.2743C38.3183 127.4 37.4821 126.764 37.2159 125.845L25.6821 86.1963C25.5938 85.888 25.6553 85.5561 25.8481 85.2998C26.0409 85.0436 26.3426 84.8926 26.6632 84.8921H97.0191L108.937 125.893C109.044 126.252 108.974 126.64 108.75 126.939C108.525 127.238 108.172 127.413 107.798 127.41Z" fill="#231F20"/>
<path fill-rule="evenodd" clip-rule="evenodd" d="M39.274 127.753H107.798C108.279 127.753 108.731 127.526 109.02 127.142C109.309 126.757 109.4 126.259 109.266 125.797L97.3413 84.796C97.3008 84.652 97.1684 84.5533 97.0188 84.5558H26.6355C26.2095 84.5597 25.8096 84.7613 25.5529 85.1014C25.2963 85.4415 25.2121 85.8815 25.325 86.2924L36.8588 125.941C37.1765 127.012 38.1576 127.748 39.274 127.753ZM26.0983 85.5084C26.2257 85.3394 26.4239 85.2386 26.6355 85.2353H96.7444L108.614 125.989C108.69 126.243 108.641 126.518 108.484 126.731C108.321 126.944 108.067 127.069 107.798 127.067H39.274C38.46 127.065 37.7437 126.529 37.5107 125.749L25.9837 86.1002C25.9286 85.8958 25.9709 85.6775 26.0983 85.5084Z" fill="#231F20"/>
<path d="M96.3056 110.517L92.1408 128.234C91.6869 130.187 89.9456 131.567 87.9417 131.563H44.5987C43.2807 131.563 42.0352 130.96 41.2171 129.926C40.399 128.892 40.0979 127.541 40.3996 126.257L44.0704 110.517H40.4819L36.969 125.447C36.4318 127.776 36.985 130.223 38.4717 132.094C39.9585 133.965 42.2165 135.056 44.6056 135.057H87.976C91.5935 135.055 94.7374 132.571 95.5783 129.051L99.9284 110.517L96.3056 110.517Z" fill="white"/>
<path fill-rule="evenodd" clip-rule="evenodd" d="M44.5983 135.449H87.9412C91.7521 135.474 95.0718 132.854 95.9347 129.14L100.292 110.606C100.312 110.505 100.286 110.399 100.221 110.318C100.156 110.237 100.059 110.19 99.9554 110.188H96.3326C96.1754 110.187 96.0386 110.295 96.0033 110.448L91.8384 128.165C91.4199 129.965 89.8153 131.237 87.9687 131.234H44.5983C43.3845 131.232 42.2379 130.676 41.4842 129.725C40.7305 128.773 40.4523 127.529 40.7285 126.346L44.4268 110.606C44.4516 110.506 44.4288 110.399 44.365 110.318C44.2997 110.237 44.2016 110.189 44.0974 110.188H40.4747C40.3157 110.186 40.1766 110.294 40.1384 110.448L36.6323 125.385C36.0602 127.82 36.6316 130.383 38.1837 132.344C39.7358 134.304 42.0983 135.448 44.5983 135.449ZM37.2841 125.543L40.7148 110.874H43.6583L40.063 126.188C39.7358 127.575 40.0605 129.035 40.9444 130.152C41.8282 131.269 43.1742 131.921 44.5983 131.92H87.9549C90.1216 131.93 92.0056 130.436 92.4903 128.323L96.6071 110.874H99.5231L95.2691 128.975C94.482 132.371 91.4531 134.772 87.9687 134.762H44.5983C42.3043 134.769 40.1337 133.724 38.7075 131.926C37.2813 130.129 36.7569 127.777 37.2841 125.543Z" fill="#231F20"/>
<path d="M152.198 74.3896C152.198 74.3896 158.332 101.641 153.309 108.602C148.287 115.562 113.212 114.464 113.212 114.464C113.212 114.464 107.524 121.294 102.583 120.841C97.6433 120.388 100.525 111.039 106.337 107.147L105.534 103.9L136.458 98.9368L132.341 79.3526" fill="white"/>
<path d="M103.036 121.205C102.867 121.205 102.696 121.205 102.522 121.205C101.207 121.139 100.102 120.194 99.8321 118.905C99.0568 115.864 101.541 110.064 105.911 107.016L105.17 104.002C105.146 103.911 105.161 103.814 105.211 103.735C105.264 103.653 105.349 103.598 105.445 103.584L136.012 98.6756L131.964 79.4553C131.945 79.3661 131.963 79.2733 132.014 79.1974C132.064 79.1214 132.142 79.0685 132.231 79.0503C132.32 79.03 132.412 79.0462 132.489 79.0953C132.565 79.1444 132.618 79.2223 132.636 79.3112L136.753 98.8953C136.773 98.9883 136.753 99.0856 136.698 99.163C136.646 99.2404 136.564 99.2927 136.472 99.3072L105.918 104.215L106.604 107.098C106.64 107.236 106.585 107.382 106.467 107.462C102.268 110.276 99.7498 115.94 100.47 118.754C100.661 119.753 101.513 120.489 102.529 120.532C107.229 120.971 112.821 114.354 112.862 114.278C112.929 114.197 113.031 114.152 113.136 114.155C113.486 114.155 148.129 115.164 152.973 108.43C157.817 101.696 151.875 74.7944 151.813 74.4992C151.786 74.3766 151.827 74.2489 151.92 74.1642C152.012 74.0795 152.143 74.0508 152.263 74.0887C152.382 74.1267 152.473 74.2256 152.5 74.3482C152.753 75.4671 158.606 101.806 153.549 108.835C148.609 115.699 116.231 114.931 113.301 114.841C112.526 115.747 107.633 121.205 103.036 121.205Z" fill="#231F20"/>
<path d="M115.401 60.8944C115.348 60.8935 115.296 60.8794 115.25 60.8532C115.165 60.8146 115.099 60.743 115.068 60.6549C115.037 60.5668 115.043 60.4699 115.085 60.3864C120.066 50.0898 132.856 43.1636 132.986 43.095C133.068 43.0493 133.164 43.0389 133.254 43.0661C133.343 43.0933 133.417 43.1558 133.46 43.2391C133.505 43.3217 133.516 43.4193 133.489 43.5098C133.462 43.6003 133.399 43.676 133.315 43.7196C133.192 43.7883 120.601 50.584 115.723 60.6953C115.661 60.8169 115.537 60.8937 115.401 60.8944Z" fill="#231F20"/>
<path d="M94.2537 60.4067C94.2039 60.4171 94.1526 60.4171 94.1028 60.4067C82.1504 54.9152 80.7026 42.8476 80.6889 42.7309C80.6689 42.5359 80.8098 42.3612 81.0045 42.3396C81.0975 42.328 81.1911 42.3542 81.2646 42.4122C81.3382 42.4703 81.3853 42.5554 81.3956 42.6485C81.3956 42.7652 82.8228 54.4416 94.4321 59.6997C94.6087 59.7807 94.688 59.9882 94.6105 60.1665C94.5567 60.3159 94.4123 60.4131 94.2537 60.4067Z" fill="#231F20"/>
<path d="M39.7954 75.9684C39.6422 75.9246 39.5366 75.7846 39.5366 75.6252C39.5366 75.4658 39.6422 75.3258 39.7954 75.282C44.9688 75.1241 47.4801 72.1999 47.5075 72.1724C47.5665 72.1003 47.6518 72.0546 47.7445 72.0456C47.8373 72.0366 47.9298 72.0649 48.0015 72.1244C48.1526 72.2497 48.1741 72.4736 48.0496 72.6255C47.9398 72.7559 45.305 75.8243 39.816 75.989L39.7954 75.9684Z" fill="#231F20"/>
<path d="M132.3 79.7025C132.137 79.7039 131.995 79.5929 131.957 79.4348C131.957 79.3112 128.725 66.6601 128.279 59.075C128.273 58.9821 128.305 58.8908 128.367 58.8212C128.429 58.7517 128.515 58.7096 128.608 58.7043C128.803 58.6925 128.971 58.8392 128.986 59.0338C129.432 66.5503 132.615 79.1328 132.643 79.2632C132.691 79.4525 132.578 79.6453 132.389 79.6956L132.3 79.7025Z" fill="#231F20"/>
<path d="M76.9975 81.9608C76.9033 81.9556 76.8153 81.9126 76.7533 81.8415C76.6913 81.7704 76.6606 81.6773 76.6681 81.5833L78.3697 54.9151C78.375 54.8209 78.418 54.7328 78.489 54.6708C78.5601 54.6088 78.6531 54.5781 78.7471 54.5856C78.8406 54.589 78.9287 54.6306 78.9909 54.7006C79.0531 54.7706 79.084 54.8629 79.0764 54.9563L77.3474 81.6245C77.34 81.8125 77.1855 81.961 76.9975 81.9608Z" fill="#231F20"/>
<path d="M137.748 67.0446C137.618 67.0461 137.499 66.9744 137.439 66.8592L134.118 60.6813C134.081 60.5911 134.081 60.49 134.118 60.3998C134.15 60.3076 134.216 60.2313 134.303 60.187L144.595 55.3202C144.68 55.2779 144.778 55.2716 144.867 55.3026C144.956 55.3337 145.029 55.3994 145.069 55.4849C145.153 55.6613 145.079 55.8723 144.904 55.9586L134.928 60.6675L137.933 66.2414L148.04 63.1524C148.162 63.1157 148.295 63.1471 148.388 63.2349C148.481 63.3227 148.521 63.4535 148.491 63.5781C148.462 63.7027 148.368 63.8021 148.246 63.8389L137.851 67.0514L137.748 67.0446Z" fill="#231F20"/>
<ellipse cx="146.661" cy="140.274" rx="16.9406" ry="5.10025" fill="white"/>
<path fill-rule="evenodd" clip-rule="evenodd" d="M129.377 140.274C129.377 143.329 136.972 145.718 146.661 145.718C156.349 145.718 163.944 143.329 163.944 140.274C163.944 137.219 156.349 134.831 146.661 134.831C136.972 134.831 129.377 137.219 129.377 140.274ZM130.063 140.274C130.063 137.974 136.732 135.517 146.661 135.517C156.589 135.517 163.258 137.974 163.258 140.274C163.258 142.574 156.589 145.031 146.661 145.031C136.732 145.031 130.063 142.574 130.063 140.274Z" fill="#D1D3D4"/>
<path d="M133.892 125.708L133.487 125.784C132.263 125.966 131.149 126.594 130.358 127.548C129.454 128.929 129.414 130.705 130.255 132.126C132.053 135.366 136.43 136.245 139.806 136.581C140.284 136.659 140.773 136.621 141.233 136.471C141.699 136.312 142.014 135.879 142.022 135.387C141.963 134.986 141.705 134.642 141.336 134.474C140.983 134.31 140.605 134.203 140.218 134.158C138.118 133.815 135.909 133.561 133.988 132.593C132.869 132.023 131.305 130.726 132.122 129.326C132.407 128.882 132.818 128.533 133.302 128.323C135.23 127.404 137.062 128.104 138.962 128.667C139.1 128.717 139.248 128.738 139.395 128.728C139.771 128.625 140.01 128.256 139.95 127.87C139.889 127.04 139.058 126.497 138.276 126.189C136.879 125.658 135.37 125.492 133.892 125.708Z" fill="white"/>
<path fill-rule="evenodd" clip-rule="evenodd" d="M139.779 136.924C139.977 136.946 140.176 136.958 140.376 136.958C140.71 136.964 141.042 136.908 141.357 136.794C141.946 136.657 142.375 136.15 142.415 135.546C142.454 134.943 142.094 134.384 141.528 134.172C141.141 133.987 140.726 133.868 140.3 133.821L139.525 133.698C137.677 133.502 135.87 133.026 134.166 132.284C133.348 131.922 132.69 131.276 132.314 130.465C132.216 130.141 132.263 129.79 132.444 129.504C132.694 129.116 133.055 128.812 133.48 128.632C135.12 127.849 136.712 128.33 138.4 128.845L138.894 128.996C139.079 129.059 139.275 129.084 139.47 129.071C140.025 128.939 140.392 128.409 140.321 127.843C140.231 126.724 139.113 126.126 138.427 125.872C136.968 125.313 135.389 125.141 133.844 125.371L133.418 125.447C132.112 125.648 130.925 126.322 130.084 127.341C129.096 128.83 129.045 130.752 129.953 132.291C131.415 134.927 134.626 136.437 139.779 136.924ZM133.555 126.12L133.947 126.051V126.065C135.374 125.851 136.832 126.009 138.18 126.525C138.599 126.676 139.58 127.129 139.635 127.897C139.648 128.103 139.545 128.385 139.381 128.385C139.282 128.387 139.185 128.371 139.093 128.337L138.599 128.186C136.863 127.657 135.065 127.115 133.185 128.014C132.636 128.25 132.172 128.647 131.854 129.154C131.575 129.606 131.503 130.155 131.655 130.664C132.083 131.658 132.869 132.454 133.857 132.895C135.622 133.673 137.497 134.173 139.415 134.377L140.19 134.501C140.539 134.537 140.88 134.63 141.199 134.776C141.454 134.893 141.634 135.13 141.679 135.407C141.656 135.75 141.428 136.045 141.103 136.155C140.694 136.279 140.262 136.307 139.84 136.238C134.935 135.778 131.895 134.377 130.557 131.961C129.777 130.657 129.807 129.022 130.633 127.746C131.377 126.867 132.416 126.289 133.555 126.12Z" fill="#231F20"/>
<path d="M135.477 122.234C135.477 122.234 138.646 138.064 138.907 139.018C139.168 139.972 146.661 143.892 152.63 140.041L157.851 123.861L135.477 122.234Z" fill="white"/>
<path fill-rule="evenodd" clip-rule="evenodd" d="M141.549 141.05C143.222 141.698 144.998 142.037 146.791 142.052C148.919 142.089 151.01 141.502 152.808 140.363C152.876 140.323 152.927 140.259 152.953 140.185L158.174 124.005C158.209 123.905 158.194 123.795 158.135 123.707C158.075 123.619 157.978 123.564 157.872 123.559L135.497 121.898C135.391 121.886 135.285 121.927 135.214 122.008C135.143 122.088 135.115 122.199 135.141 122.303C135.271 122.955 138.317 138.153 138.571 139.107C138.736 139.718 140.232 140.542 141.549 141.05ZM139.237 138.929C139.01 138.084 136.417 125.186 135.902 122.612L157.412 124.177L152.363 139.821C148.753 142.073 144.815 141.366 142.757 140.741C140.568 140.075 139.333 139.155 139.237 138.929Z" fill="#231F20"/>
<ellipse cx="146.696" cy="122.697" rx="4.86" ry="11.2183" transform="rotate(-87.65 146.696 122.697)" fill="#231F20"/>
<path fill-rule="evenodd" clip-rule="evenodd" d="M146.475 127.918H147.566C149.956 127.97 152.336 127.591 154.592 126.799C156.863 125.948 158.181 124.644 158.236 123.202C158.359 120.278 153.378 117.8 146.901 117.532C140.424 117.264 135.257 119.324 135.134 122.248C135.01 125.172 139.991 127.657 146.475 127.918ZM135.813 122.282C135.909 119.948 140.403 118.164 145.844 118.164L146.901 118.184C152.781 118.425 157.687 120.697 157.584 123.147C157.536 124.28 156.369 125.371 154.38 126.133C151.853 127.019 149.176 127.394 146.503 127.238C140.616 126.998 135.717 124.726 135.813 122.282Z" fill="#231F20"/>
<path fill-rule="evenodd" clip-rule="evenodd" d="M83.5433 78.2543H119.846C120.028 78.2547 120.179 78.1132 120.19 77.9317V67.1889C120.19 66.9994 120.036 66.8457 119.846 66.8457H83.5433C83.3553 66.8494 83.2038 67.0009 83.2002 67.1889V77.9111C83.2002 78.1007 83.3538 78.2543 83.5433 78.2543ZM119.503 77.5679H83.8863V67.5321H119.503V77.5679Z" fill="white"/>
<rect x="0.830078" y="154.236" width="186.333" height="7.18703" fill="white"/>
<path fill-rule="evenodd" clip-rule="evenodd" d="M0.83037 161.767H187.17C187.359 161.767 187.513 161.613 187.513 161.423V154.236C187.509 154.048 187.358 153.897 187.17 153.893H0.83037C0.642433 153.897 0.490955 154.048 0.487305 154.236V161.423C0.487305 161.613 0.6409 161.767 0.83037 161.767ZM186.827 161.08H1.17344V154.58H186.827V161.08Z" fill="#D1D3D4"/>
<path d="M157.845 87.1164C157.657 87.109 157.508 86.9544 157.508 86.7663C157.508 85.9769 158.009 67.3675 160.061 60.9218C162.112 54.4761 165.961 51.7921 166.119 51.6892C166.277 51.583 166.49 51.6245 166.596 51.7819C166.702 51.9392 166.661 52.1528 166.503 52.2589C166.462 52.2589 162.709 54.8605 160.713 61.1277C158.716 67.3949 158.201 86.5878 158.194 86.78C158.193 86.8711 158.155 86.9576 158.089 87.0207C158.023 87.0838 157.935 87.1182 157.845 87.1164Z" fill="white"/>
</svg>
